M48
; DRILL file {KiCad (5.1.5)-3} date 25/05/2020 14:27:04
; FORMAT={-:-/ absolute / metric / decimal}
; #@! TF.CreationDate,2020-05-25T14:27:04+01:00
; #@! TF.GenerationSoftware,Kicad,Pcbnew,(5.1.5)-3
FMAT,2
METRIC
T1C0.500
T2C0.800
T3C1.000
T4C1.016
T5C2.700
T6C2.000
%
G90
G05
T1
X-109.728Y101.584
X-109.728Y100.584
T2
X-109.474Y96.578
X-109.474Y86.418
X-103.124Y-37.846
X-103.124Y-48.006
X-97.028Y96.578
X-97.028Y86.418
X-110.998Y-7.874
X-110.998Y-18.034
X-110.236Y-23.368
X-110.236Y-25.908
X-110.236Y-28.448
X-110.236Y-30.988
X-102.616Y-23.368
X-102.616Y-25.908
X-102.616Y-28.448
X-102.616Y-30.988
X-109.728Y-44.784
X-109.728Y-49.784
X-101.346Y96.52
X-101.346Y86.36
X-95.758Y-42.164
X-95.758Y-52.324
X-96.774Y-32.592
X-96.774Y-37.592
T3
X-106.172Y-53.88
X-103.632Y-53.88
X-101.092Y-53.88
X-105.852Y26.418
X-103.352Y26.418
X-100.852Y26.418
X-105.9Y-16.88
X-103.36Y-16.88
X-100.82Y-16.88
X-98.28Y-16.88
X-105.9Y100.12
X-103.36Y100.12
X-100.82Y100.12
X-98.28Y100.12
X-105.9Y63.12
X-103.36Y63.12
X-100.82Y63.12
X-105.826Y81.456
X-103.326Y81.456
X-100.826Y81.456
X-105.918Y42.672
X-103.418Y42.672
X-100.918Y42.672
X-105.852Y58.418
X-103.352Y58.418
X-100.852Y58.418
T4
X-104.648Y-70.866
X-104.648Y-73.406
X-104.648Y-75.946
X-104.648Y-78.486
X-104.648Y-81.026
X-102.108Y-70.866
X-102.108Y-73.406
X-102.108Y-75.946
X-102.108Y-78.486
X-102.108Y-81.026
T5
X-109.599Y-133.424
X-105.662Y-138.758
X-103.63Y-126.566
X-98.55Y-137.234
X-97.534Y-130.122
X-109.599Y-115.424
X-105.662Y-120.758
X-103.63Y-108.566
X-98.55Y-119.234
X-97.534Y-112.122
X-109.599Y1.278
X-105.662Y-4.056
X-103.63Y8.136
X-98.55Y-2.532
X-97.534Y4.58
X-109.599Y-151.424
X-105.662Y-156.758
X-103.63Y-144.566
X-98.55Y-155.234
X-97.534Y-148.122
T6
X-107.726Y74.456
X-98.926Y74.456
X-107.818Y35.672
X-99.018Y35.672
X-107.752Y51.418
X-98.952Y51.418
X-107.752Y19.418
X-98.952Y19.418
T0
M30
