G04 #@! TF.GenerationSoftware,KiCad,Pcbnew,(5.1.5)-3*
G04 #@! TF.CreationDate,2020-05-25T14:27:01+01:00*
G04 #@! TF.ProjectId,mixer,6d697865-722e-46b6-9963-61645f706362,rev?*
G04 #@! TF.SameCoordinates,Original*
G04 #@! TF.FileFunction,Copper,L1,Top*
G04 #@! TF.FilePolarity,Positive*
%FSLAX46Y46*%
G04 Gerber Fmt 4.6, Leading zero omitted, Abs format (unit mm)*
G04 Created by KiCad (PCBNEW (5.1.5)-3) date 2020-05-25 14:27:01*
%MOMM*%
%LPD*%
G04 APERTURE LIST*
%ADD10C,0.100000*%
%ADD11C,0.150000*%
%ADD12C,0.300000*%
%ADD13C,0.400000*%
%ADD14C,4.500000*%
%ADD15R,4.500000X4.500000*%
%ADD16O,0.850000X0.850000*%
%ADD17R,0.850000X0.850000*%
%ADD18C,1.600000*%
%ADD19O,1.700000X1.700000*%
%ADD20R,1.700000X1.700000*%
%ADD21C,4.000000*%
%ADD22C,1.800000*%
%ADD23O,1.600000X1.600000*%
%ADD24R,1.727200X1.727200*%
%ADD25O,1.727200X1.727200*%
%ADD26R,1.600000X1.600000*%
%ADD27C,0.250000*%
%ADD28C,0.254000*%
G04 APERTURE END LIST*
D10*
D11*
X177002200Y-166007200D02*
X177002200Y-198007200D01*
X285002200Y-198007200D01*
X285002200Y-166007200D01*
X177002200Y-166007200D01*
D10*
D11*
X10000000Y-10000000D02*
X10000000Y-200007200D01*
X287002200Y-200007200D01*
X287002200Y-10000000D01*
X10000000Y-10000000D01*
D10*
D11*
X12000000Y-12000000D02*
X12000000Y-198007200D01*
X285002200Y-198007200D01*
X285002200Y-12000000D01*
X12000000Y-12000000D01*
D10*
D11*
X60000000Y-12000000D02*
X60000000Y-10000000D01*
D10*
D11*
X110000000Y-12000000D02*
X110000000Y-10000000D01*
D10*
D11*
X160000000Y-12000000D02*
X160000000Y-10000000D01*
D10*
D11*
X210000000Y-12000000D02*
X210000000Y-10000000D01*
D10*
D11*
X260000000Y-12000000D02*
X260000000Y-10000000D01*
D10*
D11*
X36065476Y-11588095D02*
X35322619Y-11588095D01*
X35694047Y-11588095D02*
X35694047Y-10288095D01*
X35570238Y-10473809D01*
X35446428Y-10597619D01*
X35322619Y-10659523D01*
D10*
D11*
X85322619Y-10411904D02*
X85384523Y-10350000D01*
X85508333Y-10288095D01*
X85817857Y-10288095D01*
X85941666Y-10350000D01*
X86003571Y-10411904D01*
X86065476Y-10535714D01*
X86065476Y-10659523D01*
X86003571Y-10845238D01*
X85260714Y-11588095D01*
X86065476Y-11588095D01*
D10*
D11*
X135260714Y-10288095D02*
X136065476Y-10288095D01*
X135632142Y-10783333D01*
X135817857Y-10783333D01*
X135941666Y-10845238D01*
X136003571Y-10907142D01*
X136065476Y-11030952D01*
X136065476Y-11340476D01*
X136003571Y-11464285D01*
X135941666Y-11526190D01*
X135817857Y-11588095D01*
X135446428Y-11588095D01*
X135322619Y-11526190D01*
X135260714Y-11464285D01*
D10*
D11*
X185941666Y-10721428D02*
X185941666Y-11588095D01*
X185632142Y-10226190D02*
X185322619Y-11154761D01*
X186127380Y-11154761D01*
D10*
D11*
X236003571Y-10288095D02*
X235384523Y-10288095D01*
X235322619Y-10907142D01*
X235384523Y-10845238D01*
X235508333Y-10783333D01*
X235817857Y-10783333D01*
X235941666Y-10845238D01*
X236003571Y-10907142D01*
X236065476Y-11030952D01*
X236065476Y-11340476D01*
X236003571Y-11464285D01*
X235941666Y-11526190D01*
X235817857Y-11588095D01*
X235508333Y-11588095D01*
X235384523Y-11526190D01*
X235322619Y-11464285D01*
D10*
D11*
X285941666Y-10288095D02*
X285694047Y-10288095D01*
X285570238Y-10350000D01*
X285508333Y-10411904D01*
X285384523Y-10597619D01*
X285322619Y-10845238D01*
X285322619Y-11340476D01*
X285384523Y-11464285D01*
X285446428Y-11526190D01*
X285570238Y-11588095D01*
X285817857Y-11588095D01*
X285941666Y-11526190D01*
X286003571Y-11464285D01*
X286065476Y-11340476D01*
X286065476Y-11030952D01*
X286003571Y-10907142D01*
X285941666Y-10845238D01*
X285817857Y-10783333D01*
X285570238Y-10783333D01*
X285446428Y-10845238D01*
X285384523Y-10907142D01*
X285322619Y-11030952D01*
D10*
D11*
X60000000Y-198007200D02*
X60000000Y-200007200D01*
D10*
D11*
X110000000Y-198007200D02*
X110000000Y-200007200D01*
D10*
D11*
X160000000Y-198007200D02*
X160000000Y-200007200D01*
D10*
D11*
X210000000Y-198007200D02*
X210000000Y-200007200D01*
D10*
D11*
X260000000Y-198007200D02*
X260000000Y-200007200D01*
D10*
D11*
X36065476Y-199595295D02*
X35322619Y-199595295D01*
X35694047Y-199595295D02*
X35694047Y-198295295D01*
X35570238Y-198481009D01*
X35446428Y-198604819D01*
X35322619Y-198666723D01*
D10*
D11*
X85322619Y-198419104D02*
X85384523Y-198357200D01*
X85508333Y-198295295D01*
X85817857Y-198295295D01*
X85941666Y-198357200D01*
X86003571Y-198419104D01*
X86065476Y-198542914D01*
X86065476Y-198666723D01*
X86003571Y-198852438D01*
X85260714Y-199595295D01*
X86065476Y-199595295D01*
D10*
D11*
X135260714Y-198295295D02*
X136065476Y-198295295D01*
X135632142Y-198790533D01*
X135817857Y-198790533D01*
X135941666Y-198852438D01*
X136003571Y-198914342D01*
X136065476Y-199038152D01*
X136065476Y-199347676D01*
X136003571Y-199471485D01*
X135941666Y-199533390D01*
X135817857Y-199595295D01*
X135446428Y-199595295D01*
X135322619Y-199533390D01*
X135260714Y-199471485D01*
D10*
D11*
X185941666Y-198728628D02*
X185941666Y-199595295D01*
X185632142Y-198233390D02*
X185322619Y-199161961D01*
X186127380Y-199161961D01*
D10*
D11*
X236003571Y-198295295D02*
X235384523Y-198295295D01*
X235322619Y-198914342D01*
X235384523Y-198852438D01*
X235508333Y-198790533D01*
X235817857Y-198790533D01*
X235941666Y-198852438D01*
X236003571Y-198914342D01*
X236065476Y-199038152D01*
X236065476Y-199347676D01*
X236003571Y-199471485D01*
X235941666Y-199533390D01*
X235817857Y-199595295D01*
X235508333Y-199595295D01*
X235384523Y-199533390D01*
X235322619Y-199471485D01*
D10*
D11*
X285941666Y-198295295D02*
X285694047Y-198295295D01*
X285570238Y-198357200D01*
X285508333Y-198419104D01*
X285384523Y-198604819D01*
X285322619Y-198852438D01*
X285322619Y-199347676D01*
X285384523Y-199471485D01*
X285446428Y-199533390D01*
X285570238Y-199595295D01*
X285817857Y-199595295D01*
X285941666Y-199533390D01*
X286003571Y-199471485D01*
X286065476Y-199347676D01*
X286065476Y-199038152D01*
X286003571Y-198914342D01*
X285941666Y-198852438D01*
X285817857Y-198790533D01*
X285570238Y-198790533D01*
X285446428Y-198852438D01*
X285384523Y-198914342D01*
X285322619Y-199038152D01*
D10*
D11*
X10000000Y-60000000D02*
X12000000Y-60000000D01*
D10*
D11*
X10000000Y-110000000D02*
X12000000Y-110000000D01*
D10*
D11*
X10000000Y-160000000D02*
X12000000Y-160000000D01*
D10*
D11*
X10690476Y-35216666D02*
X11309523Y-35216666D01*
X10566666Y-35588095D02*
X11000000Y-34288095D01*
X11433333Y-35588095D01*
D10*
D11*
X11092857Y-84907142D02*
X11278571Y-84969047D01*
X11340476Y-85030952D01*
X11402380Y-85154761D01*
X11402380Y-85340476D01*
X11340476Y-85464285D01*
X11278571Y-85526190D01*
X11154761Y-85588095D01*
X10659523Y-85588095D01*
X10659523Y-84288095D01*
X11092857Y-84288095D01*
X11216666Y-84350000D01*
X11278571Y-84411904D01*
X11340476Y-84535714D01*
X11340476Y-84659523D01*
X11278571Y-84783333D01*
X11216666Y-84845238D01*
X11092857Y-84907142D01*
X10659523Y-84907142D01*
D10*
D11*
X11402380Y-135464285D02*
X11340476Y-135526190D01*
X11154761Y-135588095D01*
X11030952Y-135588095D01*
X10845238Y-135526190D01*
X10721428Y-135402380D01*
X10659523Y-135278571D01*
X10597619Y-135030952D01*
X10597619Y-134845238D01*
X10659523Y-134597619D01*
X10721428Y-134473809D01*
X10845238Y-134350000D01*
X11030952Y-134288095D01*
X11154761Y-134288095D01*
X11340476Y-134350000D01*
X11402380Y-134411904D01*
D10*
D11*
X10659523Y-185588095D02*
X10659523Y-184288095D01*
X10969047Y-184288095D01*
X11154761Y-184350000D01*
X11278571Y-184473809D01*
X11340476Y-184597619D01*
X11402380Y-184845238D01*
X11402380Y-185030952D01*
X11340476Y-185278571D01*
X11278571Y-185402380D01*
X11154761Y-185526190D01*
X10969047Y-185588095D01*
X10659523Y-185588095D01*
D10*
D11*
X287002200Y-60000000D02*
X285002200Y-60000000D01*
D10*
D11*
X287002200Y-110000000D02*
X285002200Y-110000000D01*
D10*
D11*
X287002200Y-160000000D02*
X285002200Y-160000000D01*
D10*
D11*
X285692676Y-35216666D02*
X286311723Y-35216666D01*
X285568866Y-35588095D02*
X286002200Y-34288095D01*
X286435533Y-35588095D01*
D10*
D11*
X286095057Y-84907142D02*
X286280771Y-84969047D01*
X286342676Y-85030952D01*
X286404580Y-85154761D01*
X286404580Y-85340476D01*
X286342676Y-85464285D01*
X286280771Y-85526190D01*
X286156961Y-85588095D01*
X285661723Y-85588095D01*
X285661723Y-84288095D01*
X286095057Y-84288095D01*
X286218866Y-84350000D01*
X286280771Y-84411904D01*
X286342676Y-84535714D01*
X286342676Y-84659523D01*
X286280771Y-84783333D01*
X286218866Y-84845238D01*
X286095057Y-84907142D01*
X285661723Y-84907142D01*
D10*
D11*
X286404580Y-135464285D02*
X286342676Y-135526190D01*
X286156961Y-135588095D01*
X286033152Y-135588095D01*
X285847438Y-135526190D01*
X285723628Y-135402380D01*
X285661723Y-135278571D01*
X285599819Y-135030952D01*
X285599819Y-134845238D01*
X285661723Y-134597619D01*
X285723628Y-134473809D01*
X285847438Y-134350000D01*
X286033152Y-134288095D01*
X286156961Y-134288095D01*
X286342676Y-134350000D01*
X286404580Y-134411904D01*
D10*
D11*
X285661723Y-185588095D02*
X285661723Y-184288095D01*
X285971247Y-184288095D01*
X286156961Y-184350000D01*
X286280771Y-184473809D01*
X286342676Y-184597619D01*
X286404580Y-184845238D01*
X286404580Y-185030952D01*
X286342676Y-185278571D01*
X286280771Y-185402380D01*
X286156961Y-185526190D01*
X285971247Y-185588095D01*
X285661723Y-185588095D01*
D10*
D11*
X200434342Y-193785771D02*
X200434342Y-192285771D01*
X200791485Y-192285771D01*
X201005771Y-192357200D01*
X201148628Y-192500057D01*
X201220057Y-192642914D01*
X201291485Y-192928628D01*
X201291485Y-193142914D01*
X201220057Y-193428628D01*
X201148628Y-193571485D01*
X201005771Y-193714342D01*
X200791485Y-193785771D01*
X200434342Y-193785771D01*
X202577200Y-193785771D02*
X202577200Y-193000057D01*
X202505771Y-192857200D01*
X202362914Y-192785771D01*
X202077200Y-192785771D01*
X201934342Y-192857200D01*
X202577200Y-193714342D02*
X202434342Y-193785771D01*
X202077200Y-193785771D01*
X201934342Y-193714342D01*
X201862914Y-193571485D01*
X201862914Y-193428628D01*
X201934342Y-193285771D01*
X202077200Y-193214342D01*
X202434342Y-193214342D01*
X202577200Y-193142914D01*
X203077200Y-192785771D02*
X203648628Y-192785771D01*
X203291485Y-192285771D02*
X203291485Y-193571485D01*
X203362914Y-193714342D01*
X203505771Y-193785771D01*
X203648628Y-193785771D01*
X204720057Y-193714342D02*
X204577200Y-193785771D01*
X204291485Y-193785771D01*
X204148628Y-193714342D01*
X204077200Y-193571485D01*
X204077200Y-193000057D01*
X204148628Y-192857200D01*
X204291485Y-192785771D01*
X204577200Y-192785771D01*
X204720057Y-192857200D01*
X204791485Y-193000057D01*
X204791485Y-193142914D01*
X204077200Y-193285771D01*
X205434342Y-193642914D02*
X205505771Y-193714342D01*
X205434342Y-193785771D01*
X205362914Y-193714342D01*
X205434342Y-193642914D01*
X205434342Y-193785771D01*
X205434342Y-192857200D02*
X205505771Y-192928628D01*
X205434342Y-193000057D01*
X205362914Y-192928628D01*
X205434342Y-192857200D01*
X205434342Y-193000057D01*
D10*
D11*
X177002200Y-194507200D02*
X285002200Y-194507200D01*
D10*
D11*
X178434342Y-196585771D02*
X178434342Y-195085771D01*
X179291485Y-196585771D02*
X178648628Y-195728628D01*
X179291485Y-195085771D02*
X178434342Y-195942914D01*
X179934342Y-196585771D02*
X179934342Y-195585771D01*
X179934342Y-195085771D02*
X179862914Y-195157200D01*
X179934342Y-195228628D01*
X180005771Y-195157200D01*
X179934342Y-195085771D01*
X179934342Y-195228628D01*
X181505771Y-196442914D02*
X181434342Y-196514342D01*
X181220057Y-196585771D01*
X181077200Y-196585771D01*
X180862914Y-196514342D01*
X180720057Y-196371485D01*
X180648628Y-196228628D01*
X180577200Y-195942914D01*
X180577200Y-195728628D01*
X180648628Y-195442914D01*
X180720057Y-195300057D01*
X180862914Y-195157200D01*
X181077200Y-195085771D01*
X181220057Y-195085771D01*
X181434342Y-195157200D01*
X181505771Y-195228628D01*
X182791485Y-196585771D02*
X182791485Y-195800057D01*
X182720057Y-195657200D01*
X182577200Y-195585771D01*
X182291485Y-195585771D01*
X182148628Y-195657200D01*
X182791485Y-196514342D02*
X182648628Y-196585771D01*
X182291485Y-196585771D01*
X182148628Y-196514342D01*
X182077200Y-196371485D01*
X182077200Y-196228628D01*
X182148628Y-196085771D01*
X182291485Y-196014342D01*
X182648628Y-196014342D01*
X182791485Y-195942914D01*
X184148628Y-196585771D02*
X184148628Y-195085771D01*
X184148628Y-196514342D02*
X184005771Y-196585771D01*
X183720057Y-196585771D01*
X183577200Y-196514342D01*
X183505771Y-196442914D01*
X183434342Y-196300057D01*
X183434342Y-195871485D01*
X183505771Y-195728628D01*
X183577200Y-195657200D01*
X183720057Y-195585771D01*
X184005771Y-195585771D01*
X184148628Y-195657200D01*
X186005771Y-195800057D02*
X186505771Y-195800057D01*
X186720057Y-196585771D02*
X186005771Y-196585771D01*
X186005771Y-195085771D01*
X186720057Y-195085771D01*
X187362914Y-196442914D02*
X187434342Y-196514342D01*
X187362914Y-196585771D01*
X187291485Y-196514342D01*
X187362914Y-196442914D01*
X187362914Y-196585771D01*
X188077200Y-196585771D02*
X188077200Y-195085771D01*
X188434342Y-195085771D01*
X188648628Y-195157200D01*
X188791485Y-195300057D01*
X188862914Y-195442914D01*
X188934342Y-195728628D01*
X188934342Y-195942914D01*
X188862914Y-196228628D01*
X188791485Y-196371485D01*
X188648628Y-196514342D01*
X188434342Y-196585771D01*
X188077200Y-196585771D01*
X189577200Y-196442914D02*
X189648628Y-196514342D01*
X189577200Y-196585771D01*
X189505771Y-196514342D01*
X189577200Y-196442914D01*
X189577200Y-196585771D01*
X190220057Y-196157200D02*
X190934342Y-196157200D01*
X190077200Y-196585771D02*
X190577200Y-195085771D01*
X191077200Y-196585771D01*
X191577200Y-196442914D02*
X191648628Y-196514342D01*
X191577200Y-196585771D01*
X191505771Y-196514342D01*
X191577200Y-196442914D01*
X191577200Y-196585771D01*
X194577200Y-196585771D02*
X194577200Y-195085771D01*
X194720057Y-196014342D02*
X195148628Y-196585771D01*
X195148628Y-195585771D02*
X194577200Y-196157200D01*
X195791485Y-196585771D02*
X195791485Y-195585771D01*
X195791485Y-195085771D02*
X195720057Y-195157200D01*
X195791485Y-195228628D01*
X195862914Y-195157200D01*
X195791485Y-195085771D01*
X195791485Y-195228628D01*
X197148628Y-196514342D02*
X197005771Y-196585771D01*
X196720057Y-196585771D01*
X196577200Y-196514342D01*
X196505771Y-196442914D01*
X196434342Y-196300057D01*
X196434342Y-195871485D01*
X196505771Y-195728628D01*
X196577200Y-195657200D01*
X196720057Y-195585771D01*
X197005771Y-195585771D01*
X197148628Y-195657200D01*
X198434342Y-196585771D02*
X198434342Y-195800057D01*
X198362914Y-195657200D01*
X198220057Y-195585771D01*
X197934342Y-195585771D01*
X197791485Y-195657200D01*
X198434342Y-196514342D02*
X198291485Y-196585771D01*
X197934342Y-196585771D01*
X197791485Y-196514342D01*
X197720057Y-196371485D01*
X197720057Y-196228628D01*
X197791485Y-196085771D01*
X197934342Y-196014342D01*
X198291485Y-196014342D01*
X198434342Y-195942914D01*
X199791485Y-196585771D02*
X199791485Y-195085771D01*
X199791485Y-196514342D02*
X199648628Y-196585771D01*
X199362914Y-196585771D01*
X199220057Y-196514342D01*
X199148628Y-196442914D01*
X199077200Y-196300057D01*
X199077200Y-195871485D01*
X199148628Y-195728628D01*
X199220057Y-195657200D01*
X199362914Y-195585771D01*
X199648628Y-195585771D01*
X199791485Y-195657200D01*
X202077200Y-197157200D02*
X202005771Y-197085771D01*
X201862914Y-196871485D01*
X201791485Y-196728628D01*
X201720057Y-196514342D01*
X201648628Y-196157200D01*
X201648628Y-195871485D01*
X201720057Y-195514342D01*
X201791485Y-195300057D01*
X201862914Y-195157200D01*
X202005771Y-194942914D01*
X202077200Y-194871485D01*
X203362914Y-195085771D02*
X202648628Y-195085771D01*
X202577200Y-195800057D01*
X202648628Y-195728628D01*
X202791485Y-195657200D01*
X203148628Y-195657200D01*
X203291485Y-195728628D01*
X203362914Y-195800057D01*
X203434342Y-195942914D01*
X203434342Y-196300057D01*
X203362914Y-196442914D01*
X203291485Y-196514342D01*
X203148628Y-196585771D01*
X202791485Y-196585771D01*
X202648628Y-196514342D01*
X202577200Y-196442914D01*
X204077200Y-196442914D02*
X204148628Y-196514342D01*
X204077200Y-196585771D01*
X204005771Y-196514342D01*
X204077200Y-196442914D01*
X204077200Y-196585771D01*
X205577200Y-196585771D02*
X204720057Y-196585771D01*
X205148628Y-196585771D02*
X205148628Y-195085771D01*
X205005771Y-195300057D01*
X204862914Y-195442914D01*
X204720057Y-195514342D01*
X206220057Y-196442914D02*
X206291485Y-196514342D01*
X206220057Y-196585771D01*
X206148628Y-196514342D01*
X206220057Y-196442914D01*
X206220057Y-196585771D01*
X207648628Y-195085771D02*
X206934342Y-195085771D01*
X206862914Y-195800057D01*
X206934342Y-195728628D01*
X207077200Y-195657200D01*
X207434342Y-195657200D01*
X207577200Y-195728628D01*
X207648628Y-195800057D01*
X207720057Y-195942914D01*
X207720057Y-196300057D01*
X207648628Y-196442914D01*
X207577200Y-196514342D01*
X207434342Y-196585771D01*
X207077200Y-196585771D01*
X206934342Y-196514342D01*
X206862914Y-196442914D01*
X208220057Y-197157200D02*
X208291485Y-197085771D01*
X208434342Y-196871485D01*
X208505771Y-196728628D01*
X208577200Y-196514342D01*
X208648628Y-196157200D01*
X208648628Y-195871485D01*
X208577200Y-195514342D01*
X208505771Y-195300057D01*
X208434342Y-195157200D01*
X208291485Y-194942914D01*
X208220057Y-194871485D01*
X209362914Y-196014342D02*
X210505771Y-196014342D01*
X211077200Y-195085771D02*
X212005771Y-195085771D01*
X211505771Y-195657200D01*
X211720057Y-195657200D01*
X211862914Y-195728628D01*
X211934342Y-195800057D01*
X212005771Y-195942914D01*
X212005771Y-196300057D01*
X211934342Y-196442914D01*
X211862914Y-196514342D01*
X211720057Y-196585771D01*
X211291485Y-196585771D01*
X211148628Y-196514342D01*
X211077200Y-196442914D01*
D10*
D11*
X177002200Y-191507200D02*
X285002200Y-191507200D01*
D10*
D12*
X264411485Y-193785771D02*
X263911485Y-193071485D01*
X263554342Y-193785771D02*
X263554342Y-192285771D01*
X264125771Y-192285771D01*
X264268628Y-192357200D01*
X264340057Y-192428628D01*
X264411485Y-192571485D01*
X264411485Y-192785771D01*
X264340057Y-192928628D01*
X264268628Y-193000057D01*
X264125771Y-193071485D01*
X263554342Y-193071485D01*
X265625771Y-193714342D02*
X265482914Y-193785771D01*
X265197200Y-193785771D01*
X265054342Y-193714342D01*
X264982914Y-193571485D01*
X264982914Y-193000057D01*
X265054342Y-192857200D01*
X265197200Y-192785771D01*
X265482914Y-192785771D01*
X265625771Y-192857200D01*
X265697200Y-193000057D01*
X265697200Y-193142914D01*
X264982914Y-193285771D01*
X266197200Y-192785771D02*
X266554342Y-193785771D01*
X266911485Y-192785771D01*
X267482914Y-193642914D02*
X267554342Y-193714342D01*
X267482914Y-193785771D01*
X267411485Y-193714342D01*
X267482914Y-193642914D01*
X267482914Y-193785771D01*
X267482914Y-192857200D02*
X267554342Y-192928628D01*
X267482914Y-193000057D01*
X267411485Y-192928628D01*
X267482914Y-192857200D01*
X267482914Y-193000057D01*
D10*
D11*
X178362914Y-193714342D02*
X178577200Y-193785771D01*
X178934342Y-193785771D01*
X179077200Y-193714342D01*
X179148628Y-193642914D01*
X179220057Y-193500057D01*
X179220057Y-193357200D01*
X179148628Y-193214342D01*
X179077200Y-193142914D01*
X178934342Y-193071485D01*
X178648628Y-193000057D01*
X178505771Y-192928628D01*
X178434342Y-192857200D01*
X178362914Y-192714342D01*
X178362914Y-192571485D01*
X178434342Y-192428628D01*
X178505771Y-192357200D01*
X178648628Y-192285771D01*
X179005771Y-192285771D01*
X179220057Y-192357200D01*
X179862914Y-193785771D02*
X179862914Y-192785771D01*
X179862914Y-192285771D02*
X179791485Y-192357200D01*
X179862914Y-192428628D01*
X179934342Y-192357200D01*
X179862914Y-192285771D01*
X179862914Y-192428628D01*
X180434342Y-192785771D02*
X181220057Y-192785771D01*
X180434342Y-193785771D01*
X181220057Y-193785771D01*
X182362914Y-193714342D02*
X182220057Y-193785771D01*
X181934342Y-193785771D01*
X181791485Y-193714342D01*
X181720057Y-193571485D01*
X181720057Y-193000057D01*
X181791485Y-192857200D01*
X181934342Y-192785771D01*
X182220057Y-192785771D01*
X182362914Y-192857200D01*
X182434342Y-193000057D01*
X182434342Y-193142914D01*
X181720057Y-193285771D01*
X183077200Y-193642914D02*
X183148628Y-193714342D01*
X183077200Y-193785771D01*
X183005771Y-193714342D01*
X183077200Y-193642914D01*
X183077200Y-193785771D01*
X183077200Y-192857200D02*
X183148628Y-192928628D01*
X183077200Y-193000057D01*
X183005771Y-192928628D01*
X183077200Y-192857200D01*
X183077200Y-193000057D01*
X184862914Y-193357200D02*
X185577200Y-193357200D01*
X184720057Y-193785771D02*
X185220057Y-192285771D01*
X185720057Y-193785771D01*
X186862914Y-192785771D02*
X186862914Y-193785771D01*
X186505771Y-192214342D02*
X186148628Y-193285771D01*
X187077200Y-193285771D01*
D10*
D11*
X263434342Y-196585771D02*
X263434342Y-195085771D01*
X264791485Y-196585771D02*
X264791485Y-195085771D01*
X264791485Y-196514342D02*
X264648628Y-196585771D01*
X264362914Y-196585771D01*
X264220057Y-196514342D01*
X264148628Y-196442914D01*
X264077200Y-196300057D01*
X264077200Y-195871485D01*
X264148628Y-195728628D01*
X264220057Y-195657200D01*
X264362914Y-195585771D01*
X264648628Y-195585771D01*
X264791485Y-195657200D01*
X265505771Y-196442914D02*
X265577200Y-196514342D01*
X265505771Y-196585771D01*
X265434342Y-196514342D01*
X265505771Y-196442914D01*
X265505771Y-196585771D01*
X265505771Y-195657200D02*
X265577200Y-195728628D01*
X265505771Y-195800057D01*
X265434342Y-195728628D01*
X265505771Y-195657200D01*
X265505771Y-195800057D01*
X268148628Y-196585771D02*
X267291485Y-196585771D01*
X267720057Y-196585771D02*
X267720057Y-195085771D01*
X267577200Y-195300057D01*
X267434342Y-195442914D01*
X267291485Y-195514342D01*
X269862914Y-195014342D02*
X268577200Y-196942914D01*
X271148628Y-196585771D02*
X270291485Y-196585771D01*
X270720057Y-196585771D02*
X270720057Y-195085771D01*
X270577200Y-195300057D01*
X270434342Y-195442914D01*
X270291485Y-195514342D01*
D10*
D11*
X177002200Y-187507200D02*
X285002200Y-187507200D01*
D10*
D13*
X178714580Y-188211961D02*
X179857438Y-188211961D01*
X179036009Y-190211961D02*
X179286009Y-188211961D01*
X180274104Y-190211961D02*
X180440771Y-188878628D01*
X180524104Y-188211961D02*
X180416961Y-188307200D01*
X180500295Y-188402438D01*
X180607438Y-188307200D01*
X180524104Y-188211961D01*
X180500295Y-188402438D01*
X181107438Y-188878628D02*
X181869342Y-188878628D01*
X181476485Y-188211961D02*
X181262200Y-189926247D01*
X181333628Y-190116723D01*
X181512200Y-190211961D01*
X181702676Y-190211961D01*
X182655057Y-190211961D02*
X182476485Y-190116723D01*
X182405057Y-189926247D01*
X182619342Y-188211961D01*
X184190771Y-190116723D02*
X183988390Y-190211961D01*
X183607438Y-190211961D01*
X183428866Y-190116723D01*
X183357438Y-189926247D01*
X183452676Y-189164342D01*
X183571723Y-188973866D01*
X183774104Y-188878628D01*
X184155057Y-188878628D01*
X184333628Y-188973866D01*
X184405057Y-189164342D01*
X184381247Y-189354819D01*
X183405057Y-189545295D01*
X185155057Y-190021485D02*
X185238390Y-190116723D01*
X185131247Y-190211961D01*
X185047914Y-190116723D01*
X185155057Y-190021485D01*
X185131247Y-190211961D01*
X185286009Y-188973866D02*
X185369342Y-189069104D01*
X185262200Y-189164342D01*
X185178866Y-189069104D01*
X185286009Y-188973866D01*
X185262200Y-189164342D01*
D10*
D11*
X178934342Y-185600057D02*
X178434342Y-185600057D01*
X178434342Y-186385771D02*
X178434342Y-184885771D01*
X179148628Y-184885771D01*
X179720057Y-186385771D02*
X179720057Y-185385771D01*
X179720057Y-184885771D02*
X179648628Y-184957200D01*
X179720057Y-185028628D01*
X179791485Y-184957200D01*
X179720057Y-184885771D01*
X179720057Y-185028628D01*
X180648628Y-186385771D02*
X180505771Y-186314342D01*
X180434342Y-186171485D01*
X180434342Y-184885771D01*
X181791485Y-186314342D02*
X181648628Y-186385771D01*
X181362914Y-186385771D01*
X181220057Y-186314342D01*
X181148628Y-186171485D01*
X181148628Y-185600057D01*
X181220057Y-185457200D01*
X181362914Y-185385771D01*
X181648628Y-185385771D01*
X181791485Y-185457200D01*
X181862914Y-185600057D01*
X181862914Y-185742914D01*
X181148628Y-185885771D01*
X182505771Y-186242914D02*
X182577200Y-186314342D01*
X182505771Y-186385771D01*
X182434342Y-186314342D01*
X182505771Y-186242914D01*
X182505771Y-186385771D01*
X182505771Y-185457200D02*
X182577200Y-185528628D01*
X182505771Y-185600057D01*
X182434342Y-185528628D01*
X182505771Y-185457200D01*
X182505771Y-185600057D01*
X184362914Y-186385771D02*
X184362914Y-185385771D01*
X184362914Y-185528628D02*
X184434342Y-185457200D01*
X184577200Y-185385771D01*
X184791485Y-185385771D01*
X184934342Y-185457200D01*
X185005771Y-185600057D01*
X185005771Y-186385771D01*
X185005771Y-185600057D02*
X185077200Y-185457200D01*
X185220057Y-185385771D01*
X185434342Y-185385771D01*
X185577200Y-185457200D01*
X185648628Y-185600057D01*
X185648628Y-186385771D01*
X186362914Y-186385771D02*
X186362914Y-185385771D01*
X186362914Y-184885771D02*
X186291485Y-184957200D01*
X186362914Y-185028628D01*
X186434342Y-184957200D01*
X186362914Y-184885771D01*
X186362914Y-185028628D01*
X186934342Y-186385771D02*
X187720057Y-185385771D01*
X186934342Y-185385771D02*
X187720057Y-186385771D01*
X188862914Y-186314342D02*
X188720057Y-186385771D01*
X188434342Y-186385771D01*
X188291485Y-186314342D01*
X188220057Y-186171485D01*
X188220057Y-185600057D01*
X188291485Y-185457200D01*
X188434342Y-185385771D01*
X188720057Y-185385771D01*
X188862914Y-185457200D01*
X188934342Y-185600057D01*
X188934342Y-185742914D01*
X188220057Y-185885771D01*
X189577200Y-186385771D02*
X189577200Y-185385771D01*
X189577200Y-185671485D02*
X189648628Y-185528628D01*
X189720057Y-185457200D01*
X189862914Y-185385771D01*
X190005771Y-185385771D01*
X190505771Y-186242914D02*
X190577200Y-186314342D01*
X190505771Y-186385771D01*
X190434342Y-186314342D01*
X190505771Y-186242914D01*
X190505771Y-186385771D01*
X191220057Y-186385771D02*
X191220057Y-184885771D01*
X191362914Y-185814342D02*
X191791485Y-186385771D01*
X191791485Y-185385771D02*
X191220057Y-185957200D01*
X192434342Y-186385771D02*
X192434342Y-185385771D01*
X192434342Y-184885771D02*
X192362914Y-184957200D01*
X192434342Y-185028628D01*
X192505771Y-184957200D01*
X192434342Y-184885771D01*
X192434342Y-185028628D01*
X193791485Y-186314342D02*
X193648628Y-186385771D01*
X193362914Y-186385771D01*
X193220057Y-186314342D01*
X193148628Y-186242914D01*
X193077200Y-186100057D01*
X193077200Y-185671485D01*
X193148628Y-185528628D01*
X193220057Y-185457200D01*
X193362914Y-185385771D01*
X193648628Y-185385771D01*
X193791485Y-185457200D01*
X195077200Y-186385771D02*
X195077200Y-185600057D01*
X195005771Y-185457200D01*
X194862914Y-185385771D01*
X194577200Y-185385771D01*
X194434342Y-185457200D01*
X195077200Y-186314342D02*
X194934342Y-186385771D01*
X194577200Y-186385771D01*
X194434342Y-186314342D01*
X194362914Y-186171485D01*
X194362914Y-186028628D01*
X194434342Y-185885771D01*
X194577200Y-185814342D01*
X194934342Y-185814342D01*
X195077200Y-185742914D01*
X196434342Y-186385771D02*
X196434342Y-184885771D01*
X196434342Y-186314342D02*
X196291485Y-186385771D01*
X196005771Y-186385771D01*
X195862914Y-186314342D01*
X195791485Y-186242914D01*
X195720057Y-186100057D01*
X195720057Y-185671485D01*
X195791485Y-185528628D01*
X195862914Y-185457200D01*
X196005771Y-185385771D01*
X196291485Y-185385771D01*
X196434342Y-185457200D01*
X196791485Y-186528628D02*
X197934342Y-186528628D01*
X198291485Y-185385771D02*
X198291485Y-186885771D01*
X198291485Y-185457200D02*
X198434342Y-185385771D01*
X198720057Y-185385771D01*
X198862914Y-185457200D01*
X198934342Y-185528628D01*
X199005771Y-185671485D01*
X199005771Y-186100057D01*
X198934342Y-186242914D01*
X198862914Y-186314342D01*
X198720057Y-186385771D01*
X198434342Y-186385771D01*
X198291485Y-186314342D01*
X200291485Y-186314342D02*
X200148628Y-186385771D01*
X199862914Y-186385771D01*
X199720057Y-186314342D01*
X199648628Y-186242914D01*
X199577200Y-186100057D01*
X199577200Y-185671485D01*
X199648628Y-185528628D01*
X199720057Y-185457200D01*
X199862914Y-185385771D01*
X200148628Y-185385771D01*
X200291485Y-185457200D01*
X200934342Y-186385771D02*
X200934342Y-184885771D01*
X200934342Y-185457200D02*
X201077200Y-185385771D01*
X201362914Y-185385771D01*
X201505771Y-185457200D01*
X201577200Y-185528628D01*
X201648628Y-185671485D01*
X201648628Y-186100057D01*
X201577200Y-186242914D01*
X201505771Y-186314342D01*
X201362914Y-186385771D01*
X201077200Y-186385771D01*
X200934342Y-186314342D01*
D10*
D11*
X177002200Y-181507200D02*
X285002200Y-181507200D01*
D10*
D11*
X178362914Y-183614342D02*
X178577200Y-183685771D01*
X178934342Y-183685771D01*
X179077200Y-183614342D01*
X179148628Y-183542914D01*
X179220057Y-183400057D01*
X179220057Y-183257200D01*
X179148628Y-183114342D01*
X179077200Y-183042914D01*
X178934342Y-182971485D01*
X178648628Y-182900057D01*
X178505771Y-182828628D01*
X178434342Y-182757200D01*
X178362914Y-182614342D01*
X178362914Y-182471485D01*
X178434342Y-182328628D01*
X178505771Y-182257200D01*
X178648628Y-182185771D01*
X179005771Y-182185771D01*
X179220057Y-182257200D01*
X179862914Y-183685771D02*
X179862914Y-182185771D01*
X180505771Y-183685771D02*
X180505771Y-182900057D01*
X180434342Y-182757200D01*
X180291485Y-182685771D01*
X180077200Y-182685771D01*
X179934342Y-182757200D01*
X179862914Y-182828628D01*
X181791485Y-183614342D02*
X181648628Y-183685771D01*
X181362914Y-183685771D01*
X181220057Y-183614342D01*
X181148628Y-183471485D01*
X181148628Y-182900057D01*
X181220057Y-182757200D01*
X181362914Y-182685771D01*
X181648628Y-182685771D01*
X181791485Y-182757200D01*
X181862914Y-182900057D01*
X181862914Y-183042914D01*
X181148628Y-183185771D01*
X183077200Y-183614342D02*
X182934342Y-183685771D01*
X182648628Y-183685771D01*
X182505771Y-183614342D01*
X182434342Y-183471485D01*
X182434342Y-182900057D01*
X182505771Y-182757200D01*
X182648628Y-182685771D01*
X182934342Y-182685771D01*
X183077200Y-182757200D01*
X183148628Y-182900057D01*
X183148628Y-183042914D01*
X182434342Y-183185771D01*
X183577200Y-182685771D02*
X184148628Y-182685771D01*
X183791485Y-182185771D02*
X183791485Y-183471485D01*
X183862914Y-183614342D01*
X184005771Y-183685771D01*
X184148628Y-183685771D01*
X184648628Y-183542914D02*
X184720057Y-183614342D01*
X184648628Y-183685771D01*
X184577200Y-183614342D01*
X184648628Y-183542914D01*
X184648628Y-183685771D01*
X184648628Y-182757200D02*
X184720057Y-182828628D01*
X184648628Y-182900057D01*
X184577200Y-182828628D01*
X184648628Y-182757200D01*
X184648628Y-182900057D01*
D10*
D11*
X197002200Y-191507200D02*
X197002200Y-194507200D01*
D10*
D11*
X261002200Y-191507200D02*
X261002200Y-198007200D01*
D14*
X-105662000Y-4056000D03*
X-97534000Y4580000D03*
X-109599000Y1278000D03*
X-103630000Y8136000D03*
D15*
X-98550000Y-2532000D03*
D14*
X-105662000Y-120758000D03*
X-97534000Y-112122000D03*
X-109599000Y-115424000D03*
X-103630000Y-108566000D03*
D15*
X-98550000Y-119234000D03*
D14*
X-105662000Y-138758000D03*
X-97534000Y-130122000D03*
X-109599000Y-133424000D03*
X-103630000Y-126566000D03*
D15*
X-98550000Y-137234000D03*
D14*
X-105662000Y-156758000D03*
X-97534000Y-148122000D03*
X-109599000Y-151424000D03*
X-103630000Y-144566000D03*
D15*
X-98550000Y-155234000D03*
D16*
X-109728000Y101584000D03*
D17*
X-109728000Y100584000D03*
D18*
X-96774000Y-32592000D03*
X-96774000Y-37592000D03*
X-109728000Y-44784000D03*
X-109728000Y-49784000D03*
D19*
X-98280000Y-16880000D03*
X-100820000Y-16880000D03*
X-103360000Y-16880000D03*
D20*
X-105900000Y-16880000D03*
D19*
X-98280000Y100120000D03*
X-100820000Y100120000D03*
X-103360000Y100120000D03*
D20*
X-105900000Y100120000D03*
D21*
X-107818000Y35672000D03*
X-99018000Y35672000D03*
D22*
X-105918000Y42672000D03*
X-103418000Y42672000D03*
X-100918000Y42672000D03*
D23*
X-101346000Y96520000D03*
D18*
X-101346000Y86360000D03*
D20*
X-106172000Y-53880000D03*
D19*
X-103632000Y-53880000D03*
X-101092000Y-53880000D03*
D20*
X-105900000Y63120000D03*
D19*
X-103360000Y63120000D03*
X-100820000Y63120000D03*
D24*
X-104648000Y-81026000D03*
D25*
X-102108000Y-81026000D03*
X-104648000Y-78486000D03*
X-102108000Y-78486000D03*
X-104648000Y-75946000D03*
X-102108000Y-75946000D03*
X-104648000Y-73406000D03*
X-102108000Y-73406000D03*
X-104648000Y-70866000D03*
X-102108000Y-70866000D03*
D23*
X-97028000Y96578000D03*
D18*
X-97028000Y86418000D03*
X-109474000Y86418000D03*
D23*
X-109474000Y96578000D03*
X-103124000Y-37846000D03*
D18*
X-103124000Y-48006000D03*
X-95758000Y-42164000D03*
D23*
X-95758000Y-52324000D03*
D18*
X-110998000Y-18034000D03*
D23*
X-110998000Y-7874000D03*
D22*
X-100852000Y26418000D03*
X-103352000Y26418000D03*
X-105852000Y26418000D03*
D21*
X-98952000Y19418000D03*
X-107752000Y19418000D03*
X-107752000Y51418000D03*
X-98952000Y51418000D03*
D22*
X-105852000Y58418000D03*
X-103352000Y58418000D03*
X-100852000Y58418000D03*
D21*
X-107726000Y74456000D03*
X-98926000Y74456000D03*
D22*
X-105826000Y81456000D03*
X-103326000Y81456000D03*
X-100826000Y81456000D03*
D26*
X-110236000Y-23368000D03*
D23*
X-102616000Y-30988000D03*
X-110236000Y-25908000D03*
X-102616000Y-28448000D03*
X-110236000Y-28448000D03*
X-102616000Y-25908000D03*
X-110236000Y-30988000D03*
X-102616000Y-23368000D03*
D27*
X-110236000Y-23368000D02*
X-110236000Y-24493300D01*
X-110236000Y-24493300D02*
X-109954700Y-24493300D01*
X-109954700Y-24493300D02*
X-109083300Y-25364700D01*
X-109083300Y-25364700D02*
X-109083300Y-44139300D01*
X-109083300Y-44139300D02*
X-109728000Y-44784000D01*
X-110236000Y-25908000D02*
X-110236000Y-27033300D01*
X-110236000Y-27033300D02*
X-110517300Y-27033300D01*
X-110517300Y-27033300D02*
X-111410700Y-27926700D01*
X-111410700Y-27926700D02*
X-111410700Y-48101300D01*
X-111410700Y-48101300D02*
X-109728000Y-49784000D01*
X-106172000Y-53880000D02*
X-106172000Y-52704700D01*
X-106172000Y-52704700D02*
X-106807300Y-52704700D01*
X-106807300Y-52704700D02*
X-109728000Y-49784000D01*
X-103124000Y-37846000D02*
X-101998700Y-37846000D01*
X-96774000Y-37592000D02*
X-101744700Y-37592000D01*
X-101744700Y-37592000D02*
X-101998700Y-37846000D01*
X-102616000Y-25908000D02*
X-102616000Y-27033300D01*
X-102616000Y-27033300D02*
X-102897300Y-27033300D01*
X-102897300Y-27033300D02*
X-103748900Y-27884900D01*
X-103748900Y-27884900D02*
X-103748900Y-31515400D01*
X-103748900Y-31515400D02*
X-102672300Y-32592000D01*
X-102672300Y-32592000D02*
X-96774000Y-32592000D01*
X-105900000Y-16880000D02*
X-105900000Y-18055300D01*
X-109599000Y-133424000D02*
X-109599000Y-119917400D01*
X-109599000Y-119917400D02*
X-107023700Y-117342100D01*
X-107023700Y-117342100D02*
X-107023700Y-58937700D01*
X-107023700Y-58937700D02*
X-104996600Y-56910600D01*
X-104996600Y-56910600D02*
X-104996600Y-18958700D01*
X-104996600Y-18958700D02*
X-105900000Y-18055300D01*
X-103360000Y-16880000D02*
X-103360000Y-18055300D01*
X-109599000Y-151424000D02*
X-109599000Y-138758000D01*
X-109599000Y-138758000D02*
X-107021300Y-136180300D01*
X-107021300Y-136180300D02*
X-107021300Y-132064700D01*
X-107021300Y-132064700D02*
X-108258100Y-130827900D01*
X-108258100Y-130827900D02*
X-108258100Y-119614100D01*
X-108258100Y-119614100D02*
X-106301100Y-117657100D01*
X-106301100Y-117657100D02*
X-106301100Y-65954300D01*
X-106301100Y-65954300D02*
X-102413900Y-62067100D01*
X-102413900Y-62067100D02*
X-102413900Y-51806400D01*
X-102413900Y-51806400D02*
X-104250900Y-49969400D01*
X-104250900Y-49969400D02*
X-104250900Y-18946200D01*
X-104250900Y-18946200D02*
X-103360000Y-18055300D01*
X-110998000Y-7874000D02*
X-110998000Y-6748700D01*
X-110998000Y-6748700D02*
X-109599000Y-5349700D01*
X-109599000Y-5349700D02*
X-109599000Y1278000D01*
X-100820000Y100120000D02*
X-100820000Y98944700D01*
X-105852000Y58418000D02*
X-110610600Y63176600D01*
X-110610600Y63176600D02*
X-110610600Y86872900D01*
X-110610600Y86872900D02*
X-104638200Y92845300D01*
X-104638200Y92845300D02*
X-104638200Y95126500D01*
X-104638200Y95126500D02*
X-100820000Y98944700D01*
X-102108000Y-78486000D02*
X-102108000Y-79674900D01*
X-102108000Y-79674900D02*
X-101736400Y-79674900D01*
X-101736400Y-79674900D02*
X-100919100Y-80492200D01*
X-100919100Y-80492200D02*
X-100919100Y-114289600D01*
X-100919100Y-114289600D02*
X-98550000Y-116658700D01*
X-102108000Y-78486000D02*
X-103459100Y-78486000D01*
X-98550000Y-119234000D02*
X-98550000Y-116658700D01*
X-102108000Y-75946000D02*
X-102108000Y-78486000D01*
X-104648000Y-78486000D02*
X-103459100Y-78486000D01*
X-102108000Y-75946000D02*
X-103459100Y-75946000D01*
X-104648000Y-75946000D02*
X-103459100Y-75946000D01*
X-102616000Y-30988000D02*
X-102616000Y-29862700D01*
X-102616000Y-29862700D02*
X-102334700Y-29862700D01*
X-102334700Y-29862700D02*
X-98280000Y-25808000D01*
X-98280000Y-25808000D02*
X-98280000Y-16880000D01*
X-98550000Y-2532000D02*
X-98550000Y-5107300D01*
X-98550000Y-5107300D02*
X-98280000Y-5377300D01*
X-98280000Y-5377300D02*
X-98280000Y-16880000D01*
X-102108000Y-73406000D02*
X-102108000Y-75946000D01*
X-101346000Y96520000D02*
X-100220700Y96520000D01*
X-97028000Y96578000D02*
X-100162700Y96578000D01*
X-100162700Y96578000D02*
X-100220700Y96520000D01*
X-100820000Y63120000D02*
X-100820000Y64295300D01*
X-100820000Y64295300D02*
X-103326000Y66801300D01*
X-103326000Y66801300D02*
X-103326000Y81456000D01*
X-109474000Y86418000D02*
X-109474000Y81964400D01*
X-109474000Y81964400D02*
X-104626600Y77117000D01*
X-104626600Y77117000D02*
X-104626600Y59692600D01*
X-104626600Y59692600D02*
X-103352000Y58418000D01*
X-100852000Y26418000D02*
X-101396000Y26962000D01*
X-101396000Y26962000D02*
X-101396000Y42194000D01*
X-101396000Y42194000D02*
X-100918000Y42672000D01*
X-105900000Y100120000D02*
X-105900000Y92929400D01*
X-105900000Y92929400D02*
X-111061000Y87768400D01*
X-111061000Y87768400D02*
X-111061000Y47815000D01*
X-111061000Y47815000D02*
X-105918000Y42672000D01*
X-103360000Y63120000D02*
X-103360000Y64295300D01*
X-103360000Y64295300D02*
X-103776400Y64711700D01*
X-103776400Y64711700D02*
X-103776400Y79406400D01*
X-103776400Y79406400D02*
X-105826000Y81456000D01*
D28*
G36*
X-110386148Y102414936D02*
G01*
X-110535609Y102270571D01*
X-110654034Y102099822D01*
X-110736872Y101909250D01*
X-110747540Y101874062D01*
X-110620257Y101711000D01*
X-109855000Y101711000D01*
X-109855000Y101731000D01*
X-109601000Y101731000D01*
X-109601000Y101711000D01*
X-108835743Y101711000D01*
X-108708460Y101874062D01*
X-108719128Y101909250D01*
X-108801966Y102099822D01*
X-108920391Y102270571D01*
X-109069852Y102414936D01*
X-109139895Y102460000D01*
X-94273999Y102460000D01*
X-94274000Y-163220000D01*
X-112954000Y-163220000D01*
X-112954000Y-156473852D01*
X-108547000Y-156473852D01*
X-108547000Y-157042148D01*
X-108436131Y-157599523D01*
X-108218654Y-158124560D01*
X-107902926Y-158597080D01*
X-107501080Y-158998926D01*
X-107028560Y-159314654D01*
X-106503523Y-159532131D01*
X-105946148Y-159643000D01*
X-105377852Y-159643000D01*
X-104820477Y-159532131D01*
X-104295440Y-159314654D01*
X-103822920Y-158998926D01*
X-103421074Y-158597080D01*
X-103105346Y-158124560D01*
X-102887869Y-157599523D01*
X-102864891Y-157484000D01*
X-101438072Y-157484000D01*
X-101425812Y-157608482D01*
X-101389502Y-157728180D01*
X-101330537Y-157838494D01*
X-101251185Y-157935185D01*
X-101154494Y-158014537D01*
X-101044180Y-158073502D01*
X-100924482Y-158109812D01*
X-100800000Y-158122072D01*
X-98835750Y-158119000D01*
X-98677000Y-157960250D01*
X-98677000Y-155361000D01*
X-98423000Y-155361000D01*
X-98423000Y-157960250D01*
X-98264250Y-158119000D01*
X-96300000Y-158122072D01*
X-96175518Y-158109812D01*
X-96055820Y-158073502D01*
X-95945506Y-158014537D01*
X-95848815Y-157935185D01*
X-95769463Y-157838494D01*
X-95710498Y-157728180D01*
X-95674188Y-157608482D01*
X-95661928Y-157484000D01*
X-95665000Y-155519750D01*
X-95823750Y-155361000D01*
X-98423000Y-155361000D01*
X-98677000Y-155361000D01*
X-101276250Y-155361000D01*
X-101435000Y-155519750D01*
X-101438072Y-157484000D01*
X-102864891Y-157484000D01*
X-102777000Y-157042148D01*
X-102777000Y-156473852D01*
X-102887869Y-155916477D01*
X-103105346Y-155391440D01*
X-103421074Y-154918920D01*
X-103822920Y-154517074D01*
X-104295440Y-154201346D01*
X-104820477Y-153983869D01*
X-105377852Y-153873000D01*
X-105946148Y-153873000D01*
X-106503523Y-153983869D01*
X-107028560Y-154201346D01*
X-107501080Y-154517074D01*
X-107902926Y-154918920D01*
X-108218654Y-155391440D01*
X-108436131Y-155916477D01*
X-108547000Y-156473852D01*
X-112954000Y-156473852D01*
X-112954000Y-115139852D01*
X-112484000Y-115139852D01*
X-112484000Y-115708148D01*
X-112373131Y-116265523D01*
X-112155654Y-116790560D01*
X-111839926Y-117263080D01*
X-111438080Y-117664926D01*
X-110965560Y-117980654D01*
X-110440523Y-118198131D01*
X-109883148Y-118309000D01*
X-109314852Y-118309000D01*
X-109003462Y-118247061D01*
X-110110002Y-119353601D01*
X-110139000Y-119377399D01*
X-110162798Y-119406397D01*
X-110162799Y-119406398D01*
X-110233974Y-119493124D01*
X-110304546Y-119625154D01*
X-110348002Y-119768415D01*
X-110362676Y-119917400D01*
X-110358999Y-119954732D01*
X-110359000Y-130633653D01*
X-110440523Y-130649869D01*
X-110965560Y-130867346D01*
X-111438080Y-131183074D01*
X-111839926Y-131584920D01*
X-112155654Y-132057440D01*
X-112373131Y-132582477D01*
X-112484000Y-133139852D01*
X-112484000Y-133708148D01*
X-112373131Y-134265523D01*
X-112155654Y-134790560D01*
X-111839926Y-135263080D01*
X-111438080Y-135664926D01*
X-110965560Y-135980654D01*
X-110440523Y-136198131D01*
X-109883148Y-136309000D01*
X-109314852Y-136309000D01*
X-108757477Y-136198131D01*
X-108232440Y-135980654D01*
X-107781300Y-135679212D01*
X-107781300Y-135865498D01*
X-110110002Y-138194201D01*
X-110139000Y-138217999D01*
X-110162798Y-138246997D01*
X-110162799Y-138246998D01*
X-110233974Y-138333724D01*
X-110304546Y-138465754D01*
X-110348002Y-138609015D01*
X-110362676Y-138758000D01*
X-110358999Y-138795332D01*
X-110359000Y-148633653D01*
X-110440523Y-148649869D01*
X-110965560Y-148867346D01*
X-111438080Y-149183074D01*
X-111839926Y-149584920D01*
X-112155654Y-150057440D01*
X-112373131Y-150582477D01*
X-112484000Y-151139852D01*
X-112484000Y-151708148D01*
X-112373131Y-152265523D01*
X-112155654Y-152790560D01*
X-111839926Y-153263080D01*
X-111438080Y-153664926D01*
X-110965560Y-153980654D01*
X-110440523Y-154198131D01*
X-109883148Y-154309000D01*
X-109314852Y-154309000D01*
X-108757477Y-154198131D01*
X-108232440Y-153980654D01*
X-107759920Y-153664926D01*
X-107358074Y-153263080D01*
X-107171599Y-152984000D01*
X-101438072Y-152984000D01*
X-101435000Y-154948250D01*
X-101276250Y-155107000D01*
X-98677000Y-155107000D01*
X-98677000Y-152507750D01*
X-98423000Y-152507750D01*
X-98423000Y-155107000D01*
X-95823750Y-155107000D01*
X-95665000Y-154948250D01*
X-95661928Y-152984000D01*
X-95674188Y-152859518D01*
X-95710498Y-152739820D01*
X-95769463Y-152629506D01*
X-95848815Y-152532815D01*
X-95945506Y-152453463D01*
X-96055820Y-152394498D01*
X-96175518Y-152358188D01*
X-96300000Y-152345928D01*
X-98264250Y-152349000D01*
X-98423000Y-152507750D01*
X-98677000Y-152507750D01*
X-98835750Y-152349000D01*
X-100800000Y-152345928D01*
X-100924482Y-152358188D01*
X-101044180Y-152394498D01*
X-101154494Y-152453463D01*
X-101251185Y-152532815D01*
X-101330537Y-152629506D01*
X-101389502Y-152739820D01*
X-101425812Y-152859518D01*
X-101438072Y-152984000D01*
X-107171599Y-152984000D01*
X-107042346Y-152790560D01*
X-106824869Y-152265523D01*
X-106714000Y-151708148D01*
X-106714000Y-151139852D01*
X-106824869Y-150582477D01*
X-107042346Y-150057440D01*
X-107358074Y-149584920D01*
X-107759920Y-149183074D01*
X-108232440Y-148867346D01*
X-108757477Y-148649869D01*
X-108839000Y-148633653D01*
X-108839000Y-147837852D01*
X-100419000Y-147837852D01*
X-100419000Y-148406148D01*
X-100308131Y-148963523D01*
X-100090654Y-149488560D01*
X-99774926Y-149961080D01*
X-99373080Y-150362926D01*
X-98900560Y-150678654D01*
X-98375523Y-150896131D01*
X-97818148Y-151007000D01*
X-97249852Y-151007000D01*
X-96692477Y-150896131D01*
X-96167440Y-150678654D01*
X-95694920Y-150362926D01*
X-95293074Y-149961080D01*
X-94977346Y-149488560D01*
X-94759869Y-148963523D01*
X-94649000Y-148406148D01*
X-94649000Y-147837852D01*
X-94759869Y-147280477D01*
X-94977346Y-146755440D01*
X-95293074Y-146282920D01*
X-95694920Y-145881074D01*
X-96167440Y-145565346D01*
X-96692477Y-145347869D01*
X-97249852Y-145237000D01*
X-97818148Y-145237000D01*
X-98375523Y-145347869D01*
X-98900560Y-145565346D01*
X-99373080Y-145881074D01*
X-99774926Y-146282920D01*
X-100090654Y-146755440D01*
X-100308131Y-147280477D01*
X-100419000Y-147837852D01*
X-108839000Y-147837852D01*
X-108839000Y-144281852D01*
X-106515000Y-144281852D01*
X-106515000Y-144850148D01*
X-106404131Y-145407523D01*
X-106186654Y-145932560D01*
X-105870926Y-146405080D01*
X-105469080Y-146806926D01*
X-104996560Y-147122654D01*
X-104471523Y-147340131D01*
X-103914148Y-147451000D01*
X-103345852Y-147451000D01*
X-102788477Y-147340131D01*
X-102263440Y-147122654D01*
X-101790920Y-146806926D01*
X-101389074Y-146405080D01*
X-101073346Y-145932560D01*
X-100855869Y-145407523D01*
X-100745000Y-144850148D01*
X-100745000Y-144281852D01*
X-100855869Y-143724477D01*
X-101073346Y-143199440D01*
X-101389074Y-142726920D01*
X-101790920Y-142325074D01*
X-102263440Y-142009346D01*
X-102788477Y-141791869D01*
X-103345852Y-141681000D01*
X-103914148Y-141681000D01*
X-104471523Y-141791869D01*
X-104996560Y-142009346D01*
X-105469080Y-142325074D01*
X-105870926Y-142726920D01*
X-106186654Y-143199440D01*
X-106404131Y-143724477D01*
X-106515000Y-144281852D01*
X-108839000Y-144281852D01*
X-108839000Y-139072801D01*
X-108547000Y-138780801D01*
X-108547000Y-139042148D01*
X-108436131Y-139599523D01*
X-108218654Y-140124560D01*
X-107902926Y-140597080D01*
X-107501080Y-140998926D01*
X-107028560Y-141314654D01*
X-106503523Y-141532131D01*
X-105946148Y-141643000D01*
X-105377852Y-141643000D01*
X-104820477Y-141532131D01*
X-104295440Y-141314654D01*
X-103822920Y-140998926D01*
X-103421074Y-140597080D01*
X-103105346Y-140124560D01*
X-102887869Y-139599523D01*
X-102864891Y-139484000D01*
X-101438072Y-139484000D01*
X-101425812Y-139608482D01*
X-101389502Y-139728180D01*
X-101330537Y-139838494D01*
X-101251185Y-139935185D01*
X-101154494Y-140014537D01*
X-101044180Y-140073502D01*
X-100924482Y-140109812D01*
X-100800000Y-140122072D01*
X-98835750Y-140119000D01*
X-98677000Y-139960250D01*
X-98677000Y-137361000D01*
X-98423000Y-137361000D01*
X-98423000Y-139960250D01*
X-98264250Y-140119000D01*
X-96300000Y-140122072D01*
X-96175518Y-140109812D01*
X-96055820Y-140073502D01*
X-95945506Y-140014537D01*
X-95848815Y-139935185D01*
X-95769463Y-139838494D01*
X-95710498Y-139728180D01*
X-95674188Y-139608482D01*
X-95661928Y-139484000D01*
X-95665000Y-137519750D01*
X-95823750Y-137361000D01*
X-98423000Y-137361000D01*
X-98677000Y-137361000D01*
X-101276250Y-137361000D01*
X-101435000Y-137519750D01*
X-101438072Y-139484000D01*
X-102864891Y-139484000D01*
X-102777000Y-139042148D01*
X-102777000Y-138473852D01*
X-102887869Y-137916477D01*
X-103105346Y-137391440D01*
X-103421074Y-136918920D01*
X-103822920Y-136517074D01*
X-104295440Y-136201346D01*
X-104820477Y-135983869D01*
X-105377852Y-135873000D01*
X-105946148Y-135873000D01*
X-106261300Y-135935688D01*
X-106261300Y-134984000D01*
X-101438072Y-134984000D01*
X-101435000Y-136948250D01*
X-101276250Y-137107000D01*
X-98677000Y-137107000D01*
X-98677000Y-134507750D01*
X-98423000Y-134507750D01*
X-98423000Y-137107000D01*
X-95823750Y-137107000D01*
X-95665000Y-136948250D01*
X-95661928Y-134984000D01*
X-95674188Y-134859518D01*
X-95710498Y-134739820D01*
X-95769463Y-134629506D01*
X-95848815Y-134532815D01*
X-95945506Y-134453463D01*
X-96055820Y-134394498D01*
X-96175518Y-134358188D01*
X-96300000Y-134345928D01*
X-98264250Y-134349000D01*
X-98423000Y-134507750D01*
X-98677000Y-134507750D01*
X-98835750Y-134349000D01*
X-100800000Y-134345928D01*
X-100924482Y-134358188D01*
X-101044180Y-134394498D01*
X-101154494Y-134453463D01*
X-101251185Y-134532815D01*
X-101330537Y-134629506D01*
X-101389502Y-134739820D01*
X-101425812Y-134859518D01*
X-101438072Y-134984000D01*
X-106261300Y-134984000D01*
X-106261300Y-132102022D01*
X-106257624Y-132064699D01*
X-106261300Y-132027376D01*
X-106261300Y-132027367D01*
X-106272297Y-131915714D01*
X-106315754Y-131772453D01*
X-106386326Y-131640424D01*
X-106481299Y-131524699D01*
X-106510297Y-131500901D01*
X-107498100Y-130513099D01*
X-107498100Y-129837852D01*
X-100419000Y-129837852D01*
X-100419000Y-130406148D01*
X-100308131Y-130963523D01*
X-100090654Y-131488560D01*
X-99774926Y-131961080D01*
X-99373080Y-132362926D01*
X-98900560Y-132678654D01*
X-98375523Y-132896131D01*
X-97818148Y-133007000D01*
X-97249852Y-133007000D01*
X-96692477Y-132896131D01*
X-96167440Y-132678654D01*
X-95694920Y-132362926D01*
X-95293074Y-131961080D01*
X-94977346Y-131488560D01*
X-94759869Y-130963523D01*
X-94649000Y-130406148D01*
X-94649000Y-129837852D01*
X-94759869Y-129280477D01*
X-94977346Y-128755440D01*
X-95293074Y-128282920D01*
X-95694920Y-127881074D01*
X-96167440Y-127565346D01*
X-96692477Y-127347869D01*
X-97249852Y-127237000D01*
X-97818148Y-127237000D01*
X-98375523Y-127347869D01*
X-98900560Y-127565346D01*
X-99373080Y-127881074D01*
X-99774926Y-128282920D01*
X-100090654Y-128755440D01*
X-100308131Y-129280477D01*
X-100419000Y-129837852D01*
X-107498100Y-129837852D01*
X-107498100Y-126281852D01*
X-106515000Y-126281852D01*
X-106515000Y-126850148D01*
X-106404131Y-127407523D01*
X-106186654Y-127932560D01*
X-105870926Y-128405080D01*
X-105469080Y-128806926D01*
X-104996560Y-129122654D01*
X-104471523Y-129340131D01*
X-103914148Y-129451000D01*
X-103345852Y-129451000D01*
X-102788477Y-129340131D01*
X-102263440Y-129122654D01*
X-101790920Y-128806926D01*
X-101389074Y-128405080D01*
X-101073346Y-127932560D01*
X-100855869Y-127407523D01*
X-100745000Y-126850148D01*
X-100745000Y-126281852D01*
X-100855869Y-125724477D01*
X-101073346Y-125199440D01*
X-101389074Y-124726920D01*
X-101790920Y-124325074D01*
X-102263440Y-124009346D01*
X-102788477Y-123791869D01*
X-103345852Y-123681000D01*
X-103914148Y-123681000D01*
X-104471523Y-123791869D01*
X-104996560Y-124009346D01*
X-105469080Y-124325074D01*
X-105870926Y-124726920D01*
X-106186654Y-125199440D01*
X-106404131Y-125724477D01*
X-106515000Y-126281852D01*
X-107498100Y-126281852D01*
X-107498100Y-123000917D01*
X-107028560Y-123314654D01*
X-106503523Y-123532131D01*
X-105946148Y-123643000D01*
X-105377852Y-123643000D01*
X-104820477Y-123532131D01*
X-104295440Y-123314654D01*
X-103822920Y-122998926D01*
X-103421074Y-122597080D01*
X-103105346Y-122124560D01*
X-102887869Y-121599523D01*
X-102864891Y-121484000D01*
X-101438072Y-121484000D01*
X-101425812Y-121608482D01*
X-101389502Y-121728180D01*
X-101330537Y-121838494D01*
X-101251185Y-121935185D01*
X-101154494Y-122014537D01*
X-101044180Y-122073502D01*
X-100924482Y-122109812D01*
X-100800000Y-122122072D01*
X-98835750Y-122119000D01*
X-98677000Y-121960250D01*
X-98677000Y-119361000D01*
X-98423000Y-119361000D01*
X-98423000Y-121960250D01*
X-98264250Y-122119000D01*
X-96300000Y-122122072D01*
X-96175518Y-122109812D01*
X-96055820Y-122073502D01*
X-95945506Y-122014537D01*
X-95848815Y-121935185D01*
X-95769463Y-121838494D01*
X-95710498Y-121728180D01*
X-95674188Y-121608482D01*
X-95661928Y-121484000D01*
X-95665000Y-119519750D01*
X-95823750Y-119361000D01*
X-98423000Y-119361000D01*
X-98677000Y-119361000D01*
X-101276250Y-119361000D01*
X-101435000Y-119519750D01*
X-101438072Y-121484000D01*
X-102864891Y-121484000D01*
X-102777000Y-121042148D01*
X-102777000Y-120473852D01*
X-102887869Y-119916477D01*
X-103105346Y-119391440D01*
X-103421074Y-118918920D01*
X-103822920Y-118517074D01*
X-104295440Y-118201346D01*
X-104820477Y-117983869D01*
X-105377852Y-117873000D01*
X-105572395Y-117873000D01*
X-105552097Y-117806086D01*
X-105541100Y-117694433D01*
X-105541100Y-117694423D01*
X-105537424Y-117657100D01*
X-105541100Y-117619777D01*
X-105541100Y-116984000D01*
X-101438072Y-116984000D01*
X-101435000Y-118948250D01*
X-101276250Y-119107000D01*
X-98677000Y-119107000D01*
X-98677000Y-116507750D01*
X-98423000Y-116507750D01*
X-98423000Y-119107000D01*
X-95823750Y-119107000D01*
X-95665000Y-118948250D01*
X-95661928Y-116984000D01*
X-95674188Y-116859518D01*
X-95710498Y-116739820D01*
X-95769463Y-116629506D01*
X-95848815Y-116532815D01*
X-95945506Y-116453463D01*
X-96055820Y-116394498D01*
X-96175518Y-116358188D01*
X-96300000Y-116345928D01*
X-98264250Y-116349000D01*
X-98423000Y-116507750D01*
X-98677000Y-116507750D01*
X-98835750Y-116349000D01*
X-100800000Y-116345928D01*
X-100924482Y-116358188D01*
X-101044180Y-116394498D01*
X-101154494Y-116453463D01*
X-101251185Y-116532815D01*
X-101330537Y-116629506D01*
X-101389502Y-116739820D01*
X-101425812Y-116859518D01*
X-101438072Y-116984000D01*
X-105541100Y-116984000D01*
X-105541100Y-111837852D01*
X-100419000Y-111837852D01*
X-100419000Y-112406148D01*
X-100308131Y-112963523D01*
X-100090654Y-113488560D01*
X-99774926Y-113961080D01*
X-99373080Y-114362926D01*
X-98900560Y-114678654D01*
X-98375523Y-114896131D01*
X-97818148Y-115007000D01*
X-97249852Y-115007000D01*
X-96692477Y-114896131D01*
X-96167440Y-114678654D01*
X-95694920Y-114362926D01*
X-95293074Y-113961080D01*
X-94977346Y-113488560D01*
X-94759869Y-112963523D01*
X-94649000Y-112406148D01*
X-94649000Y-111837852D01*
X-94759869Y-111280477D01*
X-94977346Y-110755440D01*
X-95293074Y-110282920D01*
X-95694920Y-109881074D01*
X-96167440Y-109565346D01*
X-96692477Y-109347869D01*
X-97249852Y-109237000D01*
X-97818148Y-109237000D01*
X-98375523Y-109347869D01*
X-98900560Y-109565346D01*
X-99373080Y-109881074D01*
X-99774926Y-110282920D01*
X-100090654Y-110755440D01*
X-100308131Y-111280477D01*
X-100419000Y-111837852D01*
X-105541100Y-111837852D01*
X-105541100Y-110734906D01*
X-105469080Y-110806926D01*
X-104996560Y-111122654D01*
X-104471523Y-111340131D01*
X-103914148Y-111451000D01*
X-103345852Y-111451000D01*
X-102788477Y-111340131D01*
X-102263440Y-111122654D01*
X-101790920Y-110806926D01*
X-101389074Y-110405080D01*
X-101073346Y-109932560D01*
X-100855869Y-109407523D01*
X-100745000Y-108850148D01*
X-100745000Y-108281852D01*
X-100855869Y-107724477D01*
X-101073346Y-107199440D01*
X-101389074Y-106726920D01*
X-101790920Y-106325074D01*
X-102263440Y-106009346D01*
X-102788477Y-105791869D01*
X-103345852Y-105681000D01*
X-103914148Y-105681000D01*
X-104471523Y-105791869D01*
X-104996560Y-106009346D01*
X-105469080Y-106325074D01*
X-105541100Y-106397094D01*
X-105541100Y-82524767D01*
X-105511600Y-82527672D01*
X-103784400Y-82527672D01*
X-103659918Y-82515412D01*
X-103540220Y-82479102D01*
X-103429906Y-82420137D01*
X-103333215Y-82340785D01*
X-103253863Y-82244094D01*
X-103194898Y-82133780D01*
X-103177364Y-82075977D01*
X-103063302Y-82190039D01*
X-102817853Y-82354042D01*
X-102545125Y-82467010D01*
X-102255599Y-82524600D01*
X-101960401Y-82524600D01*
X-101670875Y-82467010D01*
X-101398147Y-82354042D01*
X-101152698Y-82190039D01*
X-100943961Y-81981302D01*
X-100779958Y-81735853D01*
X-100666990Y-81463125D01*
X-100609400Y-81173599D01*
X-100609400Y-80878401D01*
X-100666990Y-80588875D01*
X-100779958Y-80316147D01*
X-100943961Y-80070698D01*
X-101152698Y-79861961D01*
X-101318103Y-79751441D01*
X-101219512Y-79692817D01*
X-101001146Y-79496293D01*
X-100825316Y-79260944D01*
X-100698778Y-78995814D01*
X-100653042Y-78845026D01*
X-100774183Y-78613000D01*
X-101981000Y-78613000D01*
X-101981000Y-78633000D01*
X-102235000Y-78633000D01*
X-102235000Y-78613000D01*
X-104521000Y-78613000D01*
X-104521000Y-78633000D01*
X-104775000Y-78633000D01*
X-104775000Y-78613000D01*
X-104795000Y-78613000D01*
X-104795000Y-78359000D01*
X-104775000Y-78359000D01*
X-104775000Y-76073000D01*
X-104521000Y-76073000D01*
X-104521000Y-78359000D01*
X-102235000Y-78359000D01*
X-102235000Y-76073000D01*
X-101981000Y-76073000D01*
X-101981000Y-78359000D01*
X-100774183Y-78359000D01*
X-100653042Y-78126974D01*
X-100698778Y-77976186D01*
X-100825316Y-77711056D01*
X-101001146Y-77475707D01*
X-101219512Y-77279183D01*
X-101325770Y-77216000D01*
X-101219512Y-77152817D01*
X-101001146Y-76956293D01*
X-100825316Y-76720944D01*
X-100698778Y-76455814D01*
X-100653042Y-76305026D01*
X-100774183Y-76073000D01*
X-101981000Y-76073000D01*
X-102235000Y-76073000D01*
X-104521000Y-76073000D01*
X-104775000Y-76073000D01*
X-104795000Y-76073000D01*
X-104795000Y-75819000D01*
X-104775000Y-75819000D01*
X-104775000Y-73533000D01*
X-104521000Y-73533000D01*
X-104521000Y-75819000D01*
X-102235000Y-75819000D01*
X-102235000Y-73533000D01*
X-101981000Y-73533000D01*
X-101981000Y-75819000D01*
X-100774183Y-75819000D01*
X-100653042Y-75586974D01*
X-100698778Y-75436186D01*
X-100825316Y-75171056D01*
X-101001146Y-74935707D01*
X-101219512Y-74739183D01*
X-101325770Y-74676000D01*
X-101219512Y-74612817D01*
X-101001146Y-74416293D01*
X-100825316Y-74180944D01*
X-100698778Y-73915814D01*
X-100653042Y-73765026D01*
X-100774183Y-73533000D01*
X-101981000Y-73533000D01*
X-102235000Y-73533000D01*
X-104521000Y-73533000D01*
X-104775000Y-73533000D01*
X-104795000Y-73533000D01*
X-104795000Y-73279000D01*
X-104775000Y-73279000D01*
X-104775000Y-73259000D01*
X-104521000Y-73259000D01*
X-104521000Y-73279000D01*
X-102235000Y-73279000D01*
X-102235000Y-73259000D01*
X-101981000Y-73259000D01*
X-101981000Y-73279000D01*
X-100774183Y-73279000D01*
X-100653042Y-73046974D01*
X-100698778Y-72896186D01*
X-100825316Y-72631056D01*
X-101001146Y-72395707D01*
X-101219512Y-72199183D01*
X-101318103Y-72140559D01*
X-101152698Y-72030039D01*
X-100943961Y-71821302D01*
X-100779958Y-71575853D01*
X-100666990Y-71303125D01*
X-100609400Y-71013599D01*
X-100609400Y-70718401D01*
X-100666990Y-70428875D01*
X-100779958Y-70156147D01*
X-100943961Y-69910698D01*
X-101152698Y-69701961D01*
X-101398147Y-69537958D01*
X-101670875Y-69424990D01*
X-101960401Y-69367400D01*
X-102255599Y-69367400D01*
X-102545125Y-69424990D01*
X-102817853Y-69537958D01*
X-103063302Y-69701961D01*
X-103272039Y-69910698D01*
X-103378000Y-70069281D01*
X-103483961Y-69910698D01*
X-103692698Y-69701961D01*
X-103938147Y-69537958D01*
X-104210875Y-69424990D01*
X-104500401Y-69367400D01*
X-104795599Y-69367400D01*
X-105085125Y-69424990D01*
X-105357853Y-69537958D01*
X-105541100Y-69660399D01*
X-105541100Y-66269101D01*
X-101902896Y-62630898D01*
X-101873899Y-62607101D01*
X-101847568Y-62575017D01*
X-101778926Y-62491377D01*
X-101708354Y-62359347D01*
X-101708354Y-62359346D01*
X-101664897Y-62216086D01*
X-101653900Y-62104433D01*
X-101653900Y-62104423D01*
X-101650224Y-62067100D01*
X-101653900Y-62029777D01*
X-101653900Y-55254606D01*
X-101525158Y-55307932D01*
X-101238260Y-55365000D01*
X-100945740Y-55365000D01*
X-100658842Y-55307932D01*
X-100388589Y-55195990D01*
X-100145368Y-55033475D01*
X-99938525Y-54826632D01*
X-99776010Y-54583411D01*
X-99664068Y-54313158D01*
X-99607000Y-54026260D01*
X-99607000Y-53733740D01*
X-99664068Y-53446842D01*
X-99776010Y-53176589D01*
X-99938525Y-52933368D01*
X-100145368Y-52726525D01*
X-100388589Y-52564010D01*
X-100658842Y-52452068D01*
X-100945740Y-52395000D01*
X-101238260Y-52395000D01*
X-101525158Y-52452068D01*
X-101653900Y-52505394D01*
X-101653900Y-52182665D01*
X-97193000Y-52182665D01*
X-97193000Y-52465335D01*
X-97137853Y-52742574D01*
X-97029680Y-53003727D01*
X-96872637Y-53238759D01*
X-96672759Y-53438637D01*
X-96437727Y-53595680D01*
X-96176574Y-53703853D01*
X-95899335Y-53759000D01*
X-95616665Y-53759000D01*
X-95339426Y-53703853D01*
X-95078273Y-53595680D01*
X-94843241Y-53438637D01*
X-94643363Y-53238759D01*
X-94486320Y-53003727D01*
X-94378147Y-52742574D01*
X-94323000Y-52465335D01*
X-94323000Y-52182665D01*
X-94378147Y-51905426D01*
X-94486320Y-51644273D01*
X-94643363Y-51409241D01*
X-94843241Y-51209363D01*
X-95078273Y-51052320D01*
X-95339426Y-50944147D01*
X-95616665Y-50889000D01*
X-95899335Y-50889000D01*
X-96176574Y-50944147D01*
X-96437727Y-51052320D01*
X-96672759Y-51209363D01*
X-96872637Y-51409241D01*
X-97029680Y-51644273D01*
X-97137853Y-51905426D01*
X-97193000Y-52182665D01*
X-101653900Y-52182665D01*
X-101653900Y-51843722D01*
X-101650224Y-51806399D01*
X-101653900Y-51769076D01*
X-101653900Y-51769067D01*
X-101664897Y-51657414D01*
X-101708354Y-51514153D01*
X-101778926Y-51382124D01*
X-101873899Y-51266399D01*
X-101902897Y-51242601D01*
X-103490900Y-49654599D01*
X-103490900Y-49396132D01*
X-103265335Y-49441000D01*
X-102982665Y-49441000D01*
X-102705426Y-49385853D01*
X-102444273Y-49277680D01*
X-102209241Y-49120637D01*
X-102009363Y-48920759D01*
X-101852320Y-48685727D01*
X-101744147Y-48424574D01*
X-101689000Y-48147335D01*
X-101689000Y-47864665D01*
X-101744147Y-47587426D01*
X-101852320Y-47326273D01*
X-102009363Y-47091241D01*
X-102209241Y-46891363D01*
X-102444273Y-46734320D01*
X-102705426Y-46626147D01*
X-102982665Y-46571000D01*
X-103265335Y-46571000D01*
X-103490900Y-46615868D01*
X-103490900Y-42022665D01*
X-97193000Y-42022665D01*
X-97193000Y-42305335D01*
X-97137853Y-42582574D01*
X-97029680Y-42843727D01*
X-96872637Y-43078759D01*
X-96672759Y-43278637D01*
X-96437727Y-43435680D01*
X-96176574Y-43543853D01*
X-95899335Y-43599000D01*
X-95616665Y-43599000D01*
X-95339426Y-43543853D01*
X-95078273Y-43435680D01*
X-94843241Y-43278637D01*
X-94643363Y-43078759D01*
X-94486320Y-42843727D01*
X-94378147Y-42582574D01*
X-94323000Y-42305335D01*
X-94323000Y-42022665D01*
X-94378147Y-41745426D01*
X-94486320Y-41484273D01*
X-94643363Y-41249241D01*
X-94843241Y-41049363D01*
X-95078273Y-40892320D01*
X-95339426Y-40784147D01*
X-95616665Y-40729000D01*
X-95899335Y-40729000D01*
X-96176574Y-40784147D01*
X-96437727Y-40892320D01*
X-96672759Y-41049363D01*
X-96872637Y-41249241D01*
X-97029680Y-41484273D01*
X-97137853Y-41745426D01*
X-97193000Y-42022665D01*
X-103490900Y-42022665D01*
X-103490900Y-39236132D01*
X-103265335Y-39281000D01*
X-102982665Y-39281000D01*
X-102705426Y-39225853D01*
X-102444273Y-39117680D01*
X-102209241Y-38960637D01*
X-102009363Y-38760759D01*
X-101902053Y-38600158D01*
X-101849714Y-38595003D01*
X-101706453Y-38551546D01*
X-101574424Y-38480974D01*
X-101458699Y-38386001D01*
X-101434896Y-38356997D01*
X-101429899Y-38352000D01*
X-97992043Y-38352000D01*
X-97888637Y-38506759D01*
X-97688759Y-38706637D01*
X-97453727Y-38863680D01*
X-97192574Y-38971853D01*
X-96915335Y-39027000D01*
X-96632665Y-39027000D01*
X-96355426Y-38971853D01*
X-96094273Y-38863680D01*
X-95859241Y-38706637D01*
X-95659363Y-38506759D01*
X-95502320Y-38271727D01*
X-95394147Y-38010574D01*
X-95339000Y-37733335D01*
X-95339000Y-37450665D01*
X-95394147Y-37173426D01*
X-95502320Y-36912273D01*
X-95659363Y-36677241D01*
X-95859241Y-36477363D01*
X-96094273Y-36320320D01*
X-96355426Y-36212147D01*
X-96632665Y-36157000D01*
X-96915335Y-36157000D01*
X-97192574Y-36212147D01*
X-97453727Y-36320320D01*
X-97688759Y-36477363D01*
X-97888637Y-36677241D01*
X-97992043Y-36832000D01*
X-101707378Y-36832000D01*
X-101744701Y-36828324D01*
X-101782024Y-36832000D01*
X-101782033Y-36832000D01*
X-101893686Y-36842997D01*
X-102036947Y-36886454D01*
X-102048158Y-36892446D01*
X-102209241Y-36731363D01*
X-102444273Y-36574320D01*
X-102705426Y-36466147D01*
X-102982665Y-36411000D01*
X-103265335Y-36411000D01*
X-103490900Y-36455868D01*
X-103490900Y-32848202D01*
X-103236099Y-33103003D01*
X-103212301Y-33132001D01*
X-103096576Y-33226974D01*
X-102964547Y-33297546D01*
X-102821286Y-33341003D01*
X-102709633Y-33352000D01*
X-102709624Y-33352000D01*
X-102672301Y-33355676D01*
X-102634978Y-33352000D01*
X-97992043Y-33352000D01*
X-97888637Y-33506759D01*
X-97688759Y-33706637D01*
X-97453727Y-33863680D01*
X-97192574Y-33971853D01*
X-96915335Y-34027000D01*
X-96632665Y-34027000D01*
X-96355426Y-33971853D01*
X-96094273Y-33863680D01*
X-95859241Y-33706637D01*
X-95659363Y-33506759D01*
X-95502320Y-33271727D01*
X-95394147Y-33010574D01*
X-95339000Y-32733335D01*
X-95339000Y-32450665D01*
X-95394147Y-32173426D01*
X-95502320Y-31912273D01*
X-95659363Y-31677241D01*
X-95859241Y-31477363D01*
X-96094273Y-31320320D01*
X-96355426Y-31212147D01*
X-96632665Y-31157000D01*
X-96915335Y-31157000D01*
X-97192574Y-31212147D01*
X-97453727Y-31320320D01*
X-97688759Y-31477363D01*
X-97888637Y-31677241D01*
X-97992043Y-31832000D01*
X-101463965Y-31832000D01*
X-101384963Y-31725420D01*
X-101264754Y-31471087D01*
X-101224096Y-31337039D01*
X-101346085Y-31115000D01*
X-102489000Y-31115000D01*
X-102489000Y-31135000D01*
X-102743000Y-31135000D01*
X-102743000Y-31115000D01*
X-102763000Y-31115000D01*
X-102763000Y-30861000D01*
X-102743000Y-30861000D01*
X-102743000Y-30841000D01*
X-102489000Y-30841000D01*
X-102489000Y-30861000D01*
X-101346085Y-30861000D01*
X-101224096Y-30638961D01*
X-101264754Y-30504913D01*
X-101384963Y-30250580D01*
X-101552481Y-30024586D01*
X-101760869Y-29835615D01*
X-101946865Y-29724067D01*
X-101936273Y-29719680D01*
X-101701241Y-29562637D01*
X-101501363Y-29362759D01*
X-101344320Y-29127727D01*
X-101236147Y-28866574D01*
X-101181000Y-28589335D01*
X-101181000Y-28306665D01*
X-101236147Y-28029426D01*
X-101344320Y-27768273D01*
X-101501363Y-27533241D01*
X-101701241Y-27333363D01*
X-101877167Y-27215813D01*
X-101866997Y-27182286D01*
X-101861842Y-27129947D01*
X-101701241Y-27022637D01*
X-101501363Y-26822759D01*
X-101344320Y-26587727D01*
X-101236147Y-26326574D01*
X-101181000Y-26049335D01*
X-101181000Y-25766665D01*
X-101236147Y-25489426D01*
X-101344320Y-25228273D01*
X-101501363Y-24993241D01*
X-101701241Y-24793363D01*
X-101933759Y-24638000D01*
X-101701241Y-24482637D01*
X-101501363Y-24282759D01*
X-101344320Y-24047727D01*
X-101236147Y-23786574D01*
X-101181000Y-23509335D01*
X-101181000Y-23226665D01*
X-101236147Y-22949426D01*
X-101344320Y-22688273D01*
X-101501363Y-22453241D01*
X-101701241Y-22253363D01*
X-101936273Y-22096320D01*
X-102197426Y-21988147D01*
X-102474665Y-21933000D01*
X-102757335Y-21933000D01*
X-103034574Y-21988147D01*
X-103295727Y-22096320D01*
X-103490900Y-22226730D01*
X-103490900Y-19261001D01*
X-102848997Y-18619099D01*
X-102819999Y-18595301D01*
X-102725026Y-18479576D01*
X-102654454Y-18347547D01*
X-102610997Y-18204286D01*
X-102606911Y-18162796D01*
X-102413368Y-18033475D01*
X-102206525Y-17826632D01*
X-102090000Y-17652240D01*
X-101973475Y-17826632D01*
X-101766632Y-18033475D01*
X-101523411Y-18195990D01*
X-101253158Y-18307932D01*
X-100966260Y-18365000D01*
X-100673740Y-18365000D01*
X-100386842Y-18307932D01*
X-100116589Y-18195990D01*
X-99873368Y-18033475D01*
X-99666525Y-17826632D01*
X-99544805Y-17644466D01*
X-99475178Y-17761355D01*
X-99280269Y-17977588D01*
X-99046920Y-18151641D01*
X-98784099Y-18276825D01*
X-98636890Y-18321476D01*
X-98407000Y-18200155D01*
X-98407000Y-17007000D01*
X-98153000Y-17007000D01*
X-98153000Y-18200155D01*
X-97923110Y-18321476D01*
X-97775901Y-18276825D01*
X-97513080Y-18151641D01*
X-97279731Y-17977588D01*
X-97084822Y-17761355D01*
X-96935843Y-17511252D01*
X-96838519Y-17236891D01*
X-96959186Y-17007000D01*
X-98153000Y-17007000D01*
X-98407000Y-17007000D01*
X-98427000Y-17007000D01*
X-98427000Y-16753000D01*
X-98407000Y-16753000D01*
X-98407000Y-15559845D01*
X-98153000Y-15559845D01*
X-98153000Y-16753000D01*
X-96959186Y-16753000D01*
X-96838519Y-16523109D01*
X-96935843Y-16248748D01*
X-97084822Y-15998645D01*
X-97279731Y-15782412D01*
X-97513080Y-15608359D01*
X-97775901Y-15483175D01*
X-97923110Y-15438524D01*
X-98153000Y-15559845D01*
X-98407000Y-15559845D01*
X-98636890Y-15438524D01*
X-98784099Y-15483175D01*
X-99046920Y-15608359D01*
X-99280269Y-15782412D01*
X-99475178Y-15998645D01*
X-99544805Y-16115534D01*
X-99666525Y-15933368D01*
X-99873368Y-15726525D01*
X-100116589Y-15564010D01*
X-100386842Y-15452068D01*
X-100673740Y-15395000D01*
X-100966260Y-15395000D01*
X-101253158Y-15452068D01*
X-101523411Y-15564010D01*
X-101766632Y-15726525D01*
X-101973475Y-15933368D01*
X-102090000Y-16107760D01*
X-102206525Y-15933368D01*
X-102413368Y-15726525D01*
X-102656589Y-15564010D01*
X-102926842Y-15452068D01*
X-103213740Y-15395000D01*
X-103506260Y-15395000D01*
X-103793158Y-15452068D01*
X-104063411Y-15564010D01*
X-104306632Y-15726525D01*
X-104438487Y-15858380D01*
X-104460498Y-15785820D01*
X-104519463Y-15675506D01*
X-104598815Y-15578815D01*
X-104695506Y-15499463D01*
X-104805820Y-15440498D01*
X-104925518Y-15404188D01*
X-105050000Y-15391928D01*
X-106750000Y-15391928D01*
X-106874482Y-15404188D01*
X-106994180Y-15440498D01*
X-107104494Y-15499463D01*
X-107201185Y-15578815D01*
X-107280537Y-15675506D01*
X-107339502Y-15785820D01*
X-107375812Y-15905518D01*
X-107388072Y-16030000D01*
X-107388072Y-17730000D01*
X-107375812Y-17854482D01*
X-107339502Y-17974180D01*
X-107280537Y-18084494D01*
X-107201185Y-18181185D01*
X-107104494Y-18260537D01*
X-106994180Y-18319502D01*
X-106874482Y-18355812D01*
X-106750000Y-18368072D01*
X-106594575Y-18368072D01*
X-106534974Y-18479576D01*
X-106463799Y-18566302D01*
X-106440000Y-18595301D01*
X-106411002Y-18619099D01*
X-105756599Y-19273503D01*
X-105756600Y-52064982D01*
X-105879753Y-51999154D01*
X-106023014Y-51955697D01*
X-106134667Y-51944700D01*
X-106172000Y-51941023D01*
X-106209333Y-51944700D01*
X-106492498Y-51944700D01*
X-108329312Y-50107886D01*
X-108293000Y-49925335D01*
X-108293000Y-49642665D01*
X-108348147Y-49365426D01*
X-108456320Y-49104273D01*
X-108613363Y-48869241D01*
X-108813241Y-48669363D01*
X-109048273Y-48512320D01*
X-109309426Y-48404147D01*
X-109586665Y-48349000D01*
X-109869335Y-48349000D01*
X-110051886Y-48385312D01*
X-110650700Y-47786499D01*
X-110650700Y-45890696D01*
X-110642759Y-45898637D01*
X-110407727Y-46055680D01*
X-110146574Y-46163853D01*
X-109869335Y-46219000D01*
X-109586665Y-46219000D01*
X-109309426Y-46163853D01*
X-109048273Y-46055680D01*
X-108813241Y-45898637D01*
X-108613363Y-45698759D01*
X-108456320Y-45463727D01*
X-108348147Y-45202574D01*
X-108293000Y-44925335D01*
X-108293000Y-44642665D01*
X-108348147Y-44365426D01*
X-108353660Y-44352117D01*
X-108334297Y-44288286D01*
X-108323300Y-44176633D01*
X-108323300Y-44176624D01*
X-108319624Y-44139301D01*
X-108323300Y-44101978D01*
X-108323300Y-25402025D01*
X-108319624Y-25364700D01*
X-108323300Y-25327375D01*
X-108323300Y-25327367D01*
X-108334297Y-25215714D01*
X-108377754Y-25072453D01*
X-108448326Y-24940424D01*
X-108543299Y-24824699D01*
X-108572296Y-24800902D01*
X-108886389Y-24486809D01*
X-108846498Y-24412180D01*
X-108810188Y-24292482D01*
X-108797928Y-24168000D01*
X-108797928Y-22568000D01*
X-108810188Y-22443518D01*
X-108846498Y-22323820D01*
X-108905463Y-22213506D01*
X-108984815Y-22116815D01*
X-109081506Y-22037463D01*
X-109191820Y-21978498D01*
X-109311518Y-21942188D01*
X-109436000Y-21929928D01*
X-111036000Y-21929928D01*
X-111160482Y-21942188D01*
X-111280180Y-21978498D01*
X-111390494Y-22037463D01*
X-111487185Y-22116815D01*
X-111566537Y-22213506D01*
X-111625502Y-22323820D01*
X-111661812Y-22443518D01*
X-111674072Y-22568000D01*
X-111674072Y-24168000D01*
X-111661812Y-24292482D01*
X-111625502Y-24412180D01*
X-111566537Y-24522494D01*
X-111487185Y-24619185D01*
X-111390494Y-24698537D01*
X-111280180Y-24757502D01*
X-111160482Y-24793812D01*
X-111152039Y-24794643D01*
X-111350637Y-24993241D01*
X-111507680Y-25228273D01*
X-111615853Y-25489426D01*
X-111671000Y-25766665D01*
X-111671000Y-26049335D01*
X-111615853Y-26326574D01*
X-111507680Y-26587727D01*
X-111363024Y-26804221D01*
X-111921698Y-27362897D01*
X-111950701Y-27386699D01*
X-112005829Y-27453874D01*
X-112045674Y-27502424D01*
X-112062146Y-27533241D01*
X-112116246Y-27634454D01*
X-112159703Y-27777715D01*
X-112170700Y-27889368D01*
X-112170700Y-27889378D01*
X-112174376Y-27926700D01*
X-112170700Y-27964022D01*
X-112170699Y-48063967D01*
X-112174376Y-48101300D01*
X-112159702Y-48250285D01*
X-112116246Y-48393546D01*
X-112045674Y-48525576D01*
X-111974499Y-48612302D01*
X-111950700Y-48641301D01*
X-111921702Y-48665099D01*
X-111126688Y-49460114D01*
X-111163000Y-49642665D01*
X-111163000Y-49925335D01*
X-111107853Y-50202574D01*
X-110999680Y-50463727D01*
X-110842637Y-50698759D01*
X-110642759Y-50898637D01*
X-110407727Y-51055680D01*
X-110146574Y-51163853D01*
X-109869335Y-51219000D01*
X-109586665Y-51219000D01*
X-109404114Y-51182688D01*
X-107650813Y-52935989D01*
X-107660072Y-53030000D01*
X-107660072Y-54730000D01*
X-107647812Y-54854482D01*
X-107611502Y-54974180D01*
X-107552537Y-55084494D01*
X-107473185Y-55181185D01*
X-107376494Y-55260537D01*
X-107266180Y-55319502D01*
X-107146482Y-55355812D01*
X-107022000Y-55368072D01*
X-105756600Y-55368072D01*
X-105756600Y-56595798D01*
X-107534702Y-58373901D01*
X-107563700Y-58397699D01*
X-107587498Y-58426697D01*
X-107587499Y-58426698D01*
X-107658674Y-58513424D01*
X-107729246Y-58645454D01*
X-107772702Y-58788715D01*
X-107787376Y-58937700D01*
X-107783699Y-58975033D01*
X-107783700Y-113167185D01*
X-108232440Y-112867346D01*
X-108757477Y-112649869D01*
X-109314852Y-112539000D01*
X-109883148Y-112539000D01*
X-110440523Y-112649869D01*
X-110965560Y-112867346D01*
X-111438080Y-113183074D01*
X-111839926Y-113584920D01*
X-112155654Y-114057440D01*
X-112373131Y-114582477D01*
X-112484000Y-115139852D01*
X-112954000Y-115139852D01*
X-112954000Y-17892665D01*
X-112433000Y-17892665D01*
X-112433000Y-18175335D01*
X-112377853Y-18452574D01*
X-112269680Y-18713727D01*
X-112112637Y-18948759D01*
X-111912759Y-19148637D01*
X-111677727Y-19305680D01*
X-111416574Y-19413853D01*
X-111139335Y-19469000D01*
X-110856665Y-19469000D01*
X-110579426Y-19413853D01*
X-110318273Y-19305680D01*
X-110083241Y-19148637D01*
X-109883363Y-18948759D01*
X-109726320Y-18713727D01*
X-109618147Y-18452574D01*
X-109563000Y-18175335D01*
X-109563000Y-17892665D01*
X-109618147Y-17615426D01*
X-109726320Y-17354273D01*
X-109883363Y-17119241D01*
X-110083241Y-16919363D01*
X-110318273Y-16762320D01*
X-110579426Y-16654147D01*
X-110856665Y-16599000D01*
X-111139335Y-16599000D01*
X-111416574Y-16654147D01*
X-111677727Y-16762320D01*
X-111912759Y-16919363D01*
X-112112637Y-17119241D01*
X-112269680Y-17354273D01*
X-112377853Y-17615426D01*
X-112433000Y-17892665D01*
X-112954000Y-17892665D01*
X-112954000Y1562148D01*
X-112484000Y1562148D01*
X-112484000Y993852D01*
X-112373131Y436477D01*
X-112155654Y-88560D01*
X-111839926Y-561080D01*
X-111438080Y-962926D01*
X-110965560Y-1278654D01*
X-110440523Y-1496131D01*
X-110358999Y-1512347D01*
X-110359000Y-5034898D01*
X-111509002Y-6184901D01*
X-111538000Y-6208699D01*
X-111561798Y-6237697D01*
X-111561799Y-6237698D01*
X-111632974Y-6324424D01*
X-111703546Y-6456454D01*
X-111747002Y-6599715D01*
X-111752157Y-6652052D01*
X-111912759Y-6759363D01*
X-112112637Y-6959241D01*
X-112269680Y-7194273D01*
X-112377853Y-7455426D01*
X-112433000Y-7732665D01*
X-112433000Y-8015335D01*
X-112377853Y-8292574D01*
X-112269680Y-8553727D01*
X-112112637Y-8788759D01*
X-111912759Y-8988637D01*
X-111677727Y-9145680D01*
X-111416574Y-9253853D01*
X-111139335Y-9309000D01*
X-110856665Y-9309000D01*
X-110579426Y-9253853D01*
X-110318273Y-9145680D01*
X-110083241Y-8988637D01*
X-109883363Y-8788759D01*
X-109726320Y-8553727D01*
X-109618147Y-8292574D01*
X-109563000Y-8015335D01*
X-109563000Y-7732665D01*
X-109618147Y-7455426D01*
X-109726320Y-7194273D01*
X-109883363Y-6959241D01*
X-110008551Y-6834053D01*
X-109087996Y-5913498D01*
X-109058999Y-5889701D01*
X-108964026Y-5773976D01*
X-108893454Y-5641947D01*
X-108849997Y-5498686D01*
X-108839000Y-5387033D01*
X-108839000Y-5387025D01*
X-108835324Y-5349700D01*
X-108839000Y-5312375D01*
X-108839000Y-3771852D01*
X-108547000Y-3771852D01*
X-108547000Y-4340148D01*
X-108436131Y-4897523D01*
X-108218654Y-5422560D01*
X-107902926Y-5895080D01*
X-107501080Y-6296926D01*
X-107028560Y-6612654D01*
X-106503523Y-6830131D01*
X-105946148Y-6941000D01*
X-105377852Y-6941000D01*
X-104820477Y-6830131D01*
X-104295440Y-6612654D01*
X-103822920Y-6296926D01*
X-103421074Y-5895080D01*
X-103105346Y-5422560D01*
X-102887869Y-4897523D01*
X-102864891Y-4782000D01*
X-101438072Y-4782000D01*
X-101425812Y-4906482D01*
X-101389502Y-5026180D01*
X-101330537Y-5136494D01*
X-101251185Y-5233185D01*
X-101154494Y-5312537D01*
X-101044180Y-5371502D01*
X-100924482Y-5407812D01*
X-100800000Y-5420072D01*
X-98835750Y-5417000D01*
X-98677000Y-5258250D01*
X-98677000Y-2659000D01*
X-98423000Y-2659000D01*
X-98423000Y-5258250D01*
X-98264250Y-5417000D01*
X-96300000Y-5420072D01*
X-96175518Y-5407812D01*
X-96055820Y-5371502D01*
X-95945506Y-5312537D01*
X-95848815Y-5233185D01*
X-95769463Y-5136494D01*
X-95710498Y-5026180D01*
X-95674188Y-4906482D01*
X-95661928Y-4782000D01*
X-95665000Y-2817750D01*
X-95823750Y-2659000D01*
X-98423000Y-2659000D01*
X-98677000Y-2659000D01*
X-101276250Y-2659000D01*
X-101435000Y-2817750D01*
X-101438072Y-4782000D01*
X-102864891Y-4782000D01*
X-102777000Y-4340148D01*
X-102777000Y-3771852D01*
X-102887869Y-3214477D01*
X-103105346Y-2689440D01*
X-103421074Y-2216920D01*
X-103822920Y-1815074D01*
X-104295440Y-1499346D01*
X-104820477Y-1281869D01*
X-105377852Y-1171000D01*
X-105946148Y-1171000D01*
X-106503523Y-1281869D01*
X-107028560Y-1499346D01*
X-107501080Y-1815074D01*
X-107902926Y-2216920D01*
X-108218654Y-2689440D01*
X-108436131Y-3214477D01*
X-108547000Y-3771852D01*
X-108839000Y-3771852D01*
X-108839000Y-1512347D01*
X-108757477Y-1496131D01*
X-108232440Y-1278654D01*
X-107759920Y-962926D01*
X-107358074Y-561080D01*
X-107171599Y-282000D01*
X-101438072Y-282000D01*
X-101435000Y-2246250D01*
X-101276250Y-2405000D01*
X-98677000Y-2405000D01*
X-98677000Y194250D01*
X-98423000Y194250D01*
X-98423000Y-2405000D01*
X-95823750Y-2405000D01*
X-95665000Y-2246250D01*
X-95661928Y-282000D01*
X-95674188Y-157518D01*
X-95710498Y-37820D01*
X-95769463Y72494D01*
X-95848815Y169185D01*
X-95945506Y248537D01*
X-96055820Y307502D01*
X-96175518Y343812D01*
X-96300000Y356072D01*
X-98264250Y353000D01*
X-98423000Y194250D01*
X-98677000Y194250D01*
X-98835750Y353000D01*
X-100800000Y356072D01*
X-100924482Y343812D01*
X-101044180Y307502D01*
X-101154494Y248537D01*
X-101251185Y169185D01*
X-101330537Y72494D01*
X-101389502Y-37820D01*
X-101425812Y-157518D01*
X-101438072Y-282000D01*
X-107171599Y-282000D01*
X-107042346Y-88560D01*
X-106824869Y436477D01*
X-106714000Y993852D01*
X-106714000Y1562148D01*
X-106824869Y2119523D01*
X-107042346Y2644560D01*
X-107358074Y3117080D01*
X-107759920Y3518926D01*
X-108232440Y3834654D01*
X-108757477Y4052131D01*
X-109314852Y4163000D01*
X-109883148Y4163000D01*
X-110440523Y4052131D01*
X-110965560Y3834654D01*
X-111438080Y3518926D01*
X-111839926Y3117080D01*
X-112155654Y2644560D01*
X-112373131Y2119523D01*
X-112484000Y1562148D01*
X-112954000Y1562148D01*
X-112954000Y4864148D01*
X-100419000Y4864148D01*
X-100419000Y4295852D01*
X-100308131Y3738477D01*
X-100090654Y3213440D01*
X-99774926Y2740920D01*
X-99373080Y2339074D01*
X-98900560Y2023346D01*
X-98375523Y1805869D01*
X-97818148Y1695000D01*
X-97249852Y1695000D01*
X-96692477Y1805869D01*
X-96167440Y2023346D01*
X-95694920Y2339074D01*
X-95293074Y2740920D01*
X-94977346Y3213440D01*
X-94759869Y3738477D01*
X-94649000Y4295852D01*
X-94649000Y4864148D01*
X-94759869Y5421523D01*
X-94977346Y5946560D01*
X-95293074Y6419080D01*
X-95694920Y6820926D01*
X-96167440Y7136654D01*
X-96692477Y7354131D01*
X-97249852Y7465000D01*
X-97818148Y7465000D01*
X-98375523Y7354131D01*
X-98900560Y7136654D01*
X-99373080Y6820926D01*
X-99774926Y6419080D01*
X-100090654Y5946560D01*
X-100308131Y5421523D01*
X-100419000Y4864148D01*
X-112954000Y4864148D01*
X-112954000Y11738495D01*
X-110639265Y11738495D01*
X-110638847Y11678679D01*
X-110639265Y11618863D01*
X-110638365Y11609691D01*
X-110622820Y11461790D01*
X-110610797Y11403220D01*
X-110599584Y11344437D01*
X-110596921Y11335615D01*
X-110552945Y11193548D01*
X-110529760Y11138393D01*
X-110507355Y11082938D01*
X-110503028Y11074801D01*
X-110432295Y10943983D01*
X-110398849Y10894397D01*
X-110366089Y10844335D01*
X-110360265Y10837194D01*
X-110265468Y10722606D01*
X-110223053Y10680486D01*
X-110181171Y10637717D01*
X-110174070Y10631843D01*
X-110058823Y10537851D01*
X-110009033Y10504771D01*
X-109959643Y10470952D01*
X-109951536Y10466569D01*
X-109820228Y10396751D01*
X-109764946Y10373966D01*
X-109709941Y10350390D01*
X-109701138Y10347665D01*
X-109558769Y10304682D01*
X-109500107Y10293066D01*
X-109441576Y10280625D01*
X-109432415Y10279662D01*
X-109432411Y10279662D01*
X-109284404Y10265150D01*
X-109284402Y10265150D01*
X-109252419Y10262000D01*
X-105584006Y10262000D01*
X-105870926Y9975080D01*
X-106186654Y9502560D01*
X-106404131Y8977523D01*
X-106515000Y8420148D01*
X-106515000Y7851852D01*
X-106404131Y7294477D01*
X-106186654Y6769440D01*
X-105870926Y6296920D01*
X-105469080Y5895074D01*
X-104996560Y5579346D01*
X-104471523Y5361869D01*
X-103914148Y5251000D01*
X-103345852Y5251000D01*
X-102788477Y5361869D01*
X-102263440Y5579346D01*
X-101790920Y5895074D01*
X-101389074Y6296920D01*
X-101073346Y6769440D01*
X-100855869Y7294477D01*
X-100745000Y7851852D01*
X-100745000Y8420148D01*
X-100855869Y8977523D01*
X-101073346Y9502560D01*
X-101389074Y9975080D01*
X-101675994Y10262000D01*
X-98535581Y10262000D01*
X-98502847Y10265224D01*
X-98492953Y10265224D01*
X-98483788Y10266188D01*
X-98335998Y10282766D01*
X-98277553Y10295189D01*
X-98218811Y10306820D01*
X-98210008Y10309546D01*
X-98068253Y10354513D01*
X-98013279Y10378075D01*
X-97957963Y10400874D01*
X-97949857Y10405257D01*
X-97819536Y10476902D01*
X-97770179Y10510698D01*
X-97720355Y10543801D01*
X-97713255Y10549675D01*
X-97599332Y10645268D01*
X-97557488Y10687998D01*
X-97515033Y10730157D01*
X-97509209Y10737298D01*
X-97416023Y10853198D01*
X-97383285Y10903228D01*
X-97349818Y10952844D01*
X-97345492Y10960981D01*
X-97276592Y11092774D01*
X-97254195Y11148209D01*
X-97231002Y11203381D01*
X-97228339Y11212203D01*
X-97186350Y11354868D01*
X-97175142Y11413626D01*
X-97163112Y11472229D01*
X-97162213Y11481400D01*
X-97148735Y11629505D01*
X-97149153Y11689321D01*
X-97148735Y11749137D01*
X-97149635Y11758308D01*
X-97165180Y11906210D01*
X-97177197Y11964750D01*
X-97188415Y12023563D01*
X-97191079Y12032385D01*
X-97235055Y12174451D01*
X-97258224Y12229568D01*
X-97280645Y12285063D01*
X-97284972Y12293199D01*
X-97355705Y12424017D01*
X-97389161Y12473618D01*
X-97421911Y12523665D01*
X-97427735Y12530806D01*
X-97522531Y12645394D01*
X-97564986Y12687553D01*
X-97606830Y12730283D01*
X-97613930Y12736157D01*
X-97729177Y12830150D01*
X-97779001Y12863253D01*
X-97828357Y12897048D01*
X-97836463Y12901431D01*
X-97967772Y12971249D01*
X-98023078Y12994044D01*
X-98078059Y13017610D01*
X-98086862Y13020335D01*
X-98229231Y13063319D01*
X-98287916Y13074939D01*
X-98346424Y13087375D01*
X-98355587Y13088338D01*
X-98355589Y13088338D01*
X-98503596Y13102850D01*
X-98503598Y13102850D01*
X-98535581Y13106000D01*
X-109252419Y13106000D01*
X-109285153Y13102776D01*
X-109295047Y13102776D01*
X-109304211Y13101812D01*
X-109452002Y13085234D01*
X-109510447Y13072811D01*
X-109569189Y13061180D01*
X-109577992Y13058454D01*
X-109719747Y13013487D01*
X-109774721Y12989925D01*
X-109830037Y12967126D01*
X-109838137Y12962745D01*
X-109838140Y12962744D01*
X-109838143Y12962742D01*
X-109968464Y12891098D01*
X-110017821Y12857302D01*
X-110067645Y12824199D01*
X-110074746Y12818325D01*
X-110188668Y12722732D01*
X-110230512Y12680002D01*
X-110272967Y12637843D01*
X-110278791Y12630702D01*
X-110371977Y12514802D01*
X-110404719Y12464767D01*
X-110438182Y12415157D01*
X-110442508Y12407020D01*
X-110511408Y12275226D01*
X-110533818Y12219759D01*
X-110556997Y12164619D01*
X-110559661Y12155797D01*
X-110601650Y12013132D01*
X-110612858Y11954374D01*
X-110624888Y11895771D01*
X-110625787Y11886600D01*
X-110639265Y11738495D01*
X-112954000Y11738495D01*
X-112954000Y19677525D01*
X-110387000Y19677525D01*
X-110387000Y19158475D01*
X-110285739Y18649399D01*
X-110087107Y18169859D01*
X-109798738Y17738285D01*
X-109431715Y17371262D01*
X-109000141Y17082893D01*
X-108520601Y16884261D01*
X-108011525Y16783000D01*
X-107492475Y16783000D01*
X-106983399Y16884261D01*
X-106503859Y17082893D01*
X-106072285Y17371262D01*
X-105705262Y17738285D01*
X-105416893Y18169859D01*
X-105218261Y18649399D01*
X-105117000Y19158475D01*
X-105117000Y19677525D01*
X-101587000Y19677525D01*
X-101587000Y19158475D01*
X-101485739Y18649399D01*
X-101287107Y18169859D01*
X-100998738Y17738285D01*
X-100631715Y17371262D01*
X-100200141Y17082893D01*
X-99720601Y16884261D01*
X-99211525Y16783000D01*
X-98692475Y16783000D01*
X-98183399Y16884261D01*
X-97703859Y17082893D01*
X-97272285Y17371262D01*
X-96905262Y17738285D01*
X-96616893Y18169859D01*
X-96418261Y18649399D01*
X-96317000Y19158475D01*
X-96317000Y19677525D01*
X-96418261Y20186601D01*
X-96616893Y20666141D01*
X-96905262Y21097715D01*
X-97272285Y21464738D01*
X-97703859Y21753107D01*
X-98183399Y21951739D01*
X-98692475Y22053000D01*
X-99211525Y22053000D01*
X-99720601Y21951739D01*
X-100200141Y21753107D01*
X-100631715Y21464738D01*
X-100998738Y21097715D01*
X-101287107Y20666141D01*
X-101485739Y20186601D01*
X-101587000Y19677525D01*
X-105117000Y19677525D01*
X-105218261Y20186601D01*
X-105416893Y20666141D01*
X-105705262Y21097715D01*
X-106072285Y21464738D01*
X-106503859Y21753107D01*
X-106983399Y21951739D01*
X-107492475Y22053000D01*
X-108011525Y22053000D01*
X-108520601Y21951739D01*
X-109000141Y21753107D01*
X-109431715Y21464738D01*
X-109798738Y21097715D01*
X-110087107Y20666141D01*
X-110285739Y20186601D01*
X-110387000Y19677525D01*
X-112954000Y19677525D01*
X-112954000Y35931525D01*
X-110453000Y35931525D01*
X-110453000Y35412475D01*
X-110351739Y34903399D01*
X-110153107Y34423859D01*
X-109864738Y33992285D01*
X-109497715Y33625262D01*
X-109066141Y33336893D01*
X-108586601Y33138261D01*
X-108077525Y33037000D01*
X-107558475Y33037000D01*
X-107049399Y33138261D01*
X-106569859Y33336893D01*
X-106138285Y33625262D01*
X-105771262Y33992285D01*
X-105482893Y34423859D01*
X-105284261Y34903399D01*
X-105183000Y35412475D01*
X-105183000Y35931525D01*
X-105284261Y36440601D01*
X-105482893Y36920141D01*
X-105771262Y37351715D01*
X-106138285Y37718738D01*
X-106569859Y38007107D01*
X-107049399Y38205739D01*
X-107558475Y38307000D01*
X-108077525Y38307000D01*
X-108586601Y38205739D01*
X-109066141Y38007107D01*
X-109497715Y37718738D01*
X-109864738Y37351715D01*
X-110153107Y36920141D01*
X-110351739Y36440601D01*
X-110453000Y35931525D01*
X-112954000Y35931525D01*
X-112954000Y87768400D01*
X-111824676Y87768400D01*
X-111821000Y87731078D01*
X-111820999Y47852333D01*
X-111824676Y47815000D01*
X-111810002Y47666015D01*
X-111766546Y47522754D01*
X-111695974Y47390724D01*
X-111624799Y47303998D01*
X-111601000Y47274999D01*
X-111572002Y47251201D01*
X-107401731Y43080930D01*
X-107453000Y42823184D01*
X-107453000Y42520816D01*
X-107394011Y42224257D01*
X-107278299Y41944905D01*
X-107110312Y41693495D01*
X-106896505Y41479688D01*
X-106645095Y41311701D01*
X-106365743Y41195989D01*
X-106069184Y41137000D01*
X-105766816Y41137000D01*
X-105470257Y41195989D01*
X-105190905Y41311701D01*
X-104939495Y41479688D01*
X-104725688Y41693495D01*
X-104668000Y41779831D01*
X-104610312Y41693495D01*
X-104396505Y41479688D01*
X-104145095Y41311701D01*
X-103865743Y41195989D01*
X-103569184Y41137000D01*
X-103266816Y41137000D01*
X-102970257Y41195989D01*
X-102690905Y41311701D01*
X-102439495Y41479688D01*
X-102225688Y41693495D01*
X-102168000Y41779831D01*
X-102155999Y41761870D01*
X-102156000Y27390985D01*
X-102159688Y27396505D01*
X-102373495Y27610312D01*
X-102624905Y27778299D01*
X-102904257Y27894011D01*
X-103200816Y27953000D01*
X-103503184Y27953000D01*
X-103799743Y27894011D01*
X-104079095Y27778299D01*
X-104330505Y27610312D01*
X-104544312Y27396505D01*
X-104602000Y27310169D01*
X-104659688Y27396505D01*
X-104873495Y27610312D01*
X-105124905Y27778299D01*
X-105404257Y27894011D01*
X-105700816Y27953000D01*
X-106003184Y27953000D01*
X-106299743Y27894011D01*
X-106579095Y27778299D01*
X-106830505Y27610312D01*
X-107044312Y27396505D01*
X-107212299Y27145095D01*
X-107328011Y26865743D01*
X-107387000Y26569184D01*
X-107387000Y26266816D01*
X-107328011Y25970257D01*
X-107212299Y25690905D01*
X-107044312Y25439495D01*
X-106830505Y25225688D01*
X-106579095Y25057701D01*
X-106299743Y24941989D01*
X-106003184Y24883000D01*
X-105700816Y24883000D01*
X-105404257Y24941989D01*
X-105124905Y25057701D01*
X-104873495Y25225688D01*
X-104659688Y25439495D01*
X-104602000Y25525831D01*
X-104544312Y25439495D01*
X-104330505Y25225688D01*
X-104079095Y25057701D01*
X-103799743Y24941989D01*
X-103503184Y24883000D01*
X-103200816Y24883000D01*
X-102904257Y24941989D01*
X-102624905Y25057701D01*
X-102373495Y25225688D01*
X-102159688Y25439495D01*
X-102102000Y25525831D01*
X-102044312Y25439495D01*
X-101830505Y25225688D01*
X-101579095Y25057701D01*
X-101299743Y24941989D01*
X-101003184Y24883000D01*
X-100700816Y24883000D01*
X-100404257Y24941989D01*
X-100124905Y25057701D01*
X-99873495Y25225688D01*
X-99659688Y25439495D01*
X-99491701Y25690905D01*
X-99375989Y25970257D01*
X-99317000Y26266816D01*
X-99317000Y26569184D01*
X-99375989Y26865743D01*
X-99491701Y27145095D01*
X-99659688Y27396505D01*
X-99873495Y27610312D01*
X-100124905Y27778299D01*
X-100404257Y27894011D01*
X-100636000Y27940107D01*
X-100636000Y33584025D01*
X-100266141Y33336893D01*
X-99786601Y33138261D01*
X-99277525Y33037000D01*
X-98758475Y33037000D01*
X-98249399Y33138261D01*
X-97769859Y33336893D01*
X-97338285Y33625262D01*
X-96971262Y33992285D01*
X-96682893Y34423859D01*
X-96484261Y34903399D01*
X-96383000Y35412475D01*
X-96383000Y35931525D01*
X-96484261Y36440601D01*
X-96682893Y36920141D01*
X-96971262Y37351715D01*
X-97338285Y37718738D01*
X-97769859Y38007107D01*
X-98249399Y38205739D01*
X-98758475Y38307000D01*
X-99277525Y38307000D01*
X-99786601Y38205739D01*
X-100266141Y38007107D01*
X-100636000Y37759975D01*
X-100636000Y41163021D01*
X-100470257Y41195989D01*
X-100190905Y41311701D01*
X-99939495Y41479688D01*
X-99725688Y41693495D01*
X-99557701Y41944905D01*
X-99441989Y42224257D01*
X-99383000Y42520816D01*
X-99383000Y42823184D01*
X-99441989Y43119743D01*
X-99557701Y43399095D01*
X-99725688Y43650505D01*
X-99939495Y43864312D01*
X-100190905Y44032299D01*
X-100470257Y44148011D01*
X-100766816Y44207000D01*
X-101069184Y44207000D01*
X-101365743Y44148011D01*
X-101645095Y44032299D01*
X-101896505Y43864312D01*
X-102110312Y43650505D01*
X-102168000Y43564169D01*
X-102225688Y43650505D01*
X-102439495Y43864312D01*
X-102690905Y44032299D01*
X-102970257Y44148011D01*
X-103266816Y44207000D01*
X-103569184Y44207000D01*
X-103865743Y44148011D01*
X-104145095Y44032299D01*
X-104396505Y43864312D01*
X-104610312Y43650505D01*
X-104668000Y43564169D01*
X-104725688Y43650505D01*
X-104939495Y43864312D01*
X-105190905Y44032299D01*
X-105470257Y44148011D01*
X-105766816Y44207000D01*
X-106069184Y44207000D01*
X-106326930Y44155731D01*
X-110301000Y48129801D01*
X-110301000Y50726122D01*
X-110285739Y50649399D01*
X-110087107Y50169859D01*
X-109798738Y49738285D01*
X-109431715Y49371262D01*
X-109000141Y49082893D01*
X-108520601Y48884261D01*
X-108011525Y48783000D01*
X-107492475Y48783000D01*
X-106983399Y48884261D01*
X-106503859Y49082893D01*
X-106072285Y49371262D01*
X-105705262Y49738285D01*
X-105416893Y50169859D01*
X-105218261Y50649399D01*
X-105117000Y51158475D01*
X-105117000Y51677525D01*
X-101587000Y51677525D01*
X-101587000Y51158475D01*
X-101485739Y50649399D01*
X-101287107Y50169859D01*
X-100998738Y49738285D01*
X-100631715Y49371262D01*
X-100200141Y49082893D01*
X-99720601Y48884261D01*
X-99211525Y48783000D01*
X-98692475Y48783000D01*
X-98183399Y48884261D01*
X-97703859Y49082893D01*
X-97272285Y49371262D01*
X-96905262Y49738285D01*
X-96616893Y50169859D01*
X-96418261Y50649399D01*
X-96317000Y51158475D01*
X-96317000Y51677525D01*
X-96418261Y52186601D01*
X-96616893Y52666141D01*
X-96905262Y53097715D01*
X-97272285Y53464738D01*
X-97703859Y53753107D01*
X-98183399Y53951739D01*
X-98692475Y54053000D01*
X-99211525Y54053000D01*
X-99720601Y53951739D01*
X-100200141Y53753107D01*
X-100631715Y53464738D01*
X-100998738Y53097715D01*
X-101287107Y52666141D01*
X-101485739Y52186601D01*
X-101587000Y51677525D01*
X-105117000Y51677525D01*
X-105218261Y52186601D01*
X-105416893Y52666141D01*
X-105705262Y53097715D01*
X-106072285Y53464738D01*
X-106503859Y53753107D01*
X-106983399Y53951739D01*
X-107492475Y54053000D01*
X-108011525Y54053000D01*
X-108520601Y53951739D01*
X-109000141Y53753107D01*
X-109431715Y53464738D01*
X-109798738Y53097715D01*
X-110087107Y52666141D01*
X-110285739Y52186601D01*
X-110301000Y52109878D01*
X-110301000Y61792199D01*
X-107335731Y58826930D01*
X-107387000Y58569184D01*
X-107387000Y58266816D01*
X-107328011Y57970257D01*
X-107212299Y57690905D01*
X-107044312Y57439495D01*
X-106830505Y57225688D01*
X-106579095Y57057701D01*
X-106299743Y56941989D01*
X-106003184Y56883000D01*
X-105700816Y56883000D01*
X-105404257Y56941989D01*
X-105124905Y57057701D01*
X-104873495Y57225688D01*
X-104659688Y57439495D01*
X-104602000Y57525831D01*
X-104544312Y57439495D01*
X-104330505Y57225688D01*
X-104079095Y57057701D01*
X-103799743Y56941989D01*
X-103503184Y56883000D01*
X-103200816Y56883000D01*
X-102904257Y56941989D01*
X-102624905Y57057701D01*
X-102373495Y57225688D01*
X-102159688Y57439495D01*
X-102102000Y57525831D01*
X-102044312Y57439495D01*
X-101830505Y57225688D01*
X-101579095Y57057701D01*
X-101299743Y56941989D01*
X-101003184Y56883000D01*
X-100700816Y56883000D01*
X-100404257Y56941989D01*
X-100124905Y57057701D01*
X-99873495Y57225688D01*
X-99659688Y57439495D01*
X-99491701Y57690905D01*
X-99375989Y57970257D01*
X-99317000Y58266816D01*
X-99317000Y58569184D01*
X-99375989Y58865743D01*
X-99491701Y59145095D01*
X-99659688Y59396505D01*
X-99873495Y59610312D01*
X-100124905Y59778299D01*
X-100404257Y59894011D01*
X-100700816Y59953000D01*
X-101003184Y59953000D01*
X-101299743Y59894011D01*
X-101579095Y59778299D01*
X-101830505Y59610312D01*
X-102044312Y59396505D01*
X-102102000Y59310169D01*
X-102159688Y59396505D01*
X-102373495Y59610312D01*
X-102624905Y59778299D01*
X-102904257Y59894011D01*
X-103200816Y59953000D01*
X-103503184Y59953000D01*
X-103760930Y59901731D01*
X-103866600Y60007401D01*
X-103866600Y61722489D01*
X-103793158Y61692068D01*
X-103506260Y61635000D01*
X-103213740Y61635000D01*
X-102926842Y61692068D01*
X-102656589Y61804010D01*
X-102413368Y61966525D01*
X-102206525Y62173368D01*
X-102090000Y62347760D01*
X-101973475Y62173368D01*
X-101766632Y61966525D01*
X-101523411Y61804010D01*
X-101253158Y61692068D01*
X-100966260Y61635000D01*
X-100673740Y61635000D01*
X-100386842Y61692068D01*
X-100116589Y61804010D01*
X-99873368Y61966525D01*
X-99666525Y62173368D01*
X-99504010Y62416589D01*
X-99392068Y62686842D01*
X-99335000Y62973740D01*
X-99335000Y63266260D01*
X-99392068Y63553158D01*
X-99504010Y63823411D01*
X-99666525Y64066632D01*
X-99873368Y64273475D01*
X-100066911Y64402796D01*
X-100070997Y64444286D01*
X-100114454Y64587547D01*
X-100185026Y64719576D01*
X-100279999Y64835301D01*
X-100308997Y64859099D01*
X-102566000Y67116101D01*
X-102566000Y74715525D01*
X-101561000Y74715525D01*
X-101561000Y74196475D01*
X-101459739Y73687399D01*
X-101261107Y73207859D01*
X-100972738Y72776285D01*
X-100605715Y72409262D01*
X-100174141Y72120893D01*
X-99694601Y71922261D01*
X-99185525Y71821000D01*
X-98666475Y71821000D01*
X-98157399Y71922261D01*
X-97677859Y72120893D01*
X-97246285Y72409262D01*
X-96879262Y72776285D01*
X-96590893Y73207859D01*
X-96392261Y73687399D01*
X-96291000Y74196475D01*
X-96291000Y74715525D01*
X-96392261Y75224601D01*
X-96590893Y75704141D01*
X-96879262Y76135715D01*
X-97246285Y76502738D01*
X-97677859Y76791107D01*
X-98157399Y76989739D01*
X-98666475Y77091000D01*
X-99185525Y77091000D01*
X-99694601Y76989739D01*
X-100174141Y76791107D01*
X-100605715Y76502738D01*
X-100972738Y76135715D01*
X-101261107Y75704141D01*
X-101459739Y75224601D01*
X-101561000Y74715525D01*
X-102566000Y74715525D01*
X-102566000Y80117687D01*
X-102347495Y80263688D01*
X-102133688Y80477495D01*
X-102076000Y80563831D01*
X-102018312Y80477495D01*
X-101804505Y80263688D01*
X-101553095Y80095701D01*
X-101273743Y79979989D01*
X-100977184Y79921000D01*
X-100674816Y79921000D01*
X-100378257Y79979989D01*
X-100098905Y80095701D01*
X-99847495Y80263688D01*
X-99633688Y80477495D01*
X-99465701Y80728905D01*
X-99349989Y81008257D01*
X-99291000Y81304816D01*
X-99291000Y81607184D01*
X-99349989Y81903743D01*
X-99465701Y82183095D01*
X-99633688Y82434505D01*
X-99847495Y82648312D01*
X-100098905Y82816299D01*
X-100378257Y82932011D01*
X-100674816Y82991000D01*
X-100977184Y82991000D01*
X-101273743Y82932011D01*
X-101553095Y82816299D01*
X-101804505Y82648312D01*
X-102018312Y82434505D01*
X-102076000Y82348169D01*
X-102133688Y82434505D01*
X-102347495Y82648312D01*
X-102598905Y82816299D01*
X-102878257Y82932011D01*
X-103174816Y82991000D01*
X-103477184Y82991000D01*
X-103773743Y82932011D01*
X-104053095Y82816299D01*
X-104304505Y82648312D01*
X-104518312Y82434505D01*
X-104576000Y82348169D01*
X-104633688Y82434505D01*
X-104847495Y82648312D01*
X-105098905Y82816299D01*
X-105378257Y82932011D01*
X-105674816Y82991000D01*
X-105977184Y82991000D01*
X-106273743Y82932011D01*
X-106553095Y82816299D01*
X-106804505Y82648312D01*
X-107018312Y82434505D01*
X-107186299Y82183095D01*
X-107302011Y81903743D01*
X-107361000Y81607184D01*
X-107361000Y81304816D01*
X-107302011Y81008257D01*
X-107202276Y80767478D01*
X-108714000Y82279201D01*
X-108714000Y85199957D01*
X-108559241Y85303363D01*
X-108359363Y85503241D01*
X-108202320Y85738273D01*
X-108094147Y85999426D01*
X-108039000Y86276665D01*
X-108039000Y86501335D01*
X-102781000Y86501335D01*
X-102781000Y86218665D01*
X-102725853Y85941426D01*
X-102617680Y85680273D01*
X-102460637Y85445241D01*
X-102260759Y85245363D01*
X-102025727Y85088320D01*
X-101764574Y84980147D01*
X-101487335Y84925000D01*
X-101204665Y84925000D01*
X-100927426Y84980147D01*
X-100666273Y85088320D01*
X-100431241Y85245363D01*
X-100231363Y85445241D01*
X-100074320Y85680273D01*
X-99966147Y85941426D01*
X-99911000Y86218665D01*
X-99911000Y86501335D01*
X-99922537Y86559335D01*
X-98463000Y86559335D01*
X-98463000Y86276665D01*
X-98407853Y85999426D01*
X-98299680Y85738273D01*
X-98142637Y85503241D01*
X-97942759Y85303363D01*
X-97707727Y85146320D01*
X-97446574Y85038147D01*
X-97169335Y84983000D01*
X-96886665Y84983000D01*
X-96609426Y85038147D01*
X-96348273Y85146320D01*
X-96113241Y85303363D01*
X-95913363Y85503241D01*
X-95756320Y85738273D01*
X-95648147Y85999426D01*
X-95593000Y86276665D01*
X-95593000Y86559335D01*
X-95648147Y86836574D01*
X-95756320Y87097727D01*
X-95913363Y87332759D01*
X-96113241Y87532637D01*
X-96348273Y87689680D01*
X-96609426Y87797853D01*
X-96886665Y87853000D01*
X-97169335Y87853000D01*
X-97446574Y87797853D01*
X-97707727Y87689680D01*
X-97942759Y87532637D01*
X-98142637Y87332759D01*
X-98299680Y87097727D01*
X-98407853Y86836574D01*
X-98463000Y86559335D01*
X-99922537Y86559335D01*
X-99966147Y86778574D01*
X-100074320Y87039727D01*
X-100231363Y87274759D01*
X-100431241Y87474637D01*
X-100666273Y87631680D01*
X-100927426Y87739853D01*
X-101204665Y87795000D01*
X-101487335Y87795000D01*
X-101764574Y87739853D01*
X-102025727Y87631680D01*
X-102260759Y87474637D01*
X-102460637Y87274759D01*
X-102617680Y87039727D01*
X-102725853Y86778574D01*
X-102781000Y86501335D01*
X-108039000Y86501335D01*
X-108039000Y86559335D01*
X-108094147Y86836574D01*
X-108202320Y87097727D01*
X-108359363Y87332759D01*
X-108559241Y87532637D01*
X-108749161Y87659537D01*
X-104127196Y92281502D01*
X-104098199Y92305299D01*
X-104071868Y92337383D01*
X-104003226Y92421023D01*
X-103932654Y92553053D01*
X-103907143Y92637153D01*
X-103889197Y92696314D01*
X-103878200Y92807967D01*
X-103878200Y92807976D01*
X-103874524Y92845299D01*
X-103878200Y92882622D01*
X-103878200Y94811699D01*
X-102685615Y96004283D01*
X-102617680Y95840273D01*
X-102460637Y95605241D01*
X-102260759Y95405363D01*
X-102025727Y95248320D01*
X-101764574Y95140147D01*
X-101487335Y95085000D01*
X-101204665Y95085000D01*
X-100927426Y95140147D01*
X-100666273Y95248320D01*
X-100431241Y95405363D01*
X-100231363Y95605241D01*
X-100124053Y95765842D01*
X-100071714Y95770997D01*
X-99928453Y95814454D01*
X-99921819Y95818000D01*
X-98246043Y95818000D01*
X-98142637Y95663241D01*
X-97942759Y95463363D01*
X-97707727Y95306320D01*
X-97446574Y95198147D01*
X-97169335Y95143000D01*
X-96886665Y95143000D01*
X-96609426Y95198147D01*
X-96348273Y95306320D01*
X-96113241Y95463363D01*
X-95913363Y95663241D01*
X-95756320Y95898273D01*
X-95648147Y96159426D01*
X-95593000Y96436665D01*
X-95593000Y96719335D01*
X-95648147Y96996574D01*
X-95756320Y97257727D01*
X-95913363Y97492759D01*
X-96113241Y97692637D01*
X-96348273Y97849680D01*
X-96609426Y97957853D01*
X-96886665Y98013000D01*
X-97169335Y98013000D01*
X-97446574Y97957853D01*
X-97707727Y97849680D01*
X-97942759Y97692637D01*
X-98142637Y97492759D01*
X-98246043Y97338000D01*
X-100125378Y97338000D01*
X-100162701Y97341676D01*
X-100168768Y97341078D01*
X-100231363Y97434759D01*
X-100431241Y97634637D01*
X-100666273Y97791680D01*
X-100830283Y97859615D01*
X-100308997Y98380901D01*
X-100279999Y98404699D01*
X-100185026Y98520424D01*
X-100114454Y98652453D01*
X-100070997Y98795714D01*
X-100066911Y98837204D01*
X-99873368Y98966525D01*
X-99666525Y99173368D01*
X-99550000Y99347760D01*
X-99433475Y99173368D01*
X-99226632Y98966525D01*
X-98983411Y98804010D01*
X-98713158Y98692068D01*
X-98426260Y98635000D01*
X-98133740Y98635000D01*
X-97846842Y98692068D01*
X-97576589Y98804010D01*
X-97333368Y98966525D01*
X-97126525Y99173368D01*
X-96964010Y99416589D01*
X-96852068Y99686842D01*
X-96795000Y99973740D01*
X-96795000Y100266260D01*
X-96852068Y100553158D01*
X-96964010Y100823411D01*
X-97126525Y101066632D01*
X-97333368Y101273475D01*
X-97576589Y101435990D01*
X-97846842Y101547932D01*
X-98133740Y101605000D01*
X-98426260Y101605000D01*
X-98713158Y101547932D01*
X-98983411Y101435990D01*
X-99226632Y101273475D01*
X-99433475Y101066632D01*
X-99550000Y100892240D01*
X-99666525Y101066632D01*
X-99873368Y101273475D01*
X-100116589Y101435990D01*
X-100386842Y101547932D01*
X-100673740Y101605000D01*
X-100966260Y101605000D01*
X-101253158Y101547932D01*
X-101523411Y101435990D01*
X-101766632Y101273475D01*
X-101973475Y101066632D01*
X-102090000Y100892240D01*
X-102206525Y101066632D01*
X-102413368Y101273475D01*
X-102656589Y101435990D01*
X-102926842Y101547932D01*
X-103213740Y101605000D01*
X-103506260Y101605000D01*
X-103793158Y101547932D01*
X-104063411Y101435990D01*
X-104306632Y101273475D01*
X-104438487Y101141620D01*
X-104460498Y101214180D01*
X-104519463Y101324494D01*
X-104598815Y101421185D01*
X-104695506Y101500537D01*
X-104805820Y101559502D01*
X-104925518Y101595812D01*
X-105050000Y101608072D01*
X-106750000Y101608072D01*
X-106874482Y101595812D01*
X-106994180Y101559502D01*
X-107104494Y101500537D01*
X-107201185Y101421185D01*
X-107280537Y101324494D01*
X-107339502Y101214180D01*
X-107375812Y101094482D01*
X-107388072Y100970000D01*
X-107388072Y99270000D01*
X-107375812Y99145518D01*
X-107339502Y99025820D01*
X-107280537Y98915506D01*
X-107201185Y98818815D01*
X-107104494Y98739463D01*
X-106994180Y98680498D01*
X-106874482Y98644188D01*
X-106750000Y98631928D01*
X-106660000Y98631928D01*
X-106659999Y93244203D01*
X-111571997Y88332204D01*
X-111601001Y88308401D01*
X-111656129Y88241226D01*
X-111695974Y88192676D01*
X-111766545Y88060647D01*
X-111766546Y88060646D01*
X-111810003Y87917385D01*
X-111821000Y87805732D01*
X-111821000Y87805722D01*
X-111824676Y87768400D01*
X-112954000Y87768400D01*
X-112954000Y96719335D01*
X-110909000Y96719335D01*
X-110909000Y96436665D01*
X-110853853Y96159426D01*
X-110745680Y95898273D01*
X-110588637Y95663241D01*
X-110388759Y95463363D01*
X-110153727Y95306320D01*
X-109892574Y95198147D01*
X-109615335Y95143000D01*
X-109332665Y95143000D01*
X-109055426Y95198147D01*
X-108794273Y95306320D01*
X-108559241Y95463363D01*
X-108359363Y95663241D01*
X-108202320Y95898273D01*
X-108094147Y96159426D01*
X-108039000Y96436665D01*
X-108039000Y96719335D01*
X-108094147Y96996574D01*
X-108202320Y97257727D01*
X-108359363Y97492759D01*
X-108559241Y97692637D01*
X-108794273Y97849680D01*
X-109055426Y97957853D01*
X-109332665Y98013000D01*
X-109615335Y98013000D01*
X-109892574Y97957853D01*
X-110153727Y97849680D01*
X-110388759Y97692637D01*
X-110588637Y97492759D01*
X-110745680Y97257727D01*
X-110853853Y96996574D01*
X-110909000Y96719335D01*
X-112954000Y96719335D01*
X-112954000Y101009000D01*
X-110791072Y101009000D01*
X-110791072Y100159000D01*
X-110778812Y100034518D01*
X-110742502Y99914820D01*
X-110683537Y99804506D01*
X-110604185Y99707815D01*
X-110507494Y99628463D01*
X-110397180Y99569498D01*
X-110277482Y99533188D01*
X-110153000Y99520928D01*
X-109303000Y99520928D01*
X-109178518Y99533188D01*
X-109058820Y99569498D01*
X-108948506Y99628463D01*
X-108851815Y99707815D01*
X-108772463Y99804506D01*
X-108713498Y99914820D01*
X-108677188Y100034518D01*
X-108664928Y100159000D01*
X-108664928Y101009000D01*
X-108677188Y101133482D01*
X-108713498Y101253180D01*
X-108718168Y101261917D01*
X-108708460Y101293938D01*
X-108835743Y101457000D01*
X-108849201Y101457000D01*
X-108851815Y101460185D01*
X-108948506Y101539537D01*
X-109058820Y101598502D01*
X-109178518Y101634812D01*
X-109303000Y101647072D01*
X-110153000Y101647072D01*
X-110277482Y101634812D01*
X-110397180Y101598502D01*
X-110507494Y101539537D01*
X-110604185Y101460185D01*
X-110606799Y101457000D01*
X-110620257Y101457000D01*
X-110747540Y101293938D01*
X-110737832Y101261917D01*
X-110742502Y101253180D01*
X-110778812Y101133482D01*
X-110791072Y101009000D01*
X-112954000Y101009000D01*
X-112954000Y102460000D01*
X-110316105Y102460000D01*
X-110386148Y102414936D01*
G37*
X-110386148Y102414936D02*
X-110535609Y102270571D01*
X-110654034Y102099822D01*
X-110736872Y101909250D01*
X-110747540Y101874062D01*
X-110620257Y101711000D01*
X-109855000Y101711000D01*
X-109855000Y101731000D01*
X-109601000Y101731000D01*
X-109601000Y101711000D01*
X-108835743Y101711000D01*
X-108708460Y101874062D01*
X-108719128Y101909250D01*
X-108801966Y102099822D01*
X-108920391Y102270571D01*
X-109069852Y102414936D01*
X-109139895Y102460000D01*
X-94273999Y102460000D01*
X-94274000Y-163220000D01*
X-112954000Y-163220000D01*
X-112954000Y-156473852D01*
X-108547000Y-156473852D01*
X-108547000Y-157042148D01*
X-108436131Y-157599523D01*
X-108218654Y-158124560D01*
X-107902926Y-158597080D01*
X-107501080Y-158998926D01*
X-107028560Y-159314654D01*
X-106503523Y-159532131D01*
X-105946148Y-159643000D01*
X-105377852Y-159643000D01*
X-104820477Y-159532131D01*
X-104295440Y-159314654D01*
X-103822920Y-158998926D01*
X-103421074Y-158597080D01*
X-103105346Y-158124560D01*
X-102887869Y-157599523D01*
X-102864891Y-157484000D01*
X-101438072Y-157484000D01*
X-101425812Y-157608482D01*
X-101389502Y-157728180D01*
X-101330537Y-157838494D01*
X-101251185Y-157935185D01*
X-101154494Y-158014537D01*
X-101044180Y-158073502D01*
X-100924482Y-158109812D01*
X-100800000Y-158122072D01*
X-98835750Y-158119000D01*
X-98677000Y-157960250D01*
X-98677000Y-155361000D01*
X-98423000Y-155361000D01*
X-98423000Y-157960250D01*
X-98264250Y-158119000D01*
X-96300000Y-158122072D01*
X-96175518Y-158109812D01*
X-96055820Y-158073502D01*
X-95945506Y-158014537D01*
X-95848815Y-157935185D01*
X-95769463Y-157838494D01*
X-95710498Y-157728180D01*
X-95674188Y-157608482D01*
X-95661928Y-157484000D01*
X-95665000Y-155519750D01*
X-95823750Y-155361000D01*
X-98423000Y-155361000D01*
X-98677000Y-155361000D01*
X-101276250Y-155361000D01*
X-101435000Y-155519750D01*
X-101438072Y-157484000D01*
X-102864891Y-157484000D01*
X-102777000Y-157042148D01*
X-102777000Y-156473852D01*
X-102887869Y-155916477D01*
X-103105346Y-155391440D01*
X-103421074Y-154918920D01*
X-103822920Y-154517074D01*
X-104295440Y-154201346D01*
X-104820477Y-153983869D01*
X-105377852Y-153873000D01*
X-105946148Y-153873000D01*
X-106503523Y-153983869D01*
X-107028560Y-154201346D01*
X-107501080Y-154517074D01*
X-107902926Y-154918920D01*
X-108218654Y-155391440D01*
X-108436131Y-155916477D01*
X-108547000Y-156473852D01*
X-112954000Y-156473852D01*
X-112954000Y-115139852D01*
X-112484000Y-115139852D01*
X-112484000Y-115708148D01*
X-112373131Y-116265523D01*
X-112155654Y-116790560D01*
X-111839926Y-117263080D01*
X-111438080Y-117664926D01*
X-110965560Y-117980654D01*
X-110440523Y-118198131D01*
X-109883148Y-118309000D01*
X-109314852Y-118309000D01*
X-109003462Y-118247061D01*
X-110110002Y-119353601D01*
X-110139000Y-119377399D01*
X-110162798Y-119406397D01*
X-110162799Y-119406398D01*
X-110233974Y-119493124D01*
X-110304546Y-119625154D01*
X-110348002Y-119768415D01*
X-110362676Y-119917400D01*
X-110358999Y-119954732D01*
X-110359000Y-130633653D01*
X-110440523Y-130649869D01*
X-110965560Y-130867346D01*
X-111438080Y-131183074D01*
X-111839926Y-131584920D01*
X-112155654Y-132057440D01*
X-112373131Y-132582477D01*
X-112484000Y-133139852D01*
X-112484000Y-133708148D01*
X-112373131Y-134265523D01*
X-112155654Y-134790560D01*
X-111839926Y-135263080D01*
X-111438080Y-135664926D01*
X-110965560Y-135980654D01*
X-110440523Y-136198131D01*
X-109883148Y-136309000D01*
X-109314852Y-136309000D01*
X-108757477Y-136198131D01*
X-108232440Y-135980654D01*
X-107781300Y-135679212D01*
X-107781300Y-135865498D01*
X-110110002Y-138194201D01*
X-110139000Y-138217999D01*
X-110162798Y-138246997D01*
X-110162799Y-138246998D01*
X-110233974Y-138333724D01*
X-110304546Y-138465754D01*
X-110348002Y-138609015D01*
X-110362676Y-138758000D01*
X-110358999Y-138795332D01*
X-110359000Y-148633653D01*
X-110440523Y-148649869D01*
X-110965560Y-148867346D01*
X-111438080Y-149183074D01*
X-111839926Y-149584920D01*
X-112155654Y-150057440D01*
X-112373131Y-150582477D01*
X-112484000Y-151139852D01*
X-112484000Y-151708148D01*
X-112373131Y-152265523D01*
X-112155654Y-152790560D01*
X-111839926Y-153263080D01*
X-111438080Y-153664926D01*
X-110965560Y-153980654D01*
X-110440523Y-154198131D01*
X-109883148Y-154309000D01*
X-109314852Y-154309000D01*
X-108757477Y-154198131D01*
X-108232440Y-153980654D01*
X-107759920Y-153664926D01*
X-107358074Y-153263080D01*
X-107171599Y-152984000D01*
X-101438072Y-152984000D01*
X-101435000Y-154948250D01*
X-101276250Y-155107000D01*
X-98677000Y-155107000D01*
X-98677000Y-152507750D01*
X-98423000Y-152507750D01*
X-98423000Y-155107000D01*
X-95823750Y-155107000D01*
X-95665000Y-154948250D01*
X-95661928Y-152984000D01*
X-95674188Y-152859518D01*
X-95710498Y-152739820D01*
X-95769463Y-152629506D01*
X-95848815Y-152532815D01*
X-95945506Y-152453463D01*
X-96055820Y-152394498D01*
X-96175518Y-152358188D01*
X-96300000Y-152345928D01*
X-98264250Y-152349000D01*
X-98423000Y-152507750D01*
X-98677000Y-152507750D01*
X-98835750Y-152349000D01*
X-100800000Y-152345928D01*
X-100924482Y-152358188D01*
X-101044180Y-152394498D01*
X-101154494Y-152453463D01*
X-101251185Y-152532815D01*
X-101330537Y-152629506D01*
X-101389502Y-152739820D01*
X-101425812Y-152859518D01*
X-101438072Y-152984000D01*
X-107171599Y-152984000D01*
X-107042346Y-152790560D01*
X-106824869Y-152265523D01*
X-106714000Y-151708148D01*
X-106714000Y-151139852D01*
X-106824869Y-150582477D01*
X-107042346Y-150057440D01*
X-107358074Y-149584920D01*
X-107759920Y-149183074D01*
X-108232440Y-148867346D01*
X-108757477Y-148649869D01*
X-108839000Y-148633653D01*
X-108839000Y-147837852D01*
X-100419000Y-147837852D01*
X-100419000Y-148406148D01*
X-100308131Y-148963523D01*
X-100090654Y-149488560D01*
X-99774926Y-149961080D01*
X-99373080Y-150362926D01*
X-98900560Y-150678654D01*
X-98375523Y-150896131D01*
X-97818148Y-151007000D01*
X-97249852Y-151007000D01*
X-96692477Y-150896131D01*
X-96167440Y-150678654D01*
X-95694920Y-150362926D01*
X-95293074Y-149961080D01*
X-94977346Y-149488560D01*
X-94759869Y-148963523D01*
X-94649000Y-148406148D01*
X-94649000Y-147837852D01*
X-94759869Y-147280477D01*
X-94977346Y-146755440D01*
X-95293074Y-146282920D01*
X-95694920Y-145881074D01*
X-96167440Y-145565346D01*
X-96692477Y-145347869D01*
X-97249852Y-145237000D01*
X-97818148Y-145237000D01*
X-98375523Y-145347869D01*
X-98900560Y-145565346D01*
X-99373080Y-145881074D01*
X-99774926Y-146282920D01*
X-100090654Y-146755440D01*
X-100308131Y-147280477D01*
X-100419000Y-147837852D01*
X-108839000Y-147837852D01*
X-108839000Y-144281852D01*
X-106515000Y-144281852D01*
X-106515000Y-144850148D01*
X-106404131Y-145407523D01*
X-106186654Y-145932560D01*
X-105870926Y-146405080D01*
X-105469080Y-146806926D01*
X-104996560Y-147122654D01*
X-104471523Y-147340131D01*
X-103914148Y-147451000D01*
X-103345852Y-147451000D01*
X-102788477Y-147340131D01*
X-102263440Y-147122654D01*
X-101790920Y-146806926D01*
X-101389074Y-146405080D01*
X-101073346Y-145932560D01*
X-100855869Y-145407523D01*
X-100745000Y-144850148D01*
X-100745000Y-144281852D01*
X-100855869Y-143724477D01*
X-101073346Y-143199440D01*
X-101389074Y-142726920D01*
X-101790920Y-142325074D01*
X-102263440Y-142009346D01*
X-102788477Y-141791869D01*
X-103345852Y-141681000D01*
X-103914148Y-141681000D01*
X-104471523Y-141791869D01*
X-104996560Y-142009346D01*
X-105469080Y-142325074D01*
X-105870926Y-142726920D01*
X-106186654Y-143199440D01*
X-106404131Y-143724477D01*
X-106515000Y-144281852D01*
X-108839000Y-144281852D01*
X-108839000Y-139072801D01*
X-108547000Y-138780801D01*
X-108547000Y-139042148D01*
X-108436131Y-139599523D01*
X-108218654Y-140124560D01*
X-107902926Y-140597080D01*
X-107501080Y-140998926D01*
X-107028560Y-141314654D01*
X-106503523Y-141532131D01*
X-105946148Y-141643000D01*
X-105377852Y-141643000D01*
X-104820477Y-141532131D01*
X-104295440Y-141314654D01*
X-103822920Y-140998926D01*
X-103421074Y-140597080D01*
X-103105346Y-140124560D01*
X-102887869Y-139599523D01*
X-102864891Y-139484000D01*
X-101438072Y-139484000D01*
X-101425812Y-139608482D01*
X-101389502Y-139728180D01*
X-101330537Y-139838494D01*
X-101251185Y-139935185D01*
X-101154494Y-140014537D01*
X-101044180Y-140073502D01*
X-100924482Y-140109812D01*
X-100800000Y-140122072D01*
X-98835750Y-140119000D01*
X-98677000Y-139960250D01*
X-98677000Y-137361000D01*
X-98423000Y-137361000D01*
X-98423000Y-139960250D01*
X-98264250Y-140119000D01*
X-96300000Y-140122072D01*
X-96175518Y-140109812D01*
X-96055820Y-140073502D01*
X-95945506Y-140014537D01*
X-95848815Y-139935185D01*
X-95769463Y-139838494D01*
X-95710498Y-139728180D01*
X-95674188Y-139608482D01*
X-95661928Y-139484000D01*
X-95665000Y-137519750D01*
X-95823750Y-137361000D01*
X-98423000Y-137361000D01*
X-98677000Y-137361000D01*
X-101276250Y-137361000D01*
X-101435000Y-137519750D01*
X-101438072Y-139484000D01*
X-102864891Y-139484000D01*
X-102777000Y-139042148D01*
X-102777000Y-138473852D01*
X-102887869Y-137916477D01*
X-103105346Y-137391440D01*
X-103421074Y-136918920D01*
X-103822920Y-136517074D01*
X-104295440Y-136201346D01*
X-104820477Y-135983869D01*
X-105377852Y-135873000D01*
X-105946148Y-135873000D01*
X-106261300Y-135935688D01*
X-106261300Y-134984000D01*
X-101438072Y-134984000D01*
X-101435000Y-136948250D01*
X-101276250Y-137107000D01*
X-98677000Y-137107000D01*
X-98677000Y-134507750D01*
X-98423000Y-134507750D01*
X-98423000Y-137107000D01*
X-95823750Y-137107000D01*
X-95665000Y-136948250D01*
X-95661928Y-134984000D01*
X-95674188Y-134859518D01*
X-95710498Y-134739820D01*
X-95769463Y-134629506D01*
X-95848815Y-134532815D01*
X-95945506Y-134453463D01*
X-96055820Y-134394498D01*
X-96175518Y-134358188D01*
X-96300000Y-134345928D01*
X-98264250Y-134349000D01*
X-98423000Y-134507750D01*
X-98677000Y-134507750D01*
X-98835750Y-134349000D01*
X-100800000Y-134345928D01*
X-100924482Y-134358188D01*
X-101044180Y-134394498D01*
X-101154494Y-134453463D01*
X-101251185Y-134532815D01*
X-101330537Y-134629506D01*
X-101389502Y-134739820D01*
X-101425812Y-134859518D01*
X-101438072Y-134984000D01*
X-106261300Y-134984000D01*
X-106261300Y-132102022D01*
X-106257624Y-132064699D01*
X-106261300Y-132027376D01*
X-106261300Y-132027367D01*
X-106272297Y-131915714D01*
X-106315754Y-131772453D01*
X-106386326Y-131640424D01*
X-106481299Y-131524699D01*
X-106510297Y-131500901D01*
X-107498100Y-130513099D01*
X-107498100Y-129837852D01*
X-100419000Y-129837852D01*
X-100419000Y-130406148D01*
X-100308131Y-130963523D01*
X-100090654Y-131488560D01*
X-99774926Y-131961080D01*
X-99373080Y-132362926D01*
X-98900560Y-132678654D01*
X-98375523Y-132896131D01*
X-97818148Y-133007000D01*
X-97249852Y-133007000D01*
X-96692477Y-132896131D01*
X-96167440Y-132678654D01*
X-95694920Y-132362926D01*
X-95293074Y-131961080D01*
X-94977346Y-131488560D01*
X-94759869Y-130963523D01*
X-94649000Y-130406148D01*
X-94649000Y-129837852D01*
X-94759869Y-129280477D01*
X-94977346Y-128755440D01*
X-95293074Y-128282920D01*
X-95694920Y-127881074D01*
X-96167440Y-127565346D01*
X-96692477Y-127347869D01*
X-97249852Y-127237000D01*
X-97818148Y-127237000D01*
X-98375523Y-127347869D01*
X-98900560Y-127565346D01*
X-99373080Y-127881074D01*
X-99774926Y-128282920D01*
X-100090654Y-128755440D01*
X-100308131Y-129280477D01*
X-100419000Y-129837852D01*
X-107498100Y-129837852D01*
X-107498100Y-126281852D01*
X-106515000Y-126281852D01*
X-106515000Y-126850148D01*
X-106404131Y-127407523D01*
X-106186654Y-127932560D01*
X-105870926Y-128405080D01*
X-105469080Y-128806926D01*
X-104996560Y-129122654D01*
X-104471523Y-129340131D01*
X-103914148Y-129451000D01*
X-103345852Y-129451000D01*
X-102788477Y-129340131D01*
X-102263440Y-129122654D01*
X-101790920Y-128806926D01*
X-101389074Y-128405080D01*
X-101073346Y-127932560D01*
X-100855869Y-127407523D01*
X-100745000Y-126850148D01*
X-100745000Y-126281852D01*
X-100855869Y-125724477D01*
X-101073346Y-125199440D01*
X-101389074Y-124726920D01*
X-101790920Y-124325074D01*
X-102263440Y-124009346D01*
X-102788477Y-123791869D01*
X-103345852Y-123681000D01*
X-103914148Y-123681000D01*
X-104471523Y-123791869D01*
X-104996560Y-124009346D01*
X-105469080Y-124325074D01*
X-105870926Y-124726920D01*
X-106186654Y-125199440D01*
X-106404131Y-125724477D01*
X-106515000Y-126281852D01*
X-107498100Y-126281852D01*
X-107498100Y-123000917D01*
X-107028560Y-123314654D01*
X-106503523Y-123532131D01*
X-105946148Y-123643000D01*
X-105377852Y-123643000D01*
X-104820477Y-123532131D01*
X-104295440Y-123314654D01*
X-103822920Y-122998926D01*
X-103421074Y-122597080D01*
X-103105346Y-122124560D01*
X-102887869Y-121599523D01*
X-102864891Y-121484000D01*
X-101438072Y-121484000D01*
X-101425812Y-121608482D01*
X-101389502Y-121728180D01*
X-101330537Y-121838494D01*
X-101251185Y-121935185D01*
X-101154494Y-122014537D01*
X-101044180Y-122073502D01*
X-100924482Y-122109812D01*
X-100800000Y-122122072D01*
X-98835750Y-122119000D01*
X-98677000Y-121960250D01*
X-98677000Y-119361000D01*
X-98423000Y-119361000D01*
X-98423000Y-121960250D01*
X-98264250Y-122119000D01*
X-96300000Y-122122072D01*
X-96175518Y-122109812D01*
X-96055820Y-122073502D01*
X-95945506Y-122014537D01*
X-95848815Y-121935185D01*
X-95769463Y-121838494D01*
X-95710498Y-121728180D01*
X-95674188Y-121608482D01*
X-95661928Y-121484000D01*
X-95665000Y-119519750D01*
X-95823750Y-119361000D01*
X-98423000Y-119361000D01*
X-98677000Y-119361000D01*
X-101276250Y-119361000D01*
X-101435000Y-119519750D01*
X-101438072Y-121484000D01*
X-102864891Y-121484000D01*
X-102777000Y-121042148D01*
X-102777000Y-120473852D01*
X-102887869Y-119916477D01*
X-103105346Y-119391440D01*
X-103421074Y-118918920D01*
X-103822920Y-118517074D01*
X-104295440Y-118201346D01*
X-104820477Y-117983869D01*
X-105377852Y-117873000D01*
X-105572395Y-117873000D01*
X-105552097Y-117806086D01*
X-105541100Y-117694433D01*
X-105541100Y-117694423D01*
X-105537424Y-117657100D01*
X-105541100Y-117619777D01*
X-105541100Y-116984000D01*
X-101438072Y-116984000D01*
X-101435000Y-118948250D01*
X-101276250Y-119107000D01*
X-98677000Y-119107000D01*
X-98677000Y-116507750D01*
X-98423000Y-116507750D01*
X-98423000Y-119107000D01*
X-95823750Y-119107000D01*
X-95665000Y-118948250D01*
X-95661928Y-116984000D01*
X-95674188Y-116859518D01*
X-95710498Y-116739820D01*
X-95769463Y-116629506D01*
X-95848815Y-116532815D01*
X-95945506Y-116453463D01*
X-96055820Y-116394498D01*
X-96175518Y-116358188D01*
X-96300000Y-116345928D01*
X-98264250Y-116349000D01*
X-98423000Y-116507750D01*
X-98677000Y-116507750D01*
X-98835750Y-116349000D01*
X-100800000Y-116345928D01*
X-100924482Y-116358188D01*
X-101044180Y-116394498D01*
X-101154494Y-116453463D01*
X-101251185Y-116532815D01*
X-101330537Y-116629506D01*
X-101389502Y-116739820D01*
X-101425812Y-116859518D01*
X-101438072Y-116984000D01*
X-105541100Y-116984000D01*
X-105541100Y-111837852D01*
X-100419000Y-111837852D01*
X-100419000Y-112406148D01*
X-100308131Y-112963523D01*
X-100090654Y-113488560D01*
X-99774926Y-113961080D01*
X-99373080Y-114362926D01*
X-98900560Y-114678654D01*
X-98375523Y-114896131D01*
X-97818148Y-115007000D01*
X-97249852Y-115007000D01*
X-96692477Y-114896131D01*
X-96167440Y-114678654D01*
X-95694920Y-114362926D01*
X-95293074Y-113961080D01*
X-94977346Y-113488560D01*
X-94759869Y-112963523D01*
X-94649000Y-112406148D01*
X-94649000Y-111837852D01*
X-94759869Y-111280477D01*
X-94977346Y-110755440D01*
X-95293074Y-110282920D01*
X-95694920Y-109881074D01*
X-96167440Y-109565346D01*
X-96692477Y-109347869D01*
X-97249852Y-109237000D01*
X-97818148Y-109237000D01*
X-98375523Y-109347869D01*
X-98900560Y-109565346D01*
X-99373080Y-109881074D01*
X-99774926Y-110282920D01*
X-100090654Y-110755440D01*
X-100308131Y-111280477D01*
X-100419000Y-111837852D01*
X-105541100Y-111837852D01*
X-105541100Y-110734906D01*
X-105469080Y-110806926D01*
X-104996560Y-111122654D01*
X-104471523Y-111340131D01*
X-103914148Y-111451000D01*
X-103345852Y-111451000D01*
X-102788477Y-111340131D01*
X-102263440Y-111122654D01*
X-101790920Y-110806926D01*
X-101389074Y-110405080D01*
X-101073346Y-109932560D01*
X-100855869Y-109407523D01*
X-100745000Y-108850148D01*
X-100745000Y-108281852D01*
X-100855869Y-107724477D01*
X-101073346Y-107199440D01*
X-101389074Y-106726920D01*
X-101790920Y-106325074D01*
X-102263440Y-106009346D01*
X-102788477Y-105791869D01*
X-103345852Y-105681000D01*
X-103914148Y-105681000D01*
X-104471523Y-105791869D01*
X-104996560Y-106009346D01*
X-105469080Y-106325074D01*
X-105541100Y-106397094D01*
X-105541100Y-82524767D01*
X-105511600Y-82527672D01*
X-103784400Y-82527672D01*
X-103659918Y-82515412D01*
X-103540220Y-82479102D01*
X-103429906Y-82420137D01*
X-103333215Y-82340785D01*
X-103253863Y-82244094D01*
X-103194898Y-82133780D01*
X-103177364Y-82075977D01*
X-103063302Y-82190039D01*
X-102817853Y-82354042D01*
X-102545125Y-82467010D01*
X-102255599Y-82524600D01*
X-101960401Y-82524600D01*
X-101670875Y-82467010D01*
X-101398147Y-82354042D01*
X-101152698Y-82190039D01*
X-100943961Y-81981302D01*
X-100779958Y-81735853D01*
X-100666990Y-81463125D01*
X-100609400Y-81173599D01*
X-100609400Y-80878401D01*
X-100666990Y-80588875D01*
X-100779958Y-80316147D01*
X-100943961Y-80070698D01*
X-101152698Y-79861961D01*
X-101318103Y-79751441D01*
X-101219512Y-79692817D01*
X-101001146Y-79496293D01*
X-100825316Y-79260944D01*
X-100698778Y-78995814D01*
X-100653042Y-78845026D01*
X-100774183Y-78613000D01*
X-101981000Y-78613000D01*
X-101981000Y-78633000D01*
X-102235000Y-78633000D01*
X-102235000Y-78613000D01*
X-104521000Y-78613000D01*
X-104521000Y-78633000D01*
X-104775000Y-78633000D01*
X-104775000Y-78613000D01*
X-104795000Y-78613000D01*
X-104795000Y-78359000D01*
X-104775000Y-78359000D01*
X-104775000Y-76073000D01*
X-104521000Y-76073000D01*
X-104521000Y-78359000D01*
X-102235000Y-78359000D01*
X-102235000Y-76073000D01*
X-101981000Y-76073000D01*
X-101981000Y-78359000D01*
X-100774183Y-78359000D01*
X-100653042Y-78126974D01*
X-100698778Y-77976186D01*
X-100825316Y-77711056D01*
X-101001146Y-77475707D01*
X-101219512Y-77279183D01*
X-101325770Y-77216000D01*
X-101219512Y-77152817D01*
X-101001146Y-76956293D01*
X-100825316Y-76720944D01*
X-100698778Y-76455814D01*
X-100653042Y-76305026D01*
X-100774183Y-76073000D01*
X-101981000Y-76073000D01*
X-102235000Y-76073000D01*
X-104521000Y-76073000D01*
X-104775000Y-76073000D01*
X-104795000Y-76073000D01*
X-104795000Y-75819000D01*
X-104775000Y-75819000D01*
X-104775000Y-73533000D01*
X-104521000Y-73533000D01*
X-104521000Y-75819000D01*
X-102235000Y-75819000D01*
X-102235000Y-73533000D01*
X-101981000Y-73533000D01*
X-101981000Y-75819000D01*
X-100774183Y-75819000D01*
X-100653042Y-75586974D01*
X-100698778Y-75436186D01*
X-100825316Y-75171056D01*
X-101001146Y-74935707D01*
X-101219512Y-74739183D01*
X-101325770Y-74676000D01*
X-101219512Y-74612817D01*
X-101001146Y-74416293D01*
X-100825316Y-74180944D01*
X-100698778Y-73915814D01*
X-100653042Y-73765026D01*
X-100774183Y-73533000D01*
X-101981000Y-73533000D01*
X-102235000Y-73533000D01*
X-104521000Y-73533000D01*
X-104775000Y-73533000D01*
X-104795000Y-73533000D01*
X-104795000Y-73279000D01*
X-104775000Y-73279000D01*
X-104775000Y-73259000D01*
X-104521000Y-73259000D01*
X-104521000Y-73279000D01*
X-102235000Y-73279000D01*
X-102235000Y-73259000D01*
X-101981000Y-73259000D01*
X-101981000Y-73279000D01*
X-100774183Y-73279000D01*
X-100653042Y-73046974D01*
X-100698778Y-72896186D01*
X-100825316Y-72631056D01*
X-101001146Y-72395707D01*
X-101219512Y-72199183D01*
X-101318103Y-72140559D01*
X-101152698Y-72030039D01*
X-100943961Y-71821302D01*
X-100779958Y-71575853D01*
X-100666990Y-71303125D01*
X-100609400Y-71013599D01*
X-100609400Y-70718401D01*
X-100666990Y-70428875D01*
X-100779958Y-70156147D01*
X-100943961Y-69910698D01*
X-101152698Y-69701961D01*
X-101398147Y-69537958D01*
X-101670875Y-69424990D01*
X-101960401Y-69367400D01*
X-102255599Y-69367400D01*
X-102545125Y-69424990D01*
X-102817853Y-69537958D01*
X-103063302Y-69701961D01*
X-103272039Y-69910698D01*
X-103378000Y-70069281D01*
X-103483961Y-69910698D01*
X-103692698Y-69701961D01*
X-103938147Y-69537958D01*
X-104210875Y-69424990D01*
X-104500401Y-69367400D01*
X-104795599Y-69367400D01*
X-105085125Y-69424990D01*
X-105357853Y-69537958D01*
X-105541100Y-69660399D01*
X-105541100Y-66269101D01*
X-101902896Y-62630898D01*
X-101873899Y-62607101D01*
X-101847568Y-62575017D01*
X-101778926Y-62491377D01*
X-101708354Y-62359347D01*
X-101708354Y-62359346D01*
X-101664897Y-62216086D01*
X-101653900Y-62104433D01*
X-101653900Y-62104423D01*
X-101650224Y-62067100D01*
X-101653900Y-62029777D01*
X-101653900Y-55254606D01*
X-101525158Y-55307932D01*
X-101238260Y-55365000D01*
X-100945740Y-55365000D01*
X-100658842Y-55307932D01*
X-100388589Y-55195990D01*
X-100145368Y-55033475D01*
X-99938525Y-54826632D01*
X-99776010Y-54583411D01*
X-99664068Y-54313158D01*
X-99607000Y-54026260D01*
X-99607000Y-53733740D01*
X-99664068Y-53446842D01*
X-99776010Y-53176589D01*
X-99938525Y-52933368D01*
X-100145368Y-52726525D01*
X-100388589Y-52564010D01*
X-100658842Y-52452068D01*
X-100945740Y-52395000D01*
X-101238260Y-52395000D01*
X-101525158Y-52452068D01*
X-101653900Y-52505394D01*
X-101653900Y-52182665D01*
X-97193000Y-52182665D01*
X-97193000Y-52465335D01*
X-97137853Y-52742574D01*
X-97029680Y-53003727D01*
X-96872637Y-53238759D01*
X-96672759Y-53438637D01*
X-96437727Y-53595680D01*
X-96176574Y-53703853D01*
X-95899335Y-53759000D01*
X-95616665Y-53759000D01*
X-95339426Y-53703853D01*
X-95078273Y-53595680D01*
X-94843241Y-53438637D01*
X-94643363Y-53238759D01*
X-94486320Y-53003727D01*
X-94378147Y-52742574D01*
X-94323000Y-52465335D01*
X-94323000Y-52182665D01*
X-94378147Y-51905426D01*
X-94486320Y-51644273D01*
X-94643363Y-51409241D01*
X-94843241Y-51209363D01*
X-95078273Y-51052320D01*
X-95339426Y-50944147D01*
X-95616665Y-50889000D01*
X-95899335Y-50889000D01*
X-96176574Y-50944147D01*
X-96437727Y-51052320D01*
X-96672759Y-51209363D01*
X-96872637Y-51409241D01*
X-97029680Y-51644273D01*
X-97137853Y-51905426D01*
X-97193000Y-52182665D01*
X-101653900Y-52182665D01*
X-101653900Y-51843722D01*
X-101650224Y-51806399D01*
X-101653900Y-51769076D01*
X-101653900Y-51769067D01*
X-101664897Y-51657414D01*
X-101708354Y-51514153D01*
X-101778926Y-51382124D01*
X-101873899Y-51266399D01*
X-101902897Y-51242601D01*
X-103490900Y-49654599D01*
X-103490900Y-49396132D01*
X-103265335Y-49441000D01*
X-102982665Y-49441000D01*
X-102705426Y-49385853D01*
X-102444273Y-49277680D01*
X-102209241Y-49120637D01*
X-102009363Y-48920759D01*
X-101852320Y-48685727D01*
X-101744147Y-48424574D01*
X-101689000Y-48147335D01*
X-101689000Y-47864665D01*
X-101744147Y-47587426D01*
X-101852320Y-47326273D01*
X-102009363Y-47091241D01*
X-102209241Y-46891363D01*
X-102444273Y-46734320D01*
X-102705426Y-46626147D01*
X-102982665Y-46571000D01*
X-103265335Y-46571000D01*
X-103490900Y-46615868D01*
X-103490900Y-42022665D01*
X-97193000Y-42022665D01*
X-97193000Y-42305335D01*
X-97137853Y-42582574D01*
X-97029680Y-42843727D01*
X-96872637Y-43078759D01*
X-96672759Y-43278637D01*
X-96437727Y-43435680D01*
X-96176574Y-43543853D01*
X-95899335Y-43599000D01*
X-95616665Y-43599000D01*
X-95339426Y-43543853D01*
X-95078273Y-43435680D01*
X-94843241Y-43278637D01*
X-94643363Y-43078759D01*
X-94486320Y-42843727D01*
X-94378147Y-42582574D01*
X-94323000Y-42305335D01*
X-94323000Y-42022665D01*
X-94378147Y-41745426D01*
X-94486320Y-41484273D01*
X-94643363Y-41249241D01*
X-94843241Y-41049363D01*
X-95078273Y-40892320D01*
X-95339426Y-40784147D01*
X-95616665Y-40729000D01*
X-95899335Y-40729000D01*
X-96176574Y-40784147D01*
X-96437727Y-40892320D01*
X-96672759Y-41049363D01*
X-96872637Y-41249241D01*
X-97029680Y-41484273D01*
X-97137853Y-41745426D01*
X-97193000Y-42022665D01*
X-103490900Y-42022665D01*
X-103490900Y-39236132D01*
X-103265335Y-39281000D01*
X-102982665Y-39281000D01*
X-102705426Y-39225853D01*
X-102444273Y-39117680D01*
X-102209241Y-38960637D01*
X-102009363Y-38760759D01*
X-101902053Y-38600158D01*
X-101849714Y-38595003D01*
X-101706453Y-38551546D01*
X-101574424Y-38480974D01*
X-101458699Y-38386001D01*
X-101434896Y-38356997D01*
X-101429899Y-38352000D01*
X-97992043Y-38352000D01*
X-97888637Y-38506759D01*
X-97688759Y-38706637D01*
X-97453727Y-38863680D01*
X-97192574Y-38971853D01*
X-96915335Y-39027000D01*
X-96632665Y-39027000D01*
X-96355426Y-38971853D01*
X-96094273Y-38863680D01*
X-95859241Y-38706637D01*
X-95659363Y-38506759D01*
X-95502320Y-38271727D01*
X-95394147Y-38010574D01*
X-95339000Y-37733335D01*
X-95339000Y-37450665D01*
X-95394147Y-37173426D01*
X-95502320Y-36912273D01*
X-95659363Y-36677241D01*
X-95859241Y-36477363D01*
X-96094273Y-36320320D01*
X-96355426Y-36212147D01*
X-96632665Y-36157000D01*
X-96915335Y-36157000D01*
X-97192574Y-36212147D01*
X-97453727Y-36320320D01*
X-97688759Y-36477363D01*
X-97888637Y-36677241D01*
X-97992043Y-36832000D01*
X-101707378Y-36832000D01*
X-101744701Y-36828324D01*
X-101782024Y-36832000D01*
X-101782033Y-36832000D01*
X-101893686Y-36842997D01*
X-102036947Y-36886454D01*
X-102048158Y-36892446D01*
X-102209241Y-36731363D01*
X-102444273Y-36574320D01*
X-102705426Y-36466147D01*
X-102982665Y-36411000D01*
X-103265335Y-36411000D01*
X-103490900Y-36455868D01*
X-103490900Y-32848202D01*
X-103236099Y-33103003D01*
X-103212301Y-33132001D01*
X-103096576Y-33226974D01*
X-102964547Y-33297546D01*
X-102821286Y-33341003D01*
X-102709633Y-33352000D01*
X-102709624Y-33352000D01*
X-102672301Y-33355676D01*
X-102634978Y-33352000D01*
X-97992043Y-33352000D01*
X-97888637Y-33506759D01*
X-97688759Y-33706637D01*
X-97453727Y-33863680D01*
X-97192574Y-33971853D01*
X-96915335Y-34027000D01*
X-96632665Y-34027000D01*
X-96355426Y-33971853D01*
X-96094273Y-33863680D01*
X-95859241Y-33706637D01*
X-95659363Y-33506759D01*
X-95502320Y-33271727D01*
X-95394147Y-33010574D01*
X-95339000Y-32733335D01*
X-95339000Y-32450665D01*
X-95394147Y-32173426D01*
X-95502320Y-31912273D01*
X-95659363Y-31677241D01*
X-95859241Y-31477363D01*
X-96094273Y-31320320D01*
X-96355426Y-31212147D01*
X-96632665Y-31157000D01*
X-96915335Y-31157000D01*
X-97192574Y-31212147D01*
X-97453727Y-31320320D01*
X-97688759Y-31477363D01*
X-97888637Y-31677241D01*
X-97992043Y-31832000D01*
X-101463965Y-31832000D01*
X-101384963Y-31725420D01*
X-101264754Y-31471087D01*
X-101224096Y-31337039D01*
X-101346085Y-31115000D01*
X-102489000Y-31115000D01*
X-102489000Y-31135000D01*
X-102743000Y-31135000D01*
X-102743000Y-31115000D01*
X-102763000Y-31115000D01*
X-102763000Y-30861000D01*
X-102743000Y-30861000D01*
X-102743000Y-30841000D01*
X-102489000Y-30841000D01*
X-102489000Y-30861000D01*
X-101346085Y-30861000D01*
X-101224096Y-30638961D01*
X-101264754Y-30504913D01*
X-101384963Y-30250580D01*
X-101552481Y-30024586D01*
X-101760869Y-29835615D01*
X-101946865Y-29724067D01*
X-101936273Y-29719680D01*
X-101701241Y-29562637D01*
X-101501363Y-29362759D01*
X-101344320Y-29127727D01*
X-101236147Y-28866574D01*
X-101181000Y-28589335D01*
X-101181000Y-28306665D01*
X-101236147Y-28029426D01*
X-101344320Y-27768273D01*
X-101501363Y-27533241D01*
X-101701241Y-27333363D01*
X-101877167Y-27215813D01*
X-101866997Y-27182286D01*
X-101861842Y-27129947D01*
X-101701241Y-27022637D01*
X-101501363Y-26822759D01*
X-101344320Y-26587727D01*
X-101236147Y-26326574D01*
X-101181000Y-26049335D01*
X-101181000Y-25766665D01*
X-101236147Y-25489426D01*
X-101344320Y-25228273D01*
X-101501363Y-24993241D01*
X-101701241Y-24793363D01*
X-101933759Y-24638000D01*
X-101701241Y-24482637D01*
X-101501363Y-24282759D01*
X-101344320Y-24047727D01*
X-101236147Y-23786574D01*
X-101181000Y-23509335D01*
X-101181000Y-23226665D01*
X-101236147Y-22949426D01*
X-101344320Y-22688273D01*
X-101501363Y-22453241D01*
X-101701241Y-22253363D01*
X-101936273Y-22096320D01*
X-102197426Y-21988147D01*
X-102474665Y-21933000D01*
X-102757335Y-21933000D01*
X-103034574Y-21988147D01*
X-103295727Y-22096320D01*
X-103490900Y-22226730D01*
X-103490900Y-19261001D01*
X-102848997Y-18619099D01*
X-102819999Y-18595301D01*
X-102725026Y-18479576D01*
X-102654454Y-18347547D01*
X-102610997Y-18204286D01*
X-102606911Y-18162796D01*
X-102413368Y-18033475D01*
X-102206525Y-17826632D01*
X-102090000Y-17652240D01*
X-101973475Y-17826632D01*
X-101766632Y-18033475D01*
X-101523411Y-18195990D01*
X-101253158Y-18307932D01*
X-100966260Y-18365000D01*
X-100673740Y-18365000D01*
X-100386842Y-18307932D01*
X-100116589Y-18195990D01*
X-99873368Y-18033475D01*
X-99666525Y-17826632D01*
X-99544805Y-17644466D01*
X-99475178Y-17761355D01*
X-99280269Y-17977588D01*
X-99046920Y-18151641D01*
X-98784099Y-18276825D01*
X-98636890Y-18321476D01*
X-98407000Y-18200155D01*
X-98407000Y-17007000D01*
X-98153000Y-17007000D01*
X-98153000Y-18200155D01*
X-97923110Y-18321476D01*
X-97775901Y-18276825D01*
X-97513080Y-18151641D01*
X-97279731Y-17977588D01*
X-97084822Y-17761355D01*
X-96935843Y-17511252D01*
X-96838519Y-17236891D01*
X-96959186Y-17007000D01*
X-98153000Y-17007000D01*
X-98407000Y-17007000D01*
X-98427000Y-17007000D01*
X-98427000Y-16753000D01*
X-98407000Y-16753000D01*
X-98407000Y-15559845D01*
X-98153000Y-15559845D01*
X-98153000Y-16753000D01*
X-96959186Y-16753000D01*
X-96838519Y-16523109D01*
X-96935843Y-16248748D01*
X-97084822Y-15998645D01*
X-97279731Y-15782412D01*
X-97513080Y-15608359D01*
X-97775901Y-15483175D01*
X-97923110Y-15438524D01*
X-98153000Y-15559845D01*
X-98407000Y-15559845D01*
X-98636890Y-15438524D01*
X-98784099Y-15483175D01*
X-99046920Y-15608359D01*
X-99280269Y-15782412D01*
X-99475178Y-15998645D01*
X-99544805Y-16115534D01*
X-99666525Y-15933368D01*
X-99873368Y-15726525D01*
X-100116589Y-15564010D01*
X-100386842Y-15452068D01*
X-100673740Y-15395000D01*
X-100966260Y-15395000D01*
X-101253158Y-15452068D01*
X-101523411Y-15564010D01*
X-101766632Y-15726525D01*
X-101973475Y-15933368D01*
X-102090000Y-16107760D01*
X-102206525Y-15933368D01*
X-102413368Y-15726525D01*
X-102656589Y-15564010D01*
X-102926842Y-15452068D01*
X-103213740Y-15395000D01*
X-103506260Y-15395000D01*
X-103793158Y-15452068D01*
X-104063411Y-15564010D01*
X-104306632Y-15726525D01*
X-104438487Y-15858380D01*
X-104460498Y-15785820D01*
X-104519463Y-15675506D01*
X-104598815Y-15578815D01*
X-104695506Y-15499463D01*
X-104805820Y-15440498D01*
X-104925518Y-15404188D01*
X-105050000Y-15391928D01*
X-106750000Y-15391928D01*
X-106874482Y-15404188D01*
X-106994180Y-15440498D01*
X-107104494Y-15499463D01*
X-107201185Y-15578815D01*
X-107280537Y-15675506D01*
X-107339502Y-15785820D01*
X-107375812Y-15905518D01*
X-107388072Y-16030000D01*
X-107388072Y-17730000D01*
X-107375812Y-17854482D01*
X-107339502Y-17974180D01*
X-107280537Y-18084494D01*
X-107201185Y-18181185D01*
X-107104494Y-18260537D01*
X-106994180Y-18319502D01*
X-106874482Y-18355812D01*
X-106750000Y-18368072D01*
X-106594575Y-18368072D01*
X-106534974Y-18479576D01*
X-106463799Y-18566302D01*
X-106440000Y-18595301D01*
X-106411002Y-18619099D01*
X-105756599Y-19273503D01*
X-105756600Y-52064982D01*
X-105879753Y-51999154D01*
X-106023014Y-51955697D01*
X-106134667Y-51944700D01*
X-106172000Y-51941023D01*
X-106209333Y-51944700D01*
X-106492498Y-51944700D01*
X-108329312Y-50107886D01*
X-108293000Y-49925335D01*
X-108293000Y-49642665D01*
X-108348147Y-49365426D01*
X-108456320Y-49104273D01*
X-108613363Y-48869241D01*
X-108813241Y-48669363D01*
X-109048273Y-48512320D01*
X-109309426Y-48404147D01*
X-109586665Y-48349000D01*
X-109869335Y-48349000D01*
X-110051886Y-48385312D01*
X-110650700Y-47786499D01*
X-110650700Y-45890696D01*
X-110642759Y-45898637D01*
X-110407727Y-46055680D01*
X-110146574Y-46163853D01*
X-109869335Y-46219000D01*
X-109586665Y-46219000D01*
X-109309426Y-46163853D01*
X-109048273Y-46055680D01*
X-108813241Y-45898637D01*
X-108613363Y-45698759D01*
X-108456320Y-45463727D01*
X-108348147Y-45202574D01*
X-108293000Y-44925335D01*
X-108293000Y-44642665D01*
X-108348147Y-44365426D01*
X-108353660Y-44352117D01*
X-108334297Y-44288286D01*
X-108323300Y-44176633D01*
X-108323300Y-44176624D01*
X-108319624Y-44139301D01*
X-108323300Y-44101978D01*
X-108323300Y-25402025D01*
X-108319624Y-25364700D01*
X-108323300Y-25327375D01*
X-108323300Y-25327367D01*
X-108334297Y-25215714D01*
X-108377754Y-25072453D01*
X-108448326Y-24940424D01*
X-108543299Y-24824699D01*
X-108572296Y-24800902D01*
X-108886389Y-24486809D01*
X-108846498Y-24412180D01*
X-108810188Y-24292482D01*
X-108797928Y-24168000D01*
X-108797928Y-22568000D01*
X-108810188Y-22443518D01*
X-108846498Y-22323820D01*
X-108905463Y-22213506D01*
X-108984815Y-22116815D01*
X-109081506Y-22037463D01*
X-109191820Y-21978498D01*
X-109311518Y-21942188D01*
X-109436000Y-21929928D01*
X-111036000Y-21929928D01*
X-111160482Y-21942188D01*
X-111280180Y-21978498D01*
X-111390494Y-22037463D01*
X-111487185Y-22116815D01*
X-111566537Y-22213506D01*
X-111625502Y-22323820D01*
X-111661812Y-22443518D01*
X-111674072Y-22568000D01*
X-111674072Y-24168000D01*
X-111661812Y-24292482D01*
X-111625502Y-24412180D01*
X-111566537Y-24522494D01*
X-111487185Y-24619185D01*
X-111390494Y-24698537D01*
X-111280180Y-24757502D01*
X-111160482Y-24793812D01*
X-111152039Y-24794643D01*
X-111350637Y-24993241D01*
X-111507680Y-25228273D01*
X-111615853Y-25489426D01*
X-111671000Y-25766665D01*
X-111671000Y-26049335D01*
X-111615853Y-26326574D01*
X-111507680Y-26587727D01*
X-111363024Y-26804221D01*
X-111921698Y-27362897D01*
X-111950701Y-27386699D01*
X-112005829Y-27453874D01*
X-112045674Y-27502424D01*
X-112062146Y-27533241D01*
X-112116246Y-27634454D01*
X-112159703Y-27777715D01*
X-112170700Y-27889368D01*
X-112170700Y-27889378D01*
X-112174376Y-27926700D01*
X-112170700Y-27964022D01*
X-112170699Y-48063967D01*
X-112174376Y-48101300D01*
X-112159702Y-48250285D01*
X-112116246Y-48393546D01*
X-112045674Y-48525576D01*
X-111974499Y-48612302D01*
X-111950700Y-48641301D01*
X-111921702Y-48665099D01*
X-111126688Y-49460114D01*
X-111163000Y-49642665D01*
X-111163000Y-49925335D01*
X-111107853Y-50202574D01*
X-110999680Y-50463727D01*
X-110842637Y-50698759D01*
X-110642759Y-50898637D01*
X-110407727Y-51055680D01*
X-110146574Y-51163853D01*
X-109869335Y-51219000D01*
X-109586665Y-51219000D01*
X-109404114Y-51182688D01*
X-107650813Y-52935989D01*
X-107660072Y-53030000D01*
X-107660072Y-54730000D01*
X-107647812Y-54854482D01*
X-107611502Y-54974180D01*
X-107552537Y-55084494D01*
X-107473185Y-55181185D01*
X-107376494Y-55260537D01*
X-107266180Y-55319502D01*
X-107146482Y-55355812D01*
X-107022000Y-55368072D01*
X-105756600Y-55368072D01*
X-105756600Y-56595798D01*
X-107534702Y-58373901D01*
X-107563700Y-58397699D01*
X-107587498Y-58426697D01*
X-107587499Y-58426698D01*
X-107658674Y-58513424D01*
X-107729246Y-58645454D01*
X-107772702Y-58788715D01*
X-107787376Y-58937700D01*
X-107783699Y-58975033D01*
X-107783700Y-113167185D01*
X-108232440Y-112867346D01*
X-108757477Y-112649869D01*
X-109314852Y-112539000D01*
X-109883148Y-112539000D01*
X-110440523Y-112649869D01*
X-110965560Y-112867346D01*
X-111438080Y-113183074D01*
X-111839926Y-113584920D01*
X-112155654Y-114057440D01*
X-112373131Y-114582477D01*
X-112484000Y-115139852D01*
X-112954000Y-115139852D01*
X-112954000Y-17892665D01*
X-112433000Y-17892665D01*
X-112433000Y-18175335D01*
X-112377853Y-18452574D01*
X-112269680Y-18713727D01*
X-112112637Y-18948759D01*
X-111912759Y-19148637D01*
X-111677727Y-19305680D01*
X-111416574Y-19413853D01*
X-111139335Y-19469000D01*
X-110856665Y-19469000D01*
X-110579426Y-19413853D01*
X-110318273Y-19305680D01*
X-110083241Y-19148637D01*
X-109883363Y-18948759D01*
X-109726320Y-18713727D01*
X-109618147Y-18452574D01*
X-109563000Y-18175335D01*
X-109563000Y-17892665D01*
X-109618147Y-17615426D01*
X-109726320Y-17354273D01*
X-109883363Y-17119241D01*
X-110083241Y-16919363D01*
X-110318273Y-16762320D01*
X-110579426Y-16654147D01*
X-110856665Y-16599000D01*
X-111139335Y-16599000D01*
X-111416574Y-16654147D01*
X-111677727Y-16762320D01*
X-111912759Y-16919363D01*
X-112112637Y-17119241D01*
X-112269680Y-17354273D01*
X-112377853Y-17615426D01*
X-112433000Y-17892665D01*
X-112954000Y-17892665D01*
X-112954000Y1562148D01*
X-112484000Y1562148D01*
X-112484000Y993852D01*
X-112373131Y436477D01*
X-112155654Y-88560D01*
X-111839926Y-561080D01*
X-111438080Y-962926D01*
X-110965560Y-1278654D01*
X-110440523Y-1496131D01*
X-110358999Y-1512347D01*
X-110359000Y-5034898D01*
X-111509002Y-6184901D01*
X-111538000Y-6208699D01*
X-111561798Y-6237697D01*
X-111561799Y-6237698D01*
X-111632974Y-6324424D01*
X-111703546Y-6456454D01*
X-111747002Y-6599715D01*
X-111752157Y-6652052D01*
X-111912759Y-6759363D01*
X-112112637Y-6959241D01*
X-112269680Y-7194273D01*
X-112377853Y-7455426D01*
X-112433000Y-7732665D01*
X-112433000Y-8015335D01*
X-112377853Y-8292574D01*
X-112269680Y-8553727D01*
X-112112637Y-8788759D01*
X-111912759Y-8988637D01*
X-111677727Y-9145680D01*
X-111416574Y-9253853D01*
X-111139335Y-9309000D01*
X-110856665Y-9309000D01*
X-110579426Y-9253853D01*
X-110318273Y-9145680D01*
X-110083241Y-8988637D01*
X-109883363Y-8788759D01*
X-109726320Y-8553727D01*
X-109618147Y-8292574D01*
X-109563000Y-8015335D01*
X-109563000Y-7732665D01*
X-109618147Y-7455426D01*
X-109726320Y-7194273D01*
X-109883363Y-6959241D01*
X-110008551Y-6834053D01*
X-109087996Y-5913498D01*
X-109058999Y-5889701D01*
X-108964026Y-5773976D01*
X-108893454Y-5641947D01*
X-108849997Y-5498686D01*
X-108839000Y-5387033D01*
X-108839000Y-5387025D01*
X-108835324Y-5349700D01*
X-108839000Y-5312375D01*
X-108839000Y-3771852D01*
X-108547000Y-3771852D01*
X-108547000Y-4340148D01*
X-108436131Y-4897523D01*
X-108218654Y-5422560D01*
X-107902926Y-5895080D01*
X-107501080Y-6296926D01*
X-107028560Y-6612654D01*
X-106503523Y-6830131D01*
X-105946148Y-6941000D01*
X-105377852Y-6941000D01*
X-104820477Y-6830131D01*
X-104295440Y-6612654D01*
X-103822920Y-6296926D01*
X-103421074Y-5895080D01*
X-103105346Y-5422560D01*
X-102887869Y-4897523D01*
X-102864891Y-4782000D01*
X-101438072Y-4782000D01*
X-101425812Y-4906482D01*
X-101389502Y-5026180D01*
X-101330537Y-5136494D01*
X-101251185Y-5233185D01*
X-101154494Y-5312537D01*
X-101044180Y-5371502D01*
X-100924482Y-5407812D01*
X-100800000Y-5420072D01*
X-98835750Y-5417000D01*
X-98677000Y-5258250D01*
X-98677000Y-2659000D01*
X-98423000Y-2659000D01*
X-98423000Y-5258250D01*
X-98264250Y-5417000D01*
X-96300000Y-5420072D01*
X-96175518Y-5407812D01*
X-96055820Y-5371502D01*
X-95945506Y-5312537D01*
X-95848815Y-5233185D01*
X-95769463Y-5136494D01*
X-95710498Y-5026180D01*
X-95674188Y-4906482D01*
X-95661928Y-4782000D01*
X-95665000Y-2817750D01*
X-95823750Y-2659000D01*
X-98423000Y-2659000D01*
X-98677000Y-2659000D01*
X-101276250Y-2659000D01*
X-101435000Y-2817750D01*
X-101438072Y-4782000D01*
X-102864891Y-4782000D01*
X-102777000Y-4340148D01*
X-102777000Y-3771852D01*
X-102887869Y-3214477D01*
X-103105346Y-2689440D01*
X-103421074Y-2216920D01*
X-103822920Y-1815074D01*
X-104295440Y-1499346D01*
X-104820477Y-1281869D01*
X-105377852Y-1171000D01*
X-105946148Y-1171000D01*
X-106503523Y-1281869D01*
X-107028560Y-1499346D01*
X-107501080Y-1815074D01*
X-107902926Y-2216920D01*
X-108218654Y-2689440D01*
X-108436131Y-3214477D01*
X-108547000Y-3771852D01*
X-108839000Y-3771852D01*
X-108839000Y-1512347D01*
X-108757477Y-1496131D01*
X-108232440Y-1278654D01*
X-107759920Y-962926D01*
X-107358074Y-561080D01*
X-107171599Y-282000D01*
X-101438072Y-282000D01*
X-101435000Y-2246250D01*
X-101276250Y-2405000D01*
X-98677000Y-2405000D01*
X-98677000Y194250D01*
X-98423000Y194250D01*
X-98423000Y-2405000D01*
X-95823750Y-2405000D01*
X-95665000Y-2246250D01*
X-95661928Y-282000D01*
X-95674188Y-157518D01*
X-95710498Y-37820D01*
X-95769463Y72494D01*
X-95848815Y169185D01*
X-95945506Y248537D01*
X-96055820Y307502D01*
X-96175518Y343812D01*
X-96300000Y356072D01*
X-98264250Y353000D01*
X-98423000Y194250D01*
X-98677000Y194250D01*
X-98835750Y353000D01*
X-100800000Y356072D01*
X-100924482Y343812D01*
X-101044180Y307502D01*
X-101154494Y248537D01*
X-101251185Y169185D01*
X-101330537Y72494D01*
X-101389502Y-37820D01*
X-101425812Y-157518D01*
X-101438072Y-282000D01*
X-107171599Y-282000D01*
X-107042346Y-88560D01*
X-106824869Y436477D01*
X-106714000Y993852D01*
X-106714000Y1562148D01*
X-106824869Y2119523D01*
X-107042346Y2644560D01*
X-107358074Y3117080D01*
X-107759920Y3518926D01*
X-108232440Y3834654D01*
X-108757477Y4052131D01*
X-109314852Y4163000D01*
X-109883148Y4163000D01*
X-110440523Y4052131D01*
X-110965560Y3834654D01*
X-111438080Y3518926D01*
X-111839926Y3117080D01*
X-112155654Y2644560D01*
X-112373131Y2119523D01*
X-112484000Y1562148D01*
X-112954000Y1562148D01*
X-112954000Y4864148D01*
X-100419000Y4864148D01*
X-100419000Y4295852D01*
X-100308131Y3738477D01*
X-100090654Y3213440D01*
X-99774926Y2740920D01*
X-99373080Y2339074D01*
X-98900560Y2023346D01*
X-98375523Y1805869D01*
X-97818148Y1695000D01*
X-97249852Y1695000D01*
X-96692477Y1805869D01*
X-96167440Y2023346D01*
X-95694920Y2339074D01*
X-95293074Y2740920D01*
X-94977346Y3213440D01*
X-94759869Y3738477D01*
X-94649000Y4295852D01*
X-94649000Y4864148D01*
X-94759869Y5421523D01*
X-94977346Y5946560D01*
X-95293074Y6419080D01*
X-95694920Y6820926D01*
X-96167440Y7136654D01*
X-96692477Y7354131D01*
X-97249852Y7465000D01*
X-97818148Y7465000D01*
X-98375523Y7354131D01*
X-98900560Y7136654D01*
X-99373080Y6820926D01*
X-99774926Y6419080D01*
X-100090654Y5946560D01*
X-100308131Y5421523D01*
X-100419000Y4864148D01*
X-112954000Y4864148D01*
X-112954000Y11738495D01*
X-110639265Y11738495D01*
X-110638847Y11678679D01*
X-110639265Y11618863D01*
X-110638365Y11609691D01*
X-110622820Y11461790D01*
X-110610797Y11403220D01*
X-110599584Y11344437D01*
X-110596921Y11335615D01*
X-110552945Y11193548D01*
X-110529760Y11138393D01*
X-110507355Y11082938D01*
X-110503028Y11074801D01*
X-110432295Y10943983D01*
X-110398849Y10894397D01*
X-110366089Y10844335D01*
X-110360265Y10837194D01*
X-110265468Y10722606D01*
X-110223053Y10680486D01*
X-110181171Y10637717D01*
X-110174070Y10631843D01*
X-110058823Y10537851D01*
X-110009033Y10504771D01*
X-109959643Y10470952D01*
X-109951536Y10466569D01*
X-109820228Y10396751D01*
X-109764946Y10373966D01*
X-109709941Y10350390D01*
X-109701138Y10347665D01*
X-109558769Y10304682D01*
X-109500107Y10293066D01*
X-109441576Y10280625D01*
X-109432415Y10279662D01*
X-109432411Y10279662D01*
X-109284404Y10265150D01*
X-109284402Y10265150D01*
X-109252419Y10262000D01*
X-105584006Y10262000D01*
X-105870926Y9975080D01*
X-106186654Y9502560D01*
X-106404131Y8977523D01*
X-106515000Y8420148D01*
X-106515000Y7851852D01*
X-106404131Y7294477D01*
X-106186654Y6769440D01*
X-105870926Y6296920D01*
X-105469080Y5895074D01*
X-104996560Y5579346D01*
X-104471523Y5361869D01*
X-103914148Y5251000D01*
X-103345852Y5251000D01*
X-102788477Y5361869D01*
X-102263440Y5579346D01*
X-101790920Y5895074D01*
X-101389074Y6296920D01*
X-101073346Y6769440D01*
X-100855869Y7294477D01*
X-100745000Y7851852D01*
X-100745000Y8420148D01*
X-100855869Y8977523D01*
X-101073346Y9502560D01*
X-101389074Y9975080D01*
X-101675994Y10262000D01*
X-98535581Y10262000D01*
X-98502847Y10265224D01*
X-98492953Y10265224D01*
X-98483788Y10266188D01*
X-98335998Y10282766D01*
X-98277553Y10295189D01*
X-98218811Y10306820D01*
X-98210008Y10309546D01*
X-98068253Y10354513D01*
X-98013279Y10378075D01*
X-97957963Y10400874D01*
X-97949857Y10405257D01*
X-97819536Y10476902D01*
X-97770179Y10510698D01*
X-97720355Y10543801D01*
X-97713255Y10549675D01*
X-97599332Y10645268D01*
X-97557488Y10687998D01*
X-97515033Y10730157D01*
X-97509209Y10737298D01*
X-97416023Y10853198D01*
X-97383285Y10903228D01*
X-97349818Y10952844D01*
X-97345492Y10960981D01*
X-97276592Y11092774D01*
X-97254195Y11148209D01*
X-97231002Y11203381D01*
X-97228339Y11212203D01*
X-97186350Y11354868D01*
X-97175142Y11413626D01*
X-97163112Y11472229D01*
X-97162213Y11481400D01*
X-97148735Y11629505D01*
X-97149153Y11689321D01*
X-97148735Y11749137D01*
X-97149635Y11758308D01*
X-97165180Y11906210D01*
X-97177197Y11964750D01*
X-97188415Y12023563D01*
X-97191079Y12032385D01*
X-97235055Y12174451D01*
X-97258224Y12229568D01*
X-97280645Y12285063D01*
X-97284972Y12293199D01*
X-97355705Y12424017D01*
X-97389161Y12473618D01*
X-97421911Y12523665D01*
X-97427735Y12530806D01*
X-97522531Y12645394D01*
X-97564986Y12687553D01*
X-97606830Y12730283D01*
X-97613930Y12736157D01*
X-97729177Y12830150D01*
X-97779001Y12863253D01*
X-97828357Y12897048D01*
X-97836463Y12901431D01*
X-97967772Y12971249D01*
X-98023078Y12994044D01*
X-98078059Y13017610D01*
X-98086862Y13020335D01*
X-98229231Y13063319D01*
X-98287916Y13074939D01*
X-98346424Y13087375D01*
X-98355587Y13088338D01*
X-98355589Y13088338D01*
X-98503596Y13102850D01*
X-98503598Y13102850D01*
X-98535581Y13106000D01*
X-109252419Y13106000D01*
X-109285153Y13102776D01*
X-109295047Y13102776D01*
X-109304211Y13101812D01*
X-109452002Y13085234D01*
X-109510447Y13072811D01*
X-109569189Y13061180D01*
X-109577992Y13058454D01*
X-109719747Y13013487D01*
X-109774721Y12989925D01*
X-109830037Y12967126D01*
X-109838137Y12962745D01*
X-109838140Y12962744D01*
X-109838143Y12962742D01*
X-109968464Y12891098D01*
X-110017821Y12857302D01*
X-110067645Y12824199D01*
X-110074746Y12818325D01*
X-110188668Y12722732D01*
X-110230512Y12680002D01*
X-110272967Y12637843D01*
X-110278791Y12630702D01*
X-110371977Y12514802D01*
X-110404719Y12464767D01*
X-110438182Y12415157D01*
X-110442508Y12407020D01*
X-110511408Y12275226D01*
X-110533818Y12219759D01*
X-110556997Y12164619D01*
X-110559661Y12155797D01*
X-110601650Y12013132D01*
X-110612858Y11954374D01*
X-110624888Y11895771D01*
X-110625787Y11886600D01*
X-110639265Y11738495D01*
X-112954000Y11738495D01*
X-112954000Y19677525D01*
X-110387000Y19677525D01*
X-110387000Y19158475D01*
X-110285739Y18649399D01*
X-110087107Y18169859D01*
X-109798738Y17738285D01*
X-109431715Y17371262D01*
X-109000141Y17082893D01*
X-108520601Y16884261D01*
X-108011525Y16783000D01*
X-107492475Y16783000D01*
X-106983399Y16884261D01*
X-106503859Y17082893D01*
X-106072285Y17371262D01*
X-105705262Y17738285D01*
X-105416893Y18169859D01*
X-105218261Y18649399D01*
X-105117000Y19158475D01*
X-105117000Y19677525D01*
X-101587000Y19677525D01*
X-101587000Y19158475D01*
X-101485739Y18649399D01*
X-101287107Y18169859D01*
X-100998738Y17738285D01*
X-100631715Y17371262D01*
X-100200141Y17082893D01*
X-99720601Y16884261D01*
X-99211525Y16783000D01*
X-98692475Y16783000D01*
X-98183399Y16884261D01*
X-97703859Y17082893D01*
X-97272285Y17371262D01*
X-96905262Y17738285D01*
X-96616893Y18169859D01*
X-96418261Y18649399D01*
X-96317000Y19158475D01*
X-96317000Y19677525D01*
X-96418261Y20186601D01*
X-96616893Y20666141D01*
X-96905262Y21097715D01*
X-97272285Y21464738D01*
X-97703859Y21753107D01*
X-98183399Y21951739D01*
X-98692475Y22053000D01*
X-99211525Y22053000D01*
X-99720601Y21951739D01*
X-100200141Y21753107D01*
X-100631715Y21464738D01*
X-100998738Y21097715D01*
X-101287107Y20666141D01*
X-101485739Y20186601D01*
X-101587000Y19677525D01*
X-105117000Y19677525D01*
X-105218261Y20186601D01*
X-105416893Y20666141D01*
X-105705262Y21097715D01*
X-106072285Y21464738D01*
X-106503859Y21753107D01*
X-106983399Y21951739D01*
X-107492475Y22053000D01*
X-108011525Y22053000D01*
X-108520601Y21951739D01*
X-109000141Y21753107D01*
X-109431715Y21464738D01*
X-109798738Y21097715D01*
X-110087107Y20666141D01*
X-110285739Y20186601D01*
X-110387000Y19677525D01*
X-112954000Y19677525D01*
X-112954000Y35931525D01*
X-110453000Y35931525D01*
X-110453000Y35412475D01*
X-110351739Y34903399D01*
X-110153107Y34423859D01*
X-109864738Y33992285D01*
X-109497715Y33625262D01*
X-109066141Y33336893D01*
X-108586601Y33138261D01*
X-108077525Y33037000D01*
X-107558475Y33037000D01*
X-107049399Y33138261D01*
X-106569859Y33336893D01*
X-106138285Y33625262D01*
X-105771262Y33992285D01*
X-105482893Y34423859D01*
X-105284261Y34903399D01*
X-105183000Y35412475D01*
X-105183000Y35931525D01*
X-105284261Y36440601D01*
X-105482893Y36920141D01*
X-105771262Y37351715D01*
X-106138285Y37718738D01*
X-106569859Y38007107D01*
X-107049399Y38205739D01*
X-107558475Y38307000D01*
X-108077525Y38307000D01*
X-108586601Y38205739D01*
X-109066141Y38007107D01*
X-109497715Y37718738D01*
X-109864738Y37351715D01*
X-110153107Y36920141D01*
X-110351739Y36440601D01*
X-110453000Y35931525D01*
X-112954000Y35931525D01*
X-112954000Y87768400D01*
X-111824676Y87768400D01*
X-111821000Y87731078D01*
X-111820999Y47852333D01*
X-111824676Y47815000D01*
X-111810002Y47666015D01*
X-111766546Y47522754D01*
X-111695974Y47390724D01*
X-111624799Y47303998D01*
X-111601000Y47274999D01*
X-111572002Y47251201D01*
X-107401731Y43080930D01*
X-107453000Y42823184D01*
X-107453000Y42520816D01*
X-107394011Y42224257D01*
X-107278299Y41944905D01*
X-107110312Y41693495D01*
X-106896505Y41479688D01*
X-106645095Y41311701D01*
X-106365743Y41195989D01*
X-106069184Y41137000D01*
X-105766816Y41137000D01*
X-105470257Y41195989D01*
X-105190905Y41311701D01*
X-104939495Y41479688D01*
X-104725688Y41693495D01*
X-104668000Y41779831D01*
X-104610312Y41693495D01*
X-104396505Y41479688D01*
X-104145095Y41311701D01*
X-103865743Y41195989D01*
X-103569184Y41137000D01*
X-103266816Y41137000D01*
X-102970257Y41195989D01*
X-102690905Y41311701D01*
X-102439495Y41479688D01*
X-102225688Y41693495D01*
X-102168000Y41779831D01*
X-102155999Y41761870D01*
X-102156000Y27390985D01*
X-102159688Y27396505D01*
X-102373495Y27610312D01*
X-102624905Y27778299D01*
X-102904257Y27894011D01*
X-103200816Y27953000D01*
X-103503184Y27953000D01*
X-103799743Y27894011D01*
X-104079095Y27778299D01*
X-104330505Y27610312D01*
X-104544312Y27396505D01*
X-104602000Y27310169D01*
X-104659688Y27396505D01*
X-104873495Y27610312D01*
X-105124905Y27778299D01*
X-105404257Y27894011D01*
X-105700816Y27953000D01*
X-106003184Y27953000D01*
X-106299743Y27894011D01*
X-106579095Y27778299D01*
X-106830505Y27610312D01*
X-107044312Y27396505D01*
X-107212299Y27145095D01*
X-107328011Y26865743D01*
X-107387000Y26569184D01*
X-107387000Y26266816D01*
X-107328011Y25970257D01*
X-107212299Y25690905D01*
X-107044312Y25439495D01*
X-106830505Y25225688D01*
X-106579095Y25057701D01*
X-106299743Y24941989D01*
X-106003184Y24883000D01*
X-105700816Y24883000D01*
X-105404257Y24941989D01*
X-105124905Y25057701D01*
X-104873495Y25225688D01*
X-104659688Y25439495D01*
X-104602000Y25525831D01*
X-104544312Y25439495D01*
X-104330505Y25225688D01*
X-104079095Y25057701D01*
X-103799743Y24941989D01*
X-103503184Y24883000D01*
X-103200816Y24883000D01*
X-102904257Y24941989D01*
X-102624905Y25057701D01*
X-102373495Y25225688D01*
X-102159688Y25439495D01*
X-102102000Y25525831D01*
X-102044312Y25439495D01*
X-101830505Y25225688D01*
X-101579095Y25057701D01*
X-101299743Y24941989D01*
X-101003184Y24883000D01*
X-100700816Y24883000D01*
X-100404257Y24941989D01*
X-100124905Y25057701D01*
X-99873495Y25225688D01*
X-99659688Y25439495D01*
X-99491701Y25690905D01*
X-99375989Y25970257D01*
X-99317000Y26266816D01*
X-99317000Y26569184D01*
X-99375989Y26865743D01*
X-99491701Y27145095D01*
X-99659688Y27396505D01*
X-99873495Y27610312D01*
X-100124905Y27778299D01*
X-100404257Y27894011D01*
X-100636000Y27940107D01*
X-100636000Y33584025D01*
X-100266141Y33336893D01*
X-99786601Y33138261D01*
X-99277525Y33037000D01*
X-98758475Y33037000D01*
X-98249399Y33138261D01*
X-97769859Y33336893D01*
X-97338285Y33625262D01*
X-96971262Y33992285D01*
X-96682893Y34423859D01*
X-96484261Y34903399D01*
X-96383000Y35412475D01*
X-96383000Y35931525D01*
X-96484261Y36440601D01*
X-96682893Y36920141D01*
X-96971262Y37351715D01*
X-97338285Y37718738D01*
X-97769859Y38007107D01*
X-98249399Y38205739D01*
X-98758475Y38307000D01*
X-99277525Y38307000D01*
X-99786601Y38205739D01*
X-100266141Y38007107D01*
X-100636000Y37759975D01*
X-100636000Y41163021D01*
X-100470257Y41195989D01*
X-100190905Y41311701D01*
X-99939495Y41479688D01*
X-99725688Y41693495D01*
X-99557701Y41944905D01*
X-99441989Y42224257D01*
X-99383000Y42520816D01*
X-99383000Y42823184D01*
X-99441989Y43119743D01*
X-99557701Y43399095D01*
X-99725688Y43650505D01*
X-99939495Y43864312D01*
X-100190905Y44032299D01*
X-100470257Y44148011D01*
X-100766816Y44207000D01*
X-101069184Y44207000D01*
X-101365743Y44148011D01*
X-101645095Y44032299D01*
X-101896505Y43864312D01*
X-102110312Y43650505D01*
X-102168000Y43564169D01*
X-102225688Y43650505D01*
X-102439495Y43864312D01*
X-102690905Y44032299D01*
X-102970257Y44148011D01*
X-103266816Y44207000D01*
X-103569184Y44207000D01*
X-103865743Y44148011D01*
X-104145095Y44032299D01*
X-104396505Y43864312D01*
X-104610312Y43650505D01*
X-104668000Y43564169D01*
X-104725688Y43650505D01*
X-104939495Y43864312D01*
X-105190905Y44032299D01*
X-105470257Y44148011D01*
X-105766816Y44207000D01*
X-106069184Y44207000D01*
X-106326930Y44155731D01*
X-110301000Y48129801D01*
X-110301000Y50726122D01*
X-110285739Y50649399D01*
X-110087107Y50169859D01*
X-109798738Y49738285D01*
X-109431715Y49371262D01*
X-109000141Y49082893D01*
X-108520601Y48884261D01*
X-108011525Y48783000D01*
X-107492475Y48783000D01*
X-106983399Y48884261D01*
X-106503859Y49082893D01*
X-106072285Y49371262D01*
X-105705262Y49738285D01*
X-105416893Y50169859D01*
X-105218261Y50649399D01*
X-105117000Y51158475D01*
X-105117000Y51677525D01*
X-101587000Y51677525D01*
X-101587000Y51158475D01*
X-101485739Y50649399D01*
X-101287107Y50169859D01*
X-100998738Y49738285D01*
X-100631715Y49371262D01*
X-100200141Y49082893D01*
X-99720601Y48884261D01*
X-99211525Y48783000D01*
X-98692475Y48783000D01*
X-98183399Y48884261D01*
X-97703859Y49082893D01*
X-97272285Y49371262D01*
X-96905262Y49738285D01*
X-96616893Y50169859D01*
X-96418261Y50649399D01*
X-96317000Y51158475D01*
X-96317000Y51677525D01*
X-96418261Y52186601D01*
X-96616893Y52666141D01*
X-96905262Y53097715D01*
X-97272285Y53464738D01*
X-97703859Y53753107D01*
X-98183399Y53951739D01*
X-98692475Y54053000D01*
X-99211525Y54053000D01*
X-99720601Y53951739D01*
X-100200141Y53753107D01*
X-100631715Y53464738D01*
X-100998738Y53097715D01*
X-101287107Y52666141D01*
X-101485739Y52186601D01*
X-101587000Y51677525D01*
X-105117000Y51677525D01*
X-105218261Y52186601D01*
X-105416893Y52666141D01*
X-105705262Y53097715D01*
X-106072285Y53464738D01*
X-106503859Y53753107D01*
X-106983399Y53951739D01*
X-107492475Y54053000D01*
X-108011525Y54053000D01*
X-108520601Y53951739D01*
X-109000141Y53753107D01*
X-109431715Y53464738D01*
X-109798738Y53097715D01*
X-110087107Y52666141D01*
X-110285739Y52186601D01*
X-110301000Y52109878D01*
X-110301000Y61792199D01*
X-107335731Y58826930D01*
X-107387000Y58569184D01*
X-107387000Y58266816D01*
X-107328011Y57970257D01*
X-107212299Y57690905D01*
X-107044312Y57439495D01*
X-106830505Y57225688D01*
X-106579095Y57057701D01*
X-106299743Y56941989D01*
X-106003184Y56883000D01*
X-105700816Y56883000D01*
X-105404257Y56941989D01*
X-105124905Y57057701D01*
X-104873495Y57225688D01*
X-104659688Y57439495D01*
X-104602000Y57525831D01*
X-104544312Y57439495D01*
X-104330505Y57225688D01*
X-104079095Y57057701D01*
X-103799743Y56941989D01*
X-103503184Y56883000D01*
X-103200816Y56883000D01*
X-102904257Y56941989D01*
X-102624905Y57057701D01*
X-102373495Y57225688D01*
X-102159688Y57439495D01*
X-102102000Y57525831D01*
X-102044312Y57439495D01*
X-101830505Y57225688D01*
X-101579095Y57057701D01*
X-101299743Y56941989D01*
X-101003184Y56883000D01*
X-100700816Y56883000D01*
X-100404257Y56941989D01*
X-100124905Y57057701D01*
X-99873495Y57225688D01*
X-99659688Y57439495D01*
X-99491701Y57690905D01*
X-99375989Y57970257D01*
X-99317000Y58266816D01*
X-99317000Y58569184D01*
X-99375989Y58865743D01*
X-99491701Y59145095D01*
X-99659688Y59396505D01*
X-99873495Y59610312D01*
X-100124905Y59778299D01*
X-100404257Y59894011D01*
X-100700816Y59953000D01*
X-101003184Y59953000D01*
X-101299743Y59894011D01*
X-101579095Y59778299D01*
X-101830505Y59610312D01*
X-102044312Y59396505D01*
X-102102000Y59310169D01*
X-102159688Y59396505D01*
X-102373495Y59610312D01*
X-102624905Y59778299D01*
X-102904257Y59894011D01*
X-103200816Y59953000D01*
X-103503184Y59953000D01*
X-103760930Y59901731D01*
X-103866600Y60007401D01*
X-103866600Y61722489D01*
X-103793158Y61692068D01*
X-103506260Y61635000D01*
X-103213740Y61635000D01*
X-102926842Y61692068D01*
X-102656589Y61804010D01*
X-102413368Y61966525D01*
X-102206525Y62173368D01*
X-102090000Y62347760D01*
X-101973475Y62173368D01*
X-101766632Y61966525D01*
X-101523411Y61804010D01*
X-101253158Y61692068D01*
X-100966260Y61635000D01*
X-100673740Y61635000D01*
X-100386842Y61692068D01*
X-100116589Y61804010D01*
X-99873368Y61966525D01*
X-99666525Y62173368D01*
X-99504010Y62416589D01*
X-99392068Y62686842D01*
X-99335000Y62973740D01*
X-99335000Y63266260D01*
X-99392068Y63553158D01*
X-99504010Y63823411D01*
X-99666525Y64066632D01*
X-99873368Y64273475D01*
X-100066911Y64402796D01*
X-100070997Y64444286D01*
X-100114454Y64587547D01*
X-100185026Y64719576D01*
X-100279999Y64835301D01*
X-100308997Y64859099D01*
X-102566000Y67116101D01*
X-102566000Y74715525D01*
X-101561000Y74715525D01*
X-101561000Y74196475D01*
X-101459739Y73687399D01*
X-101261107Y73207859D01*
X-100972738Y72776285D01*
X-100605715Y72409262D01*
X-100174141Y72120893D01*
X-99694601Y71922261D01*
X-99185525Y71821000D01*
X-98666475Y71821000D01*
X-98157399Y71922261D01*
X-97677859Y72120893D01*
X-97246285Y72409262D01*
X-96879262Y72776285D01*
X-96590893Y73207859D01*
X-96392261Y73687399D01*
X-96291000Y74196475D01*
X-96291000Y74715525D01*
X-96392261Y75224601D01*
X-96590893Y75704141D01*
X-96879262Y76135715D01*
X-97246285Y76502738D01*
X-97677859Y76791107D01*
X-98157399Y76989739D01*
X-98666475Y77091000D01*
X-99185525Y77091000D01*
X-99694601Y76989739D01*
X-100174141Y76791107D01*
X-100605715Y76502738D01*
X-100972738Y76135715D01*
X-101261107Y75704141D01*
X-101459739Y75224601D01*
X-101561000Y74715525D01*
X-102566000Y74715525D01*
X-102566000Y80117687D01*
X-102347495Y80263688D01*
X-102133688Y80477495D01*
X-102076000Y80563831D01*
X-102018312Y80477495D01*
X-101804505Y80263688D01*
X-101553095Y80095701D01*
X-101273743Y79979989D01*
X-100977184Y79921000D01*
X-100674816Y79921000D01*
X-100378257Y79979989D01*
X-100098905Y80095701D01*
X-99847495Y80263688D01*
X-99633688Y80477495D01*
X-99465701Y80728905D01*
X-99349989Y81008257D01*
X-99291000Y81304816D01*
X-99291000Y81607184D01*
X-99349989Y81903743D01*
X-99465701Y82183095D01*
X-99633688Y82434505D01*
X-99847495Y82648312D01*
X-100098905Y82816299D01*
X-100378257Y82932011D01*
X-100674816Y82991000D01*
X-100977184Y82991000D01*
X-101273743Y82932011D01*
X-101553095Y82816299D01*
X-101804505Y82648312D01*
X-102018312Y82434505D01*
X-102076000Y82348169D01*
X-102133688Y82434505D01*
X-102347495Y82648312D01*
X-102598905Y82816299D01*
X-102878257Y82932011D01*
X-103174816Y82991000D01*
X-103477184Y82991000D01*
X-103773743Y82932011D01*
X-104053095Y82816299D01*
X-104304505Y82648312D01*
X-104518312Y82434505D01*
X-104576000Y82348169D01*
X-104633688Y82434505D01*
X-104847495Y82648312D01*
X-105098905Y82816299D01*
X-105378257Y82932011D01*
X-105674816Y82991000D01*
X-105977184Y82991000D01*
X-106273743Y82932011D01*
X-106553095Y82816299D01*
X-106804505Y82648312D01*
X-107018312Y82434505D01*
X-107186299Y82183095D01*
X-107302011Y81903743D01*
X-107361000Y81607184D01*
X-107361000Y81304816D01*
X-107302011Y81008257D01*
X-107202276Y80767478D01*
X-108714000Y82279201D01*
X-108714000Y85199957D01*
X-108559241Y85303363D01*
X-108359363Y85503241D01*
X-108202320Y85738273D01*
X-108094147Y85999426D01*
X-108039000Y86276665D01*
X-108039000Y86501335D01*
X-102781000Y86501335D01*
X-102781000Y86218665D01*
X-102725853Y85941426D01*
X-102617680Y85680273D01*
X-102460637Y85445241D01*
X-102260759Y85245363D01*
X-102025727Y85088320D01*
X-101764574Y84980147D01*
X-101487335Y84925000D01*
X-101204665Y84925000D01*
X-100927426Y84980147D01*
X-100666273Y85088320D01*
X-100431241Y85245363D01*
X-100231363Y85445241D01*
X-100074320Y85680273D01*
X-99966147Y85941426D01*
X-99911000Y86218665D01*
X-99911000Y86501335D01*
X-99922537Y86559335D01*
X-98463000Y86559335D01*
X-98463000Y86276665D01*
X-98407853Y85999426D01*
X-98299680Y85738273D01*
X-98142637Y85503241D01*
X-97942759Y85303363D01*
X-97707727Y85146320D01*
X-97446574Y85038147D01*
X-97169335Y84983000D01*
X-96886665Y84983000D01*
X-96609426Y85038147D01*
X-96348273Y85146320D01*
X-96113241Y85303363D01*
X-95913363Y85503241D01*
X-95756320Y85738273D01*
X-95648147Y85999426D01*
X-95593000Y86276665D01*
X-95593000Y86559335D01*
X-95648147Y86836574D01*
X-95756320Y87097727D01*
X-95913363Y87332759D01*
X-96113241Y87532637D01*
X-96348273Y87689680D01*
X-96609426Y87797853D01*
X-96886665Y87853000D01*
X-97169335Y87853000D01*
X-97446574Y87797853D01*
X-97707727Y87689680D01*
X-97942759Y87532637D01*
X-98142637Y87332759D01*
X-98299680Y87097727D01*
X-98407853Y86836574D01*
X-98463000Y86559335D01*
X-99922537Y86559335D01*
X-99966147Y86778574D01*
X-100074320Y87039727D01*
X-100231363Y87274759D01*
X-100431241Y87474637D01*
X-100666273Y87631680D01*
X-100927426Y87739853D01*
X-101204665Y87795000D01*
X-101487335Y87795000D01*
X-101764574Y87739853D01*
X-102025727Y87631680D01*
X-102260759Y87474637D01*
X-102460637Y87274759D01*
X-102617680Y87039727D01*
X-102725853Y86778574D01*
X-102781000Y86501335D01*
X-108039000Y86501335D01*
X-108039000Y86559335D01*
X-108094147Y86836574D01*
X-108202320Y87097727D01*
X-108359363Y87332759D01*
X-108559241Y87532637D01*
X-108749161Y87659537D01*
X-104127196Y92281502D01*
X-104098199Y92305299D01*
X-104071868Y92337383D01*
X-104003226Y92421023D01*
X-103932654Y92553053D01*
X-103907143Y92637153D01*
X-103889197Y92696314D01*
X-103878200Y92807967D01*
X-103878200Y92807976D01*
X-103874524Y92845299D01*
X-103878200Y92882622D01*
X-103878200Y94811699D01*
X-102685615Y96004283D01*
X-102617680Y95840273D01*
X-102460637Y95605241D01*
X-102260759Y95405363D01*
X-102025727Y95248320D01*
X-101764574Y95140147D01*
X-101487335Y95085000D01*
X-101204665Y95085000D01*
X-100927426Y95140147D01*
X-100666273Y95248320D01*
X-100431241Y95405363D01*
X-100231363Y95605241D01*
X-100124053Y95765842D01*
X-100071714Y95770997D01*
X-99928453Y95814454D01*
X-99921819Y95818000D01*
X-98246043Y95818000D01*
X-98142637Y95663241D01*
X-97942759Y95463363D01*
X-97707727Y95306320D01*
X-97446574Y95198147D01*
X-97169335Y95143000D01*
X-96886665Y95143000D01*
X-96609426Y95198147D01*
X-96348273Y95306320D01*
X-96113241Y95463363D01*
X-95913363Y95663241D01*
X-95756320Y95898273D01*
X-95648147Y96159426D01*
X-95593000Y96436665D01*
X-95593000Y96719335D01*
X-95648147Y96996574D01*
X-95756320Y97257727D01*
X-95913363Y97492759D01*
X-96113241Y97692637D01*
X-96348273Y97849680D01*
X-96609426Y97957853D01*
X-96886665Y98013000D01*
X-97169335Y98013000D01*
X-97446574Y97957853D01*
X-97707727Y97849680D01*
X-97942759Y97692637D01*
X-98142637Y97492759D01*
X-98246043Y97338000D01*
X-100125378Y97338000D01*
X-100162701Y97341676D01*
X-100168768Y97341078D01*
X-100231363Y97434759D01*
X-100431241Y97634637D01*
X-100666273Y97791680D01*
X-100830283Y97859615D01*
X-100308997Y98380901D01*
X-100279999Y98404699D01*
X-100185026Y98520424D01*
X-100114454Y98652453D01*
X-100070997Y98795714D01*
X-100066911Y98837204D01*
X-99873368Y98966525D01*
X-99666525Y99173368D01*
X-99550000Y99347760D01*
X-99433475Y99173368D01*
X-99226632Y98966525D01*
X-98983411Y98804010D01*
X-98713158Y98692068D01*
X-98426260Y98635000D01*
X-98133740Y98635000D01*
X-97846842Y98692068D01*
X-97576589Y98804010D01*
X-97333368Y98966525D01*
X-97126525Y99173368D01*
X-96964010Y99416589D01*
X-96852068Y99686842D01*
X-96795000Y99973740D01*
X-96795000Y100266260D01*
X-96852068Y100553158D01*
X-96964010Y100823411D01*
X-97126525Y101066632D01*
X-97333368Y101273475D01*
X-97576589Y101435990D01*
X-97846842Y101547932D01*
X-98133740Y101605000D01*
X-98426260Y101605000D01*
X-98713158Y101547932D01*
X-98983411Y101435990D01*
X-99226632Y101273475D01*
X-99433475Y101066632D01*
X-99550000Y100892240D01*
X-99666525Y101066632D01*
X-99873368Y101273475D01*
X-100116589Y101435990D01*
X-100386842Y101547932D01*
X-100673740Y101605000D01*
X-100966260Y101605000D01*
X-101253158Y101547932D01*
X-101523411Y101435990D01*
X-101766632Y101273475D01*
X-101973475Y101066632D01*
X-102090000Y100892240D01*
X-102206525Y101066632D01*
X-102413368Y101273475D01*
X-102656589Y101435990D01*
X-102926842Y101547932D01*
X-103213740Y101605000D01*
X-103506260Y101605000D01*
X-103793158Y101547932D01*
X-104063411Y101435990D01*
X-104306632Y101273475D01*
X-104438487Y101141620D01*
X-104460498Y101214180D01*
X-104519463Y101324494D01*
X-104598815Y101421185D01*
X-104695506Y101500537D01*
X-104805820Y101559502D01*
X-104925518Y101595812D01*
X-105050000Y101608072D01*
X-106750000Y101608072D01*
X-106874482Y101595812D01*
X-106994180Y101559502D01*
X-107104494Y101500537D01*
X-107201185Y101421185D01*
X-107280537Y101324494D01*
X-107339502Y101214180D01*
X-107375812Y101094482D01*
X-107388072Y100970000D01*
X-107388072Y99270000D01*
X-107375812Y99145518D01*
X-107339502Y99025820D01*
X-107280537Y98915506D01*
X-107201185Y98818815D01*
X-107104494Y98739463D01*
X-106994180Y98680498D01*
X-106874482Y98644188D01*
X-106750000Y98631928D01*
X-106660000Y98631928D01*
X-106659999Y93244203D01*
X-111571997Y88332204D01*
X-111601001Y88308401D01*
X-111656129Y88241226D01*
X-111695974Y88192676D01*
X-111766545Y88060647D01*
X-111766546Y88060646D01*
X-111810003Y87917385D01*
X-111821000Y87805732D01*
X-111821000Y87805722D01*
X-111824676Y87768400D01*
X-112954000Y87768400D01*
X-112954000Y96719335D01*
X-110909000Y96719335D01*
X-110909000Y96436665D01*
X-110853853Y96159426D01*
X-110745680Y95898273D01*
X-110588637Y95663241D01*
X-110388759Y95463363D01*
X-110153727Y95306320D01*
X-109892574Y95198147D01*
X-109615335Y95143000D01*
X-109332665Y95143000D01*
X-109055426Y95198147D01*
X-108794273Y95306320D01*
X-108559241Y95463363D01*
X-108359363Y95663241D01*
X-108202320Y95898273D01*
X-108094147Y96159426D01*
X-108039000Y96436665D01*
X-108039000Y96719335D01*
X-108094147Y96996574D01*
X-108202320Y97257727D01*
X-108359363Y97492759D01*
X-108559241Y97692637D01*
X-108794273Y97849680D01*
X-109055426Y97957853D01*
X-109332665Y98013000D01*
X-109615335Y98013000D01*
X-109892574Y97957853D01*
X-110153727Y97849680D01*
X-110388759Y97692637D01*
X-110588637Y97492759D01*
X-110745680Y97257727D01*
X-110853853Y96996574D01*
X-110909000Y96719335D01*
X-112954000Y96719335D01*
X-112954000Y101009000D01*
X-110791072Y101009000D01*
X-110791072Y100159000D01*
X-110778812Y100034518D01*
X-110742502Y99914820D01*
X-110683537Y99804506D01*
X-110604185Y99707815D01*
X-110507494Y99628463D01*
X-110397180Y99569498D01*
X-110277482Y99533188D01*
X-110153000Y99520928D01*
X-109303000Y99520928D01*
X-109178518Y99533188D01*
X-109058820Y99569498D01*
X-108948506Y99628463D01*
X-108851815Y99707815D01*
X-108772463Y99804506D01*
X-108713498Y99914820D01*
X-108677188Y100034518D01*
X-108664928Y100159000D01*
X-108664928Y101009000D01*
X-108677188Y101133482D01*
X-108713498Y101253180D01*
X-108718168Y101261917D01*
X-108708460Y101293938D01*
X-108835743Y101457000D01*
X-108849201Y101457000D01*
X-108851815Y101460185D01*
X-108948506Y101539537D01*
X-109058820Y101598502D01*
X-109178518Y101634812D01*
X-109303000Y101647072D01*
X-110153000Y101647072D01*
X-110277482Y101634812D01*
X-110397180Y101598502D01*
X-110507494Y101539537D01*
X-110604185Y101460185D01*
X-110606799Y101457000D01*
X-110620257Y101457000D01*
X-110747540Y101293938D01*
X-110737832Y101261917D01*
X-110742502Y101253180D01*
X-110778812Y101133482D01*
X-110791072Y101009000D01*
X-112954000Y101009000D01*
X-112954000Y102460000D01*
X-110316105Y102460000D01*
X-110386148Y102414936D01*
G36*
X-110109000Y-28321000D02*
G01*
X-110089000Y-28321000D01*
X-110089000Y-28575000D01*
X-110109000Y-28575000D01*
X-110109000Y-28595000D01*
X-110363000Y-28595000D01*
X-110363000Y-28575000D01*
X-110383000Y-28575000D01*
X-110383000Y-28321000D01*
X-110363000Y-28321000D01*
X-110363000Y-28301000D01*
X-110109000Y-28301000D01*
X-110109000Y-28321000D01*
G37*
X-110109000Y-28321000D02*
X-110089000Y-28321000D01*
X-110089000Y-28575000D01*
X-110109000Y-28575000D01*
X-110109000Y-28595000D01*
X-110363000Y-28595000D01*
X-110363000Y-28575000D01*
X-110383000Y-28575000D01*
X-110383000Y-28321000D01*
X-110363000Y-28321000D01*
X-110363000Y-28301000D01*
X-110109000Y-28301000D01*
X-110109000Y-28321000D01*
M02*
